<svg width="500" height="500" viewBox="0 0 500 500" fill="none" xmlns="http://www.w3.org/2000/svg">
<path d="M443.9 330.2H263.2C260 330.2 257.3 327.6 257.3 324.3V61.1C257.3 57.9 259.9 55.2 263.2 55.2H443.9C447.1 55.2 449.8 57.8 449.8 61.1V324.4C449.8 327.6 447.2 330.2 443.9 330.2ZM263.2 55.5C260.1 55.5 257.6 58 257.6 61.1V324.4C257.6 327.5 260.1 330 263.2 330H443.9C447 330 449.5 327.5 449.5 324.4V61.1C449.5 58 447 55.5 443.9 55.5H263.2Z" fill="#E0E0E0"/>
<path d="M235.5 330.2H54.6998C51.4998 330.2 48.7998 327.6 48.7998 324.3V61.1C48.7998 57.9 51.3998 55.2 54.6998 55.2H235.4C238.6 55.2 241.3 57.8 241.3 61.1V324.4C241.4 327.6 238.7 330.2 235.5 330.2ZM54.6998 55.5C51.5998 55.5 49.0998 58 49.0998 61.1V324.4C49.0998 327.5 51.5998 330 54.6998 330H235.4C238.5 330 241 327.5 241 324.4V61.1C241 58 238.5 55.5 235.4 55.5H54.6998Z" fill="#E0E0E0"/>
<path d="M500 391.3H0V391.5H500V391.3Z" fill="#E0E0E0"/>
<path d="M67.8002 405.5H51.7002V405.7H67.8002V405.5Z" fill="#E0E0E0"/>
<path d="M223.9 402.8H170.4V403H223.9V402.8Z" fill="#E0E0E0"/>
<path d="M104.9 414.8H68.7002V415H104.9V414.8Z" fill="#E0E0E0"/>
<path d="M421.6 402.7H378.4V402.9H421.6V402.7Z" fill="#E0E0E0"/>
<path d="M436.8 402.7H430.5V402.9H436.8V402.7Z" fill="#E0E0E0"/>
<path d="M370.1 408.9H316.2V409.1H370.1V408.9Z" fill="#E0E0E0"/>
<path d="M140.4 49.3C138.5 47.8 135.6 47.7 133.6 48.9C130.8 43.3 123.1 40.8 117.6 43.8C116.2 37.8 110.2 33.1 104 33.2C97.8 33.3 91.9 38.1 90.6 44.1C90.4 45.1 90.3 46.1 89.6 46.8C88.5 47.9 86.6 47.6 85 47.4C80 47 74.9 50.5 73.5 55.4L142.8 55.1C143.4 52.9 142.3 50.8 140.4 49.3Z" fill="#F5F5F5"/>
<path d="M431.6 64.9C429.7 63.4 426.8 63.3 424.8 64.5C422 58.9 414.3 56.4 408.8 59.4C407.4 53.4 401.4 48.7 395.2 48.8C389 48.9 383.1 53.7 381.8 59.7C381.6 60.7 381.5 61.7 380.8 62.4C379.7 63.5 377.8 63.2 376.2 63C371.2 62.6 366.1 66.1 364.7 71L434 70.7C434.5 68.4 433.5 66.3 431.6 64.9Z" fill="#F5F5F5"/>
<path d="M469.5 193.8C467.6 192.3 464.7 192.2 462.7 193.4C459.9 187.8 452.2 185.3 446.7 188.3C445.3 182.3 439.3 177.6 433.1 177.7C426.9 177.8 421 182.6 419.7 188.6C419.5 189.6 419.4 190.6 418.7 191.3C417.6 192.4 415.7 192.1 414.1 191.9C409.1 191.5 404 195 402.6 199.9L471.9 199.6C472.5 197.3 471.4 195.2 469.5 193.8Z" fill="#EBEBEB"/>
<path d="M102.1 169.1C99.7001 167.3 96.2001 167.1 93.6001 168.6C90.2001 161.6 80.6001 158.6 73.7001 162.2C71.9001 154.7 64.5001 148.9 56.8001 149C49.1001 149.1 41.9001 155 40.3001 162.6C40.0001 163.8 39.9001 165.1 39.0001 166C37.6001 167.4 35.3001 166.9 33.3001 166.8C27.1001 166.3 20.8001 170.7 19.1001 176.7L105 176.4C105.8 173.5 104.5 170.9 102.1 169.1Z" fill="#F5F5F5"/>
<path d="M128.8 252.9C126.4 251.1 122.9 250.9 120.3 252.4C116.9 245.4 107.3 242.4 100.4 246C98.5998 238.5 91.1998 232.7 83.4998 232.8C75.7998 232.9 68.5998 238.8 66.9998 246.4C66.6998 247.6 66.5998 248.9 65.6998 249.8C64.2998 251.2 61.9998 250.7 59.9998 250.6C53.7998 250.1 47.4998 254.5 45.7998 260.5L131.7 260.2C132.5 257.3 131.2 254.7 128.8 252.9Z" fill="#F5F5F5"/>
<path d="M292.8 38.5C290.7 36.9 287.7 36.7 285.4 38.1C282.4 32.1 274.1 29.4 268.1 32.6C266.5 26.1 260.1 21.1 253.4 21.2C246.7 21.3 240.4 26.4 239 33C238.8 34 238.6 35.2 237.9 35.9C236.7 37.1 234.7 36.7 233 36.6C227.6 36.2 222.1 40 220.7 45.2L295.3 44.9C296 42.4 294.9 40.1 292.8 38.5Z" fill="#EBEBEB"/>
<path d="M458.9 445.1C458.9 448.5 365.4 451.2 250 451.2C134.6 451.2 41.1001 448.5 41.1001 445.1C41.1001 441.7 134.6 439 250 439C365.4 439 458.9 441.8 458.9 445.1Z" fill="#F5F5F5"/>
<path d="M430.4 105.5H68.9004V442.6H430.4V105.5Z" fill="#0E5D37"/>
<path opacity="0.3" d="M430.4 105.5H68.9004V442.6H430.4V105.5Z" fill="white"/>
<path d="M277 152.5H80.9004V303.1H277V152.5Z" fill="#0E5D37"/>
<path d="M423.601 149.1H289.601V442.6H423.601V149.1Z" fill="#263238"/>
<path opacity="0.8" d="M277 152.5H80.9004V303.1H277V152.5Z" fill="white"/>
<path d="M411.3 166.6H303.8V293.1H411.3V166.6Z" fill="#0E5D37"/>
<path opacity="0.8" d="M411.3 166.6H303.8V293.1H411.3V166.6Z" fill="white"/>
<path opacity="0.6" d="M381 166.6L303.8 233.1V256.9L410.8 166.6H381Z" fill="white"/>
<path opacity="0.6" d="M411.3 181.8L303.8 273.3V284.8L411.3 194.7V181.8Z" fill="white"/>
<path opacity="0.6" d="M207.801 152.5L81.6006 235.2V267.5L248.101 152.5H207.801Z" fill="white"/>
<path opacity="0.6" d="M277 152.5L80.9004 289.5V303.1H83.6004L277.1 169.2L277 152.5Z" fill="white"/>
<path d="M316.2 314.8C316.2 318.5 313.2 321.5 309.5 321.5C305.8 321.5 302.8 318.5 302.8 314.8C302.8 311.1 305.8 308.1 309.5 308.1C313.2 308 316.2 311 316.2 314.8Z" fill="#0E5D37"/>
<path d="M282.9 301.8H75.2002V314.2H282.9V301.8Z" fill="#263238"/>
<path opacity="0.3" d="M270.8 332.5H96.4004V412H270.8V332.5Z" stroke="white" stroke-miterlimit="10"/>
<path opacity="0.3" d="M261.4 341.1H106.1V403.5H261.4V341.1Z" stroke="white" stroke-miterlimit="10"/>
<path d="M93.6002 67.7L54.2002 107.4H444.8L406.8 67.7H93.6002Z" fill="#0E5D37"/>
<path d="M54.2002 107.4C54.2002 120.4 63.9002 130.8 75.9002 130.8C87.9002 130.8 97.7002 120.3 97.7002 107.4H54.2002Z" fill="#0E5D37"/>
<path d="M97.8003 107.4C97.8003 120.4 107.5 130.8 119.5 130.8C131.5 130.8 141.3 120.3 141.3 107.4H97.8003Z" fill="#0E5D37"/>
<path d="M141.4 107.4C141.4 120.4 151.1 130.8 163.1 130.8C175.1 130.8 184.9 120.3 184.9 107.4H141.4Z" fill="#0E5D37"/>
<path d="M184.9 107.4C184.9 120.4 194.6 130.8 206.6 130.8C218.6 130.8 228.3 120.3 228.3 107.4H184.9Z" fill="#0E5D37"/>
<path d="M228.5 107.4C228.5 120.4 238.2 130.8 250.2 130.8C262.2 130.8 271.9 120.3 271.9 107.4H228.5Z" fill="#0E5D37"/>
<path d="M272.1 107.4C272.1 120.4 281.8 130.8 293.8 130.8C305.8 130.8 315.5 120.3 315.5 107.4H272.1Z" fill="#0E5D37"/>
<path d="M315.7 107.4C315.7 120.4 325.4 130.8 337.4 130.8C349.4 130.8 359.1 120.3 359.1 107.4H315.7Z" fill="#0E5D37"/>
<path d="M359.2 107.4C359.2 120.4 368.9 130.8 380.9 130.8C392.9 130.8 401.5 120.3 401.5 107.4H359.2Z" fill="#0E5D37"/>
<path d="M402.4 107.4C402.4 120.4 412.1 130.8 424.1 130.8C436.1 130.8 444.7 120.3 444.7 107.4H402.4Z" fill="#0E5D37"/>
<path opacity="0.5" d="M97.8002 107.4L119.5 67.7H93.6002L54.2002 107.4H97.8002Z" fill="white"/>
<path opacity="0.5" d="M141.4 107.4C141.3 107.4 157.6 67.8 157.6 67.8H188.6L185 107.4H141.4Z" fill="white"/>
<path opacity="0.5" d="M260.2 67.7H225.6L228.5 107.4H272.1L260.2 67.7Z" fill="white"/>
<path opacity="0.5" d="M315.7 107.4L315 105.4L299.8 67.7H332.9L359.2 107.4" fill="white"/>
<path opacity="0.6" d="M54.2002 107.4C54.2002 120.4 63.9002 130.8 75.9002 130.8C87.9002 130.8 97.7002 120.3 97.7002 107.4H54.2002Z" fill="white"/>
<path opacity="0.6" d="M141.4 107.4C141.4 120.4 151.1 130.8 163.1 130.8C175.1 130.8 184.9 120.3 184.9 107.4H141.4Z" fill="white"/>
<path opacity="0.6" d="M228.5 107.4C228.5 120.4 238.2 130.8 250.2 130.8C262.2 130.8 271.9 120.3 271.9 107.4H228.5Z" fill="white"/>
<path opacity="0.6" d="M315.7 107.4C315.7 120.4 325.4 130.8 337.4 130.8C349.4 130.8 359.1 120.3 359.1 107.4H315.7Z" fill="white"/>
<path opacity="0.5" d="M402.4 107.4L372.6 67.7H406.8L444.8 107.4H402.4Z" fill="white"/>
<path opacity="0.6" d="M402.4 107.4C402.4 120.4 412.1 130.8 424.1 130.8C436.1 130.8 444.7 120.3 444.7 107.4H402.4Z" fill="white"/>
<path d="M324.4 215.4L357.6 182.7L389.4 215.4" stroke="#263238" stroke-miterlimit="10"/>
<path d="M392.2 214.6H321V256.6H392.2V214.6Z" fill="#0E5D37"/>
<path d="M388.1 219H325.2V252.3H388.1V219Z" fill="#263238"/>
<path d="M337.888 240.589C336.981 240.589 336.175 240.406 335.472 240.039C334.768 239.672 334.212 239.167 333.804 238.525C333.407 237.872 333.208 237.128 333.208 236.292C333.208 235.455 333.407 234.716 333.804 234.074C334.212 233.431 334.768 232.932 335.472 232.575C336.175 232.208 336.981 232.024 337.888 232.024C338.796 232.024 339.601 232.208 340.305 232.575C341.018 232.932 341.574 233.431 341.972 234.074C342.37 234.716 342.568 235.455 342.568 236.292C342.568 237.128 342.37 237.872 341.972 238.525C341.574 239.167 341.018 239.672 340.305 240.039C339.601 240.406 338.796 240.589 337.888 240.589ZM337.888 238.28C338.225 238.28 338.52 238.203 338.775 238.05C339.04 237.897 339.249 237.673 339.402 237.377C339.555 237.072 339.632 236.71 339.632 236.292C339.632 235.873 339.555 235.522 339.402 235.236C339.249 234.94 339.04 234.716 338.775 234.563C338.52 234.41 338.225 234.334 337.888 234.334C337.562 234.334 337.266 234.41 337.001 234.563C336.746 234.716 336.537 234.94 336.374 235.236C336.221 235.522 336.145 235.873 336.145 236.292C336.145 236.71 336.221 237.072 336.374 237.377C336.537 237.673 336.746 237.897 337.001 238.05C337.266 238.203 337.562 238.28 337.888 238.28ZM349.13 240.589C348.427 240.589 347.825 240.436 347.325 240.131C346.826 239.814 346.443 239.345 346.178 238.723C345.923 238.091 345.796 237.286 345.796 236.307C345.796 235.318 345.918 234.512 346.163 233.89C346.408 233.258 346.775 232.789 347.264 232.483C347.764 232.177 348.386 232.024 349.13 232.024C349.885 232.024 350.568 232.203 351.18 232.56C351.802 232.906 352.291 233.401 352.648 234.043C353.015 234.675 353.199 235.43 353.199 236.307C353.199 237.184 353.015 237.943 352.648 238.586C352.291 239.228 351.802 239.723 351.18 240.069C350.568 240.416 349.885 240.589 349.13 240.589ZM343.915 243.419V232.162H346.683V233.569L346.668 236.307L346.821 239.06V243.419H343.915ZM348.518 238.28C348.845 238.28 349.135 238.203 349.39 238.05C349.655 237.897 349.864 237.673 350.017 237.377C350.18 237.082 350.262 236.725 350.262 236.307C350.262 235.889 350.18 235.532 350.017 235.236C349.864 234.94 349.655 234.716 349.39 234.563C349.135 234.41 348.845 234.334 348.518 234.334C348.192 234.334 347.896 234.41 347.631 234.563C347.376 234.716 347.167 234.94 347.004 235.236C346.851 235.532 346.775 235.889 346.775 236.307C346.775 236.725 346.851 237.082 347.004 237.377C347.167 237.673 347.376 237.897 347.631 238.05C347.896 238.203 348.192 238.28 348.518 238.28ZM358.893 240.589C357.914 240.589 357.058 240.406 356.323 240.039C355.6 239.661 355.034 239.152 354.626 238.509C354.228 237.857 354.029 237.117 354.029 236.292C354.029 235.466 354.223 234.731 354.61 234.089C355.008 233.436 355.554 232.932 356.247 232.575C356.94 232.208 357.72 232.024 358.587 232.024C359.403 232.024 360.147 232.192 360.82 232.529C361.493 232.855 362.028 233.34 362.426 233.982C362.824 234.624 363.023 235.404 363.023 236.322C363.023 236.424 363.018 236.541 363.007 236.674C362.997 236.806 362.987 236.929 362.977 237.041H356.415V235.511H361.432L360.331 235.94C360.341 235.562 360.27 235.236 360.117 234.961C359.974 234.686 359.77 234.471 359.505 234.318C359.25 234.166 358.949 234.089 358.602 234.089C358.256 234.089 357.95 234.166 357.685 234.318C357.43 234.471 357.231 234.691 357.088 234.976C356.945 235.251 356.874 235.578 356.874 235.955V236.399C356.874 236.806 356.956 237.158 357.119 237.454C357.292 237.75 357.537 237.979 357.853 238.142C358.169 238.295 358.546 238.372 358.985 238.372C359.393 238.372 359.739 238.316 360.025 238.203C360.321 238.081 360.611 237.897 360.897 237.653L362.426 239.243C362.028 239.682 361.539 240.018 360.958 240.253C360.377 240.477 359.688 240.589 358.893 240.589ZM369.762 232.024C370.404 232.024 370.985 232.157 371.505 232.422C372.025 232.677 372.433 233.074 372.729 233.615C373.035 234.155 373.188 234.854 373.188 235.71V240.452H370.282V236.184C370.282 235.593 370.159 235.165 369.915 234.9C369.68 234.624 369.349 234.487 368.92 234.487C368.615 234.487 368.334 234.558 368.079 234.701C367.824 234.833 367.625 235.042 367.483 235.328C367.34 235.613 367.269 235.986 367.269 236.444V240.452H364.363V232.162H367.131V234.517L366.596 233.829C366.912 233.227 367.345 232.779 367.896 232.483C368.446 232.177 369.068 232.024 369.762 232.024Z" fill="white"/>
<path d="M198 460.3L178.5 333.8H118.8L124.8 460.3H132.2L131.6 445H187.8L190.6 460.3H198Z" fill="#0E5D37"/>
<path opacity="0.5" d="M198 460.3L178.5 333.8H118.8L124.8 460.3H132.2L131.6 445H187.8L190.6 460.3H198Z" fill="black"/>
<path d="M156.1 460.3L178.5 333.8H105.3L84.6001 460.3H93.0001L95.3001 444.6L150.8 445.3L148.4 460.3H156.1Z" fill="#0E5D37"/>
<path d="M153.1 433.5L168.5 342.4H111.3L96 433.5H153.1Z" fill="#263238"/>
<path opacity="0.3" d="M98.4 433.5L113.4 344.8H168.1L168.5 342.4H111.3L96 433.5H98.4Z" fill="black"/>
<path d="M121.812 378.306L119.892 367.844H122.125L123.732 377.072H122.595L127.826 367.844H129.923L131.588 377.072H130.452L135.624 367.844H137.935L132.097 378.306H129.688L128.101 370.136H128.825L124.182 378.306H121.812ZM142.426 378.443C141.381 378.443 140.474 378.254 139.703 377.875C138.932 377.483 138.332 376.947 137.901 376.268C137.483 375.576 137.274 374.766 137.274 373.839C137.274 372.65 137.535 371.599 138.057 370.685C138.58 369.771 139.292 369.052 140.193 368.53C141.107 367.994 142.145 367.727 143.308 367.727C144.287 367.727 145.136 367.909 145.855 368.275C146.573 368.641 147.128 369.17 147.52 369.862C147.925 370.541 148.127 371.357 148.127 372.311C148.127 372.559 148.114 372.814 148.088 373.075C148.062 373.336 148.023 373.578 147.971 373.8H139.096L139.37 372.174H146.815L145.816 372.722C145.92 372.056 145.874 371.501 145.678 371.057C145.482 370.613 145.169 370.273 144.738 370.038C144.307 369.803 143.791 369.686 143.19 369.686C142.472 369.686 141.845 369.855 141.31 370.195C140.787 370.522 140.382 370.992 140.095 371.606C139.808 372.206 139.664 372.912 139.664 373.721C139.664 374.57 139.905 375.223 140.389 375.681C140.885 376.138 141.649 376.366 142.681 376.366C143.269 376.366 143.83 376.275 144.366 376.092C144.901 375.896 145.345 375.628 145.698 375.289L146.717 376.993C146.168 377.476 145.515 377.842 144.758 378.09C144.013 378.325 143.236 378.443 142.426 378.443Z" fill="white"/>
<path d="M124.662 391.183C124.189 391.183 123.757 391.082 123.364 390.878C122.978 390.674 122.669 390.383 122.436 390.005C122.211 389.619 122.098 389.157 122.098 388.619C122.098 388.124 122.178 387.67 122.338 387.255C122.505 386.84 122.738 386.48 123.036 386.175C123.335 385.869 123.68 385.633 124.073 385.466C124.473 385.298 124.91 385.215 125.383 385.215C125.87 385.215 126.288 385.302 126.637 385.477C126.994 385.651 127.263 385.917 127.445 386.273C127.627 386.622 127.71 387.059 127.696 387.582C127.681 388.303 127.55 388.936 127.303 389.481C127.056 390.019 126.71 390.438 126.266 390.736C125.823 391.034 125.288 391.183 124.662 391.183ZM125.012 390.016C125.404 390.016 125.75 389.925 126.048 389.743C126.346 389.554 126.583 389.296 126.757 388.968C126.932 388.641 127.019 388.263 127.019 387.833C127.019 387.382 126.885 387.026 126.616 386.764C126.346 386.502 125.968 386.371 125.481 386.371C125.095 386.371 124.75 386.466 124.444 386.655C124.146 386.837 123.909 387.091 123.735 387.419C123.56 387.746 123.473 388.124 123.473 388.554C123.473 389.005 123.608 389.361 123.877 389.623C124.146 389.885 124.524 390.016 125.012 390.016ZM126.441 391.107L126.703 389.776L127.074 388.226L127.259 386.666L127.532 385.28H128.896L127.739 391.107H126.441ZM129.524 391.107L130.681 385.28H131.979L131.652 386.939L131.532 386.459C131.801 385.986 132.143 385.662 132.558 385.487C132.972 385.306 133.478 385.215 134.074 385.215L133.823 386.513C133.765 386.499 133.711 386.491 133.66 386.491C133.609 386.484 133.55 386.48 133.485 386.48C132.954 386.48 132.514 386.622 132.165 386.906C131.816 387.182 131.583 387.626 131.466 388.237L130.888 391.107H129.524ZM136.924 391.183C136.342 391.183 135.836 391.078 135.407 390.867C134.978 390.649 134.643 390.35 134.403 389.972C134.171 389.587 134.054 389.136 134.054 388.619C134.054 387.957 134.2 387.372 134.491 386.862C134.782 386.353 135.178 385.953 135.68 385.662C136.189 385.364 136.768 385.215 137.415 385.215C137.961 385.215 138.433 385.316 138.834 385.52C139.234 385.724 139.543 386.018 139.761 386.404C139.987 386.782 140.099 387.237 140.099 387.768C140.099 387.906 140.092 388.048 140.077 388.194C140.063 388.339 140.041 388.474 140.012 388.597H135.069L135.222 387.692H139.368L138.812 387.997C138.87 387.626 138.844 387.317 138.735 387.07C138.626 386.822 138.452 386.633 138.212 386.502C137.971 386.371 137.684 386.306 137.35 386.306C136.949 386.306 136.6 386.4 136.302 386.59C136.011 386.771 135.785 387.033 135.625 387.375C135.465 387.71 135.385 388.103 135.385 388.554C135.385 389.026 135.52 389.39 135.789 389.645C136.066 389.899 136.491 390.027 137.066 390.027C137.393 390.027 137.706 389.976 138.004 389.874C138.302 389.765 138.55 389.616 138.746 389.427L139.314 390.376C139.008 390.645 138.644 390.849 138.222 390.987C137.808 391.118 137.375 391.183 136.924 391.183Z" fill="white"/>
<path d="M111.88 408.716C111.081 408.716 110.38 408.568 109.776 408.271C109.182 407.963 108.721 407.544 108.393 407.011C108.066 406.468 107.902 405.833 107.902 405.106C107.902 404.185 108.112 403.366 108.531 402.649C108.951 401.922 109.525 401.353 110.252 400.944C110.989 400.524 111.829 400.314 112.771 400.314C113.58 400.314 114.281 400.462 114.875 400.759C115.48 401.046 115.946 401.461 116.273 402.004C116.601 402.536 116.765 403.171 116.765 403.908C116.765 404.82 116.555 405.639 116.135 406.366C115.715 407.093 115.137 407.667 114.399 408.086C113.672 408.506 112.832 408.716 111.88 408.716ZM112.003 407.073C112.556 407.073 113.042 406.945 113.462 406.689C113.882 406.422 114.215 406.059 114.461 405.598C114.706 405.137 114.829 404.605 114.829 404C114.829 403.366 114.64 402.864 114.261 402.495C113.882 402.126 113.35 401.942 112.663 401.942C112.121 401.942 111.634 402.075 111.204 402.341C110.784 402.597 110.452 402.956 110.206 403.417C109.96 403.878 109.837 404.41 109.837 405.014C109.837 405.659 110.027 406.166 110.405 406.535C110.784 406.893 111.317 407.073 112.003 407.073ZM122.687 408.716C122.001 408.716 121.407 408.593 120.905 408.348C120.403 408.091 120.024 407.718 119.768 407.226C119.512 406.724 119.395 406.105 119.415 405.368C119.435 404.343 119.62 403.453 119.968 402.695C120.316 401.937 120.803 401.353 121.427 400.944C122.062 400.524 122.815 400.314 123.685 400.314C124.361 400.314 124.97 400.457 125.513 400.744C126.056 401.02 126.486 401.43 126.804 401.973C127.131 402.505 127.295 403.15 127.295 403.908C127.295 404.605 127.177 405.245 126.942 405.828C126.716 406.412 126.394 406.919 125.974 407.349C125.554 407.779 125.063 408.117 124.499 408.363C123.946 408.598 123.342 408.716 122.687 408.716ZM117.126 411.589L119.354 400.406H121.181L120.813 402.28L120.306 404.461L120.029 406.658L119.046 411.589H117.126ZM122.533 407.073C123.086 407.073 123.573 406.945 123.993 406.689C124.412 406.422 124.745 406.059 124.991 405.598C125.237 405.137 125.36 404.605 125.36 404C125.36 403.366 125.17 402.864 124.791 402.495C124.412 402.126 123.88 401.942 123.194 401.942C122.651 401.942 122.165 402.075 121.734 402.341C121.315 402.597 120.982 402.956 120.736 403.417C120.49 403.878 120.367 404.41 120.367 405.014C120.367 405.649 120.557 406.151 120.936 406.52C121.315 406.888 121.847 407.073 122.533 407.073ZM132.373 408.716C131.553 408.716 130.842 408.568 130.237 408.271C129.633 407.963 129.162 407.544 128.824 407.011C128.496 406.468 128.333 405.833 128.333 405.106C128.333 404.175 128.537 403.35 128.947 402.633C129.357 401.916 129.915 401.353 130.621 400.944C131.338 400.524 132.152 400.314 133.064 400.314C133.832 400.314 134.497 400.457 135.061 400.744C135.624 401.031 136.059 401.445 136.366 401.988C136.684 402.521 136.842 403.161 136.842 403.908C136.842 404.103 136.832 404.303 136.812 404.507C136.791 404.712 136.761 404.902 136.72 405.076H129.761L129.976 403.801H135.813L135.03 404.231C135.112 403.709 135.076 403.273 134.922 402.925C134.769 402.577 134.523 402.311 134.185 402.126C133.847 401.942 133.443 401.85 132.972 401.85C132.408 401.85 131.917 401.983 131.497 402.249C131.087 402.505 130.77 402.874 130.545 403.355C130.319 403.826 130.207 404.379 130.207 405.014C130.207 405.68 130.396 406.192 130.775 406.55C131.164 406.909 131.763 407.088 132.572 407.088C133.033 407.088 133.473 407.016 133.893 406.873C134.313 406.719 134.661 406.509 134.938 406.243L135.737 407.579C135.306 407.958 134.794 408.245 134.2 408.44C133.617 408.624 133.007 408.716 132.373 408.716ZM143.865 400.314C144.571 400.314 145.17 400.457 145.662 400.744C146.153 401.031 146.496 401.456 146.691 402.019C146.896 402.572 146.916 403.253 146.752 404.062L145.846 408.609H143.926L144.817 404.108C144.95 403.442 144.889 402.925 144.633 402.557C144.377 402.178 143.911 401.988 143.235 401.988C142.528 401.988 141.944 402.183 141.484 402.572C141.023 402.961 140.71 403.555 140.547 404.354L139.686 408.609H137.766L139.395 400.406H141.222L140.762 402.741L140.454 402.004C140.844 401.42 141.33 400.995 141.914 400.729C142.508 400.452 143.158 400.314 143.865 400.314Z" fill="white"/>
<g opacity="0.3">
<path d="M130.4 358.5C128.9 355.4 127.5 352.3 126 349.2C125.6 348.3 124.3 349.1 124.7 350C126.2 353.1 127.6 356.2 129.1 359.3C129.5 360.1 130.8 359.3 130.4 358.5Z" fill="white"/>
</g>
<g opacity="0.3">
<path d="M137.1 359.5C137.6 356 138.2 352.6 138.7 349.1C138.8 348.7 138.6 348.3 138.2 348.2C137.8 348.1 137.3 348.3 137.3 348.7C136.8 352.2 136.2 355.6 135.7 359.1C135.6 359.5 135.8 359.9 136.2 360C136.5 360.2 137 359.9 137.1 359.5Z" fill="white"/>
</g>
<g opacity="0.3">
<path d="M141.3 360.8C144.1 357.1 147.2 353.7 150.7 350.5C151.4 349.8 150.4 348.8 149.6 349.4C146.1 352.6 142.9 356.2 140 360C139.8 360.3 140 360.8 140.3 361C140.6 361.3 141 361.1 141.3 360.8Z" fill="white"/>
</g>
<g opacity="0.3">
<path d="M121.2 416.1C118.3 419 115.7 422 113.2 425.2C113 425.5 112.9 425.9 113.2 426.3C113.5 426.6 114 426.6 114.3 426.3C116.8 423.1 119.5 420 122.3 417.2C123 416.5 121.9 415.4 121.2 416.1Z" fill="white"/>
</g>
<g opacity="0.3">
<path d="M126.6 416.3C125.9 420.4 125.6 424.6 126 428.8C126.1 429.8 127.6 429.8 127.5 428.8C127.2 424.8 127.4 420.7 128.1 416.7C128.2 415.7 126.7 415.3 126.6 416.3Z" fill="white"/>
</g>
<g opacity="0.3">
<path d="M132.9 417.2C134.5 420.3 136.5 423.2 138.6 426C138.8 426.3 139.2 426.5 139.6 426.3C139.9 426.1 140.1 425.6 139.9 425.3C137.8 422.5 135.8 419.7 134.2 416.5C133.7 415.6 132.4 416.4 132.9 417.2Z" fill="white"/>
</g>
<path d="M461 290.1C445.1 308.8 440.4 336.4 449.3 359.2C459.2 350.3 466.2 336.8 466.7 325C467.2 313.1 464.1 301.5 461 290.1Z" fill="#0E5D37"/>
<path d="M458.2 361.3C452.8 369.6 450.2 379.7 451 389.6C459.6 386.6 467.2 376.9 471.8 369C476.4 361.1 478.9 352.2 481.2 343.4C471.8 346.6 463.6 353.1 458.2 361.3Z" fill="#0E5D37"/>
<path d="M456.2 322.6C449.8 345.6 446.5 369.4 446.5 393.3C446.5 400.1 446.8 407 447.3 413.8C447.3 414.3 448.1 414.3 448.1 413.8C446.2 389.9 447.6 365.8 452.3 342.3C453.6 335.8 455.1 329.3 456.9 322.8C457.1 322.4 456.3 322.2 456.2 322.6Z" fill="#263238"/>
<path d="M447.6 397.4C454.1 381.8 462.7 367.2 472.7 353.6C473 353.2 472.3 352.8 472.1 353.2C462.1 366.9 453.5 381.5 446.9 397.2C446.7 397.7 447.5 397.9 447.6 397.4Z" fill="#263238"/>
<path d="M438.3 374.3C442.8 381.2 445 389.6 444.3 397.9C437.1 395.4 430.8 387.3 427 380.7C423.2 374.1 421.1 366.7 419.1 359.3C427 362 433.8 367.4 438.3 374.3Z" fill="#0E5D37"/>
<path d="M447.4 403.3C442 390.5 434.9 378.7 426.8 367.5C426.5 367.1 425.9 367.5 426.2 367.9C434.3 379 441.4 390.8 446.7 403.5C446.9 403.9 447.6 403.7 447.4 403.3Z" fill="#263238"/>
<path d="M447.7 407.6C457.8 397.2 468.2 386.9 478.3 376.5C478.6 376.2 478.1 375.6 477.8 376C467.7 386.4 457.3 396.7 447.2 407.1C446.8 407.4 447.3 407.9 447.7 407.6Z" fill="#263238"/>
<path d="M478.7 371.6C469.9 380.1 461.9 389.4 454.8 399.3H456.4C463.1 399 469.6 395.7 473.8 390.5C478 385.3 479.8 378.2 478.7 371.6Z" fill="#0E5D37"/>
<path d="M437 351.4C440.8 357.6 444.3 363.9 447.7 370.3C447.9 370.7 448.6 370.3 448.3 369.9C445 363.5 441.4 357.2 437.6 351C437.4 350.6 436.7 351 437 351.4Z" fill="#263238"/>
<path d="M427.9 320.2C426.5 326.7 425 335.1 425 341.9C425 348.6 427 355.2 430.9 359.8C434.7 364.3 442.5 366.3 445.6 363.7L427.9 320.2Z" fill="#0E5D37"/>
<path d="M466.1 410.5H427.7V417.6H466.1V410.5Z" fill="#263238"/>
<path d="M459.9 443H436L431.7 416H463.3L459.9 443Z" fill="#263238"/>
<path opacity="0.2" d="M432 417.8H463.1L462.7 420.9H432.5L432 417.8Z" fill="black"/>
<path d="M43.8002 289C59.7002 307.7 64.4002 335.3 55.5002 358.1C45.6002 349.2 38.6002 335.7 38.1002 323.9C37.6002 312 40.7002 300.4 43.8002 289Z" fill="#0E5D37"/>
<path d="M46.6001 360.2C52.0001 368.5 54.6001 378.6 53.8001 388.5C45.2001 385.5 37.6001 375.8 33.0001 367.9C28.4001 360 25.9001 351.1 23.6001 342.3C33.0001 345.5 41.2001 352 46.6001 360.2Z" fill="#0E5D37"/>
<path d="M47.8999 321.7C54.2999 344.8 57.5999 368.7 57.4999 392.7C57.4999 399.4 57.1999 406 56.6999 412.7C56.6999 413.2 57.3999 413.2 57.4999 412.7C59.3999 388.9 57.9999 364.9 53.3999 341.5C52.0999 334.8 50.4999 328.1 48.6999 321.6C48.4999 321.1 47.7999 321.3 47.8999 321.7Z" fill="#263238"/>
<path d="M57.9003 396.1C51.3003 380.5 42.7003 365.8 32.7003 352.1C32.4003 351.7 31.8003 352.1 32.1003 352.5C42.0003 366.1 50.6003 380.7 57.2003 396.3C57.4003 396.8 58.1003 396.6 57.9003 396.1Z" fill="#263238"/>
<path d="M66.4999 373.2C61.9999 380.1 59.7999 388.5 60.4999 396.8C67.6999 394.3 73.9999 386.2 77.7999 379.6C81.5999 373 83.6999 365.6 85.6999 358.2C77.8999 360.9 70.9999 366.3 66.4999 373.2Z" fill="#0E5D37"/>
<path d="M58.1003 402.4C63.4003 389.7 70.5003 377.9 78.6003 366.8C78.9003 366.4 78.2003 366 78.0003 366.4C69.8003 377.6 62.8003 389.4 57.4003 402.2C57.2003 402.6 57.9003 402.8 58.1003 402.4Z" fill="#263238"/>
<path d="M57.7 405.9C47.6 395.5 37.2 385.2 27.1 374.8C26.8 374.5 26.2 375 26.6 375.3C36.6 385.8 47 396 57.1 406.5C57.5 406.8 58 406.3 57.7 405.9Z" fill="#263238"/>
<path d="M26.1001 370.5C34.9001 379 42.9001 388.3 50.0001 398.2H48.4001C41.7001 397.9 35.2001 394.6 31.0001 389.4C26.8001 384.2 25.0001 377.1 26.1001 370.5Z" fill="#0E5D37"/>
<path d="M67.2002 349.9C63.4002 356.1 59.9002 362.4 56.5002 368.8C56.3002 369.2 56.9002 369.6 57.1002 369.2C60.4002 362.8 64.0002 356.5 67.8002 350.3C68.1002 349.9 67.4002 349.5 67.2002 349.9Z" fill="#263238"/>
<path d="M76.9002 319.1C78.3002 325.6 79.8002 334 79.8002 340.8C79.8002 347.5 77.8002 354.1 73.9002 358.7C70.1002 363.2 62.3002 365.2 59.2002 362.6L76.9002 319.1Z" fill="#0E5D37"/>
<path d="M38.6776 416.605H77.0776V409.505H38.6776V416.605Z" fill="#263238"/>
<path d="M44.9 441.9H68.8L73.1 414.9H41.5L44.9 441.9Z" fill="#263238"/>
<path opacity="0.2" d="M72.8002 416.7H41.7002L42.1002 419.8H72.3002L72.8002 416.7Z" fill="black"/>
<path d="M225.8 222.9L207.1 238L204.4 213.7H197.7C197.7 213.7 197 238.1 196.9 241.1C196.8 244 197.3 246.9 198.2 249.3C199.7 253.2 204.5 254.7 208.1 252.5L230.5 238.3L235.2 218.9L231.5 219.8C229.5 220.5 227.5 221.5 225.8 222.9Z" fill="#B97964"/>
<path d="M204.5 214.5C204.5 214.5 206.7 212.6 206.8 210.3C207 207.9 207.7 206.1 207.7 204.3C207.7 202.5 206.2 204.3 205.5 205.5C204.9 206.6 204.1 207.9 203.4 207.3C202.6 206.7 199.5 198.9 198.4 198.2C197.2 197.5 197.4 198.9 197.4 198.9C197.4 198.9 196.6 197 195.8 197.1C195.6 197.1 195.1 197.6 195.4 198.5C195.9 200.6 197.3 204.8 197.3 204.8C197.2 204.6 195.2 199.4 194.8 198.7C194.3 197.7 193.5 197.6 193 197.9C192.2 198.4 194.5 204.8 194.4 205.2C194.4 205.2 193.2 201.4 192.1 201.2C191 201 191.6 203.4 192.5 205.4C193.4 207.2 194.6 211.1 195.7 212.9C197 215.1 198.4 216.3 200.8 216C203 215.7 204.5 214.5 204.5 214.5Z" fill="#B97964"/>
<path opacity="0.2" d="M207.1 238C207.1 238 207.5 239.7 207.1 242C207.1 242 210 239.5 209.3 236.3L207.1 238Z" fill="black"/>
<path opacity="0.2" d="M197.3 198.8C198.2 200.4 198.9 202 199.6 203.6" stroke="black" stroke-width="0.5" stroke-miterlimit="10" stroke-linecap="round" stroke-linejoin="round"/>
<path opacity="0.2" d="M195.6 207.3C197 206.2 198.5 205.4 200.2 204.8" stroke="black" stroke-width="0.5" stroke-miterlimit="10" stroke-linecap="round" stroke-linejoin="round"/>
<path d="M276.6 452.6L267.9 453.4L263.2 431.4L276.6 430.1V452.6Z" fill="#B97964"/>
<path d="M266.7 449.6H269.8C270.5 449.6 271.1 450 271.6 450.5C273.4 452.9 274.7 452 276.6 449.7C277.8 449.6 278.2 451 278.3 451.3L280.6 459.7C280.8 460.4 280.4 461.1 279.7 461.3C279.6 461.3 279.4 461.4 279.3 461.4C275.6 461.4 273.8 461.4 269.1 461.4H254.8C250.9 461.4 250.1 457.5 251.7 457.1C258.9 455.5 264 453.4 266.2 451.3C266.7 451 266.2 450.7 266.7 449.6Z" fill="#263238"/>
<path d="M262.099 452.5C263.099 452.5 263.999 452.4 264.999 452.1C265.099 452.1 265.099 452 265.099 451.9L264.999 451.8C264.599 451.6 260.699 449.8 259.699 450.5C259.499 450.6 259.399 450.8 259.399 451C259.399 451.4 259.599 451.8 259.899 452C260.599 452.4 261.399 452.5 262.099 452.5ZM264.399 451.9C263.299 452.1 261.099 452.4 260.299 451.7C260.099 451.5 259.899 451.3 259.899 451C259.899 450.9 259.899 450.8 259.999 450.8C260.499 450.4 262.799 451.1 264.399 451.9Z" fill="#0E5D37"/>
<path d="M264.9 452.1H265C265.1 452.1 265.1 452 265.1 451.9C265.1 451.7 264.2 447.9 262.1 448.2C261.6 448.3 261.4 448.5 261.4 448.7C261.3 449.7 263.7 451.6 264.9 452.1ZM262.3 448.5C263.6 448.5 264.4 450.7 264.7 451.6C263.4 450.9 261.7 449.4 261.8 448.7C261.8 448.6 261.8 448.5 262.2 448.5H262.3Z" fill="#0E5D37"/>
<path d="M264.5 452C265.6 452.1 266.5 452.8 267.1 453.7" stroke="#0E5D37" stroke-width="0.5" stroke-miterlimit="10" stroke-linecap="round" stroke-linejoin="round"/>
<path d="M262.6 453.4C263.7 453.5 264.6 454.2 265.2 455.1" stroke="#0E5D37" stroke-width="0.5" stroke-miterlimit="10" stroke-linecap="round" stroke-linejoin="round"/>
<path d="M260.2 454.6C261.3 454.7 262.2 455.4 262.8 456.3" stroke="#0E5D37" stroke-width="0.5" stroke-miterlimit="10" stroke-linecap="round" stroke-linejoin="round"/>
<path d="M234.7 451.9L226.1 452.7L222.1 430.6L234.3 429.3L234.7 451.9Z" fill="#B97964"/>
<path d="M224.8 448.9H227.9C228.6 448.9 229.2 449.3 229.7 449.8C231.5 452.2 232.8 451.3 234.7 449C235.9 448.9 236.3 450.3 236.4 450.6L238.7 459C238.9 459.7 238.5 460.4 237.8 460.6C237.7 460.6 237.5 460.7 237.4 460.7C233.7 460.7 231.9 460.7 227.2 460.7H213C209.1 460.7 208.3 456.8 209.9 456.4C217.1 454.8 222.2 452.7 224.4 450.6C224.8 450.3 224.4 450.1 224.8 448.9Z" fill="#263238"/>
<path d="M220.2 451.8C221.2 451.8 222.1 451.7 223.1 451.4C223.2 451.4 223.2 451.3 223.2 451.2L223.1 451.1C222.7 450.9 218.8 449.1 217.8 449.8C217.6 449.9 217.5 450.1 217.5 450.3C217.5 450.7 217.7 451.1 218 451.3C218.8 451.7 219.5 451.9 220.2 451.8ZM222.5 451.2C221.4 451.4 219.2 451.7 218.4 451C218.2 450.8 218 450.6 218 450.3C218 450.2 218 450.1 218.1 450.1C218.6 449.7 220.9 450.5 222.5 451.2Z" fill="#0E5D37"/>
<path d="M223.1 451.4H223.2C223.3 451.4 223.3 451.3 223.3 451.2C223.3 451 222.4 447.2 220.3 447.5C219.8 447.6 219.6 447.8 219.6 448C219.4 449.1 221.8 451 223.1 451.4ZM220.4 447.8C221.7 447.8 222.5 450 222.8 450.9C221.5 450.2 219.8 448.7 219.9 448C219.9 447.9 219.9 447.8 220.3 447.8H220.4Z" fill="#0E5D37"/>
<path d="M222.7 451.3C223.8 451.4 224.7 452.1 225.3 453" stroke="#0E5D37" stroke-width="0.5" stroke-miterlimit="10" stroke-linecap="round" stroke-linejoin="round"/>
<path d="M220.8 452.8C221.9 452.9 222.8 453.6 223.4 454.5" stroke="#0E5D37" stroke-width="0.5" stroke-miterlimit="10" stroke-linecap="round" stroke-linejoin="round"/>
<path d="M218.4 454C219.5 454.1 220.4 454.8 221 455.7" stroke="#0E5D37" stroke-width="0.5" stroke-miterlimit="10" stroke-linecap="round" stroke-linejoin="round"/>
<path d="M220.8 288.2C220.2 290 213.2 349.1 213.3 361.9C213.4 372.2 221.4 441.8 221.4 441.8L236.4 441.3C236.4 441.3 235.6 406.9 236.1 395C236.5 383.1 233.7 360.7 233.7 360.7L251.7 306.9L251 288.9L220.8 288.2Z" fill="#263238"/>
<path d="M274.6 367.6C274.2 365.9 273.6 362.4 272.8 357.8C272.8 357.8 272.8 357.8 272.9 357.8C272.3 351.7 274.3 320.1 272.4 302.1C270.9 290.6 268.2 284.5 265.2 280.7C265 280.5 264.9 280.3 264.8 280.2C264.3 279.6 264 279.2 264 279.2C263.4 279.3 262.9 279.5 262.3 279.6C262.1 279.6 261.9 279.7 261.7 279.7C240.8 284.1 223.1 277.8 223.1 277.8C221.2 282.5 220.1 294.3 218.7 304.8C220.9 307.2 229.4 309.4 240.4 311.5L243.5 325.7C245.2 334.5 247.3 343.1 249.1 350.9L251 359.4C251.1 360 251.2 360.5 251.3 361.1C252.3 366 263 443.5 263 443.5L278.3 443.7C278.2 443.6 279.9 390.9 274.6 367.6Z" fill="#263238"/>
<path opacity="0.2" d="M221.2 282.7C221.2 282.7 228.4 290.6 240.9 290.8C253.3 290.9 267.3 283.7 267.3 283.7L265.7 281L229.9 284.9L222.5 281L221.2 282.7Z" fill="black"/>
<path opacity="0.2" d="M244.2 329.1C244.3 329.4 237.1 301.7 237.1 301.7C237.1 301.7 231.6 326.8 240.3 340.6L244.2 329.1Z" fill="black"/>
<path d="M232.1 218.6C224.4 222.6 214.5 231 214.5 231L223.3 246.6C223.3 246.6 241.4 234.2 239.5 229.7C237.5 224.9 237.4 217.7 232.1 218.6Z" fill="#263238"/>
<g opacity="0.3">
<path d="M227.9 228.4C226.9 230.1 226.6 231 226 232.9C225.4 234.8 225.1 238.3 224.9 240.1L228.2 241C228 236.7 228 232.8 227.9 228.4Z" fill="black"/>
</g>
<path d="M270.8 241.5L275.7 223.6C272.3 218.5 255.9 214 255.9 214L244.8 214.6C244.8 214.6 240.5 215.6 236.9 216.8C232 218.4 229.4 219.7 228.2 222.4C228.2 222.4 226.2 228.4 227.4 240.8C227.7 244.2 227.4 261.9 226.4 267.8L221.4 282.7C241.7 298.5 267.1 281.6 267.1 281.6C266.2 278.8 265.6 275.7 265.2 273C265.5 269.5 265.1 264.1 266.6 258C266.6 256.8 270.3 242.6 270.8 241.5Z" fill="#263238"/>
<path opacity="0.3" d="M269 246.5C269 246.5 261.2 236.7 262.5 232.6L270.5 240.1L269 246.5Z" fill="black"/>
<path d="M267.6 223.3C268.1 223.6 272 221.7 276.3 227C280.2 231.8 298.6 250.7 298 257.4C297.5 263.3 272.4 282.2 272.4 282.2L268.3 276.5L284.7 256.3L269.2 242.3L267.6 223.3Z" fill="#B97964"/>
<path d="M272.5 221.3C276.9 222.3 284.6 233.6 284.6 233.6L271 244.8C271 244.8 262.5 234.7 263.2 229C263.8 224.2 266.9 220.1 272.5 221.3Z" fill="#263238"/>
<path d="M226.5 235.1C226.5 234.3 227.1 233.7 227.9 233.7C234.1 233.9 258.5 233.7 259.5 235.4C260.7 237.3 258.9 261.2 260.9 263.5C262.9 265.8 265.4 265.5 265.4 265.5L265.3 270.8C265.3 270.8 263.1 269.9 262.5 271.8C261.8 273.7 267.9 357.4 263.4 358.9C258.9 360.4 215.4 363.7 212.5 358.9C209.6 354.1 217 294.9 219.5 282.5C222 270.1 224.3 261.8 225.6 255.6C226.9 249.5 226.7 238.9 226.5 235.1Z" fill="#F06D06"/>
<path d="M229.3 241.1C229.3 241.1 232 220.2 233.5 218C235 215.8 239.8 215.4 239.8 215.4C239.8 215.4 237.7 217.1 236.8 220.5C235.9 223.8 233.6 242.1 233.6 242.1L229.3 241.1Z" fill="#F06D06"/>
<path d="M250.7 239.6C250.7 239.6 254.9 217 260.7 215.4L265.1 216.8C265.1 216.8 256 225.3 255.9 240.4L250.7 239.6Z" fill="#F06D06"/>
<path opacity="0.3" d="M223.399 292.2C223.399 292.2 244.099 293.9 252.699 292.2C252.699 292.2 253.499 309.9 249.799 313.1C245.499 316.8 224.299 318.6 223.399 308.7C222.799 302 223.399 292.2 223.399 292.2Z" fill="black"/>
<path opacity="0.3" d="M232.999 235.5C232.999 235.9 232.699 236.3 232.199 236.3C231.799 236.3 231.399 236 231.399 235.5C231.399 235.1 231.699 234.7 232.199 234.7C232.599 234.7 232.999 235.1 232.999 235.5Z" fill="black"/>
<path opacity="0.3" d="M254.9 235.5C254.9 235.9 254.6 236.3 254.1 236.3C253.6 236.3 253.3 236 253.3 235.5C253.3 235.1 253.6 234.7 254.1 234.7C254.6 234.7 254.9 235.1 254.9 235.5Z" fill="black"/>
<path d="M281.9 211.2C281.2 210.2 280 209.6 278.9 208.9C274.8 206.3 272.4 202 271.2 197.6C270 193.2 269.8 188.7 268.9 184.2C268.5 182.2 268 180.1 266.7 178.5C265.4 176.8 261.3 174.2 258.4 178V184.5C257.3 187.6 257.4 190.9 257.8 194.1C258.2 197.3 256 192.4 255.8 195.6C255.7 197.5 255.8 206.3 255.8 208.2C255.8 210.1 258.4 213.5 259.7 215.1C261.2 217.1 263.9 218.2 266.6 218.7C270.1 219.3 273.7 219.1 277 218.1C278.6 217.6 280.2 216.9 281.3 215.7C282.3 214.3 282.7 212.6 281.9 211.2Z" fill="#263238"/>
<path d="M258.5 177.5C260.2 177.8 261.6 179.2 262.3 180.8C262.8 181.9 263 183 262.8 184.2C262.6 185.3 261.9 186.4 260.9 186.9C259.9 187.4 258.5 187.2 257.7 186.4C257 185.6 256.9 184.5 257.1 183.4C257.3 182.4 257.8 181.4 258.1 180.4C258.4 179.4 258.6 178.3 258.3 177.3" fill="#0E5D37"/>
<path d="M258.399 214.8C258.399 214.8 254.899 217.5 250.499 221.3C249.599 222.1 248.599 222.8 247.499 223.4C244.599 224.9 243.299 224.6 242.599 223.1C242.399 222.8 242.099 221.9 241.999 221.6C241.399 219.2 240.499 217.8 242.399 216.3C244.499 214.6 245.599 213.1 245.199 210.8C244.999 209.5 244.499 208.1 243.999 206.8L245.699 204.8L254.499 195.9C254.199 201.8 253.799 211.5 258.399 214.8Z" fill="#B97964"/>
<path opacity="0.2" d="M245.3 211.2C247.7 209.8 250.4 207.3 250.1 204.4C250 203.2 249.7 202.1 249.4 201.3L244.5 207.8C244.8 208.9 245 209.6 245.3 211.2Z" fill="black"/>
<path d="M257 186.3C256.2 195.4 256 199.2 251.3 204C244.3 211.2 233.4 208.7 231.6 199.8C229.9 191.7 231.6 178.2 240.5 174.4C249.2 170.6 257.8 177.2 257 186.3Z" fill="#B97964"/>
<path d="M245.7 189.1C245.7 189.9 245.1 190.6 244.5 190.7C243.9 190.7 243.5 190 243.5 189.2C243.5 188.4 244.1 187.7 244.7 187.6C245.3 187.6 245.7 188.3 245.7 189.1Z" fill="#263238"/>
<path d="M236.3 189C236.3 189.8 235.7 190.5 235.1 190.5C234.5 190.5 234.1 189.9 234.1 189C234.1 188.2 234.7 187.5 235.3 187.5C235.9 187.5 236.3 188.2 236.3 189Z" fill="#263238"/>
<path d="M247.2 185.6C247.1 185.6 247 185.6 246.9 185.5C245.3 184.4 243.8 185.1 243.8 185.1C243.6 185.2 243.3 185.1 243.2 184.9C243.1 184.7 243.2 184.4 243.5 184.3C243.6 184.3 245.5 183.4 247.4 184.8C247.6 184.9 247.6 185.2 247.5 185.4C247.4 185.6 247.3 185.6 247.2 185.6Z" fill="#263238"/>
<path d="M233.1 185.4C233 185.4 232.9 185.3 232.9 185.2C232.8 185 232.9 184.7 233.2 184.6C235.6 183.6 237.3 184.7 237.3 184.8C237.5 184.9 237.5 185.2 237.4 185.4C237.3 185.6 237 185.7 236.8 185.5C236.7 185.5 235.4 184.6 233.5 185.4C233.3 185.4 233.2 185.4 233.1 185.4Z" fill="#263238"/>
<path d="M253.1 192C253.1 192 250.3 187.8 251.5 179.5C251.7 178.1 250.8 176.8 249.5 176.5C245.6 175.7 240.4 170.8 234 180.6C234 180.6 237.2 168.1 254.9 173.6C266.2 177.1 259.899 191.2 258.299 192.6C256.5 194.1 253.1 192 253.1 192Z" fill="#263238"/>
<path d="M259.7 193.7C258.6 195.6 256.9 196.7 255.3 197.1C252.9 197.7 251.7 193.8 252.5 191.4C253.2 189.2 255.6 187.8 257.9 188.3C260.2 188.8 260.9 191.5 259.7 193.7Z" fill="#B97964"/>
<path d="M238.7 188.8C238.7 188.8 237.3 192.2 235.7 194.3C235.4 194.7 235.6 195.2 236 195.4C237.1 195.8 238.4 195.4 238.4 195.4L238.7 188.8Z" fill="#A24E3F"/>
<path d="M244.9 187.6L242.8 187.1C242.8 187.1 243.9 188.7 244.9 187.6Z" fill="#263238"/>
<path d="M235.499 187.6L233.399 187.1C233.399 187.1 234.599 188.6 235.499 187.6Z" fill="#263238"/>
<path d="M252.5 173.1C244.6 167.8 236.3 172.3 236.3 172.3C226.8 177.8 231 187.1 231 187.1C237.6 183.6 240.9 182.2 247.2 178.6C245.7 181 248.2 184.3 251 186.8C253.8 189.3 253 190.3 253 190.3C260.6 182 260.4 178.4 252.5 173.1Z" fill="#263238"/>
<path opacity="0.2" d="M258.1 190.6C257.6 190.2 256.8 190.2 256.3 190.5C255.8 190.8 255.4 191.4 255.2 192C254.9 192.7 254.9 193.5 255 194.3" stroke="black" stroke-width="0.5" stroke-miterlimit="10" stroke-linecap="round" stroke-linejoin="round"/>
<path d="M239 198C239.7 199 240.6 201 240.6 201C240.8 201 241 200.9 241.2 200.8C243.8 200.1 244.8 198.9 245.1 197.8C245.3 197.2 245.2 196.6 245.1 196.1C245 195.6 244.8 195.2 244.8 195.2C243.6 196.4 241.2 197.3 239.9 197.7C239.4 197.9 239 198 239 198Z" fill="#263238"/>
<path d="M239.899 197.7L240.399 198.6C242.899 197.9 244.499 197.1 245.099 196.2C244.999 195.7 244.799 195.3 244.799 195.3C243.599 196.5 241.199 197.3 239.899 197.7Z" fill="white"/>
<path d="M241.2 200.8C243.8 200.1 244.8 198.9 245.1 197.8C244.2 198.1 243.2 198.5 242.3 199.2C241.7 199.7 241.4 200.3 241.2 200.8Z" fill="#DC5753"/>
<path opacity="0.3" d="M284.6 256.1C284.6 256.1 286.1 255.2 289.1 255.3C289.1 255.3 286.8 252.9 283.2 254.8L284.6 256.1Z" fill="black"/>
<path d="M268.9 277.4C268.9 277.4 265.3 272.3 263.8 272C262.3 271.7 255.3 272.5 255.1 273.5C255 274.5 256 274.6 256 274.6L254.3 276.6C254.3 276.6 254.3 277.2 255.1 277.3C255.1 277.3 255.2 278.8 256 278.8C256.8 278.9 259.9 277.8 259.9 277.8L257.3 279.6C257.3 279.6 256.9 280.3 258.9 280.1C260.9 279.9 261.6 278.9 261.6 278.9C261.6 278.9 266.2 282.8 268.5 282.8C270.8 282.8 272.3 282 272.3 282L268.9 277.4Z" fill="#B97964"/>
</svg>
