<svg width="500" height="500" viewBox="0 0 500 500" fill="none" xmlns="http://www.w3.org/2000/svg">
<path d="M397.51 463.69C371.36 453.33 359.36 425.44 354.05 399.08C353.16 394.68 351.59 390.19 352.76 385.87C353.93 381.55 358.15 377.78 362.49 378.69C366.1 379.45 368.41 382.88 370.96 385.57C374.37 389.156 378.724 391.704 383.52 392.92C386.64 393.71 390.29 393.77 392.67 391.61C395.95 388.61 395.16 383.33 394.1 378.99L388.19 354.75C387.13 350.42 386.07 345.99 386.44 341.54C386.81 337.09 388.89 332.54 392.75 330.43C396.61 328.32 402.27 329.43 404.15 333.51C404.94 335.19 405.01 337.11 405.56 338.88C406.11 340.65 407.42 342.45 409.25 342.55C411.08 342.65 412.55 341 413.55 339.42C416.99 333.98 418.69 327.61 420.2 321.32C421.71 315.03 423.11 308.62 426.04 302.88C428.97 297.14 433.7 292.01 439.83 290.18C445.96 288.35 453.5 290.62 456.52 296.35C459.54 302.08 457.45 309.16 454.74 315.03C450.716 323.74 445.455 331.824 439.12 339.03C437.99 340.32 436.75 341.72 436.61 343.46C436.35 346.57 439.78 348.8 442.86 349.07C446.35 349.38 449.79 348.21 453.27 347.81C456.75 347.41 460.77 348.03 462.81 350.92C465.64 354.92 463.03 360.47 460.1 364.38C454.232 372.216 447.057 378.982 438.89 384.38C435.98 386.3 432.89 388.13 430.81 390.98C428.73 393.83 428.14 398.11 430.42 400.8C432.7 403.49 436.93 403.52 440.13 402.11C443.33 400.7 445.89 398.17 448.8 396.21C454.23 392.54 462.03 391.12 467.08 395.37C470.39 398.17 471.74 402.83 471.42 407.18C471.1 411.53 469.36 415.61 467.42 419.47C460.48 433 450.38 445 437.68 453C424.98 461 412.46 465.42 397.51 463.66" fill="#F5F5F5"/>
<path d="M400.37 445.69C401.333 430.414 403.173 415.205 405.88 400.14C406.547 396.14 407.233 392.183 407.94 388.27C408.62 384.38 409.3 380.52 410.2 376.78C411.933 369.61 414.062 362.543 416.58 355.61C418.93 348.98 421.41 342.77 423.77 336.98C426.13 331.19 428.45 325.84 430.77 321.05C434.383 313.472 438.597 306.196 443.37 299.29C445.05 296.85 446.42 294.99 447.37 293.75C447.83 293.163 448.19 292.693 448.45 292.34C448.565 292.172 448.699 292.017 448.85 291.88C448.755 292.062 448.644 292.236 448.52 292.4L447.52 293.85C446.62 295.13 445.29 297.01 443.65 299.47C439.002 306.434 434.877 313.735 431.31 321.31C429.04 326.1 426.76 331.45 424.42 337.24C422.08 343.03 419.64 349.24 417.31 355.88C414.824 362.8 412.717 369.85 411 377C410.11 380.72 409.44 384.55 408.76 388.45C408.08 392.35 407.4 396.31 406.71 400.31C404.005 415.344 402.149 430.518 401.15 445.76" fill="#E0E0E0"/>
<path d="M410.42 376.7C410.065 376.148 409.773 375.558 409.55 374.94C409.04 373.8 408.35 372.12 407.55 370.03C405.91 365.85 403.84 360.03 401.55 353.55C399.26 347.07 397.15 341.29 395.46 337.15C394.61 335.08 393.91 333.41 393.41 332.26C393.112 331.679 392.884 331.065 392.73 330.43C393.124 330.955 393.46 331.522 393.73 332.12C394.32 333.23 395.1 334.87 396.02 336.92C397.86 341.02 400.1 346.81 402.36 353.27C404.62 359.73 406.56 365.42 408.09 369.82L409.86 374.82C410.112 375.426 410.299 376.056 410.42 376.7Z" fill="#E0E0E0"/>
<path d="M463.77 353C463.075 353.336 462.348 353.604 461.6 353.8C460.2 354.26 458.17 354.93 455.68 355.8C450.68 357.56 443.91 360.24 436.54 363.53C429.17 366.82 422.63 370.09 417.97 372.59C415.63 373.83 413.76 374.88 412.47 375.59C411.82 376.003 411.134 376.358 410.42 376.65C411.003 376.148 411.633 375.702 412.3 375.32C413.55 374.51 415.38 373.38 417.69 372.08C422.29 369.44 428.81 366.08 436.2 362.77C442.5 359.93 448.942 357.416 455.5 355.24C458.01 354.41 460.08 353.83 461.5 353.46C462.24 353.231 463 353.077 463.77 353Z" fill="#E0E0E0"/>
<path d="M400.81 444.5C400.608 444.325 400.426 444.127 400.27 443.91L398.84 442.12C397.6 440.55 395.84 438.24 393.76 435.37C389.55 429.61 383.99 421.47 377.97 412.42C371.95 403.37 366.46 395.18 362.38 389.34L357.52 382.44C356.99 381.69 356.52 381.07 356.21 380.56C355.9 380.05 355.77 379.89 355.8 379.87C355.83 379.85 356 380.05 356.34 380.46L357.77 382.25C359.01 383.81 360.77 386.12 362.85 389C367.06 394.76 372.62 402.89 378.65 411.95C384.68 421.01 390.15 429.19 394.23 435.02L399.09 441.92L400.4 443.81C400.69 444.24 400.84 444.48 400.81 444.5Z" fill="#E0E0E0"/>
<path d="M469.33 403C469.129 403.189 468.904 403.35 468.66 403.48L466.66 404.71L459.33 409.17C453.13 412.94 444.64 418.24 435.27 424.11C425.9 429.98 417.34 435.21 411.07 438.85C407.94 440.67 405.38 442.11 403.6 443.08L401.54 444.18C401.306 444.323 401.054 444.434 400.79 444.51C400.991 444.321 401.216 444.16 401.46 444.03L403.46 442.8L410.79 438.34C416.99 434.57 425.48 429.27 434.86 423.4C444.24 417.53 452.78 412.31 459.05 408.67C462.18 406.85 464.73 405.4 466.52 404.43L468.58 403.34C468.813 403.192 469.065 403.077 469.33 403Z" fill="#E0E0E0"/>
<path d="M61.1031 159.142L47.7451 227.927L149.799 247.746L163.157 178.961L61.1031 159.142Z" fill="#EBEBEB"/>
<path d="M163.32 179.85C162.97 180.132 162.591 180.376 162.19 180.58L158.87 182.52L146.54 189.52L105.61 212.3L105.28 212.48L105.03 212.19L104.42 211.48L73.76 175.22L64.55 164.17L62.08 161.17C61.7725 160.832 61.5011 160.464 61.27 160.07C61.6138 160.376 61.9316 160.711 62.22 161.07L64.83 163.99L74.27 174.85L105.14 210.91L105.75 211.62L105.16 211.51L146.22 188.98L158.69 182.26L162.1 180.48C162.486 180.232 162.894 180.021 163.32 179.85Z" fill="#E0E0E0"/>
<path d="M47.9104 228.82C47.7404 228.61 57.2504 220.68 69.1404 211.09C81.0304 201.5 90.8004 193.89 90.9604 194.09C91.1204 194.29 81.6205 202.23 69.7305 211.82C57.8405 221.41 48.0704 229 47.9104 228.82Z" fill="#E0E0E0"/>
<path d="M125.05 199.82C125.28 199.7 131.05 210.54 137.92 224.01C144.79 237.48 150.19 248.52 149.92 248.64C149.65 248.76 143.92 237.93 137.04 224.44C130.16 210.95 124.82 199.94 125.05 199.82Z" fill="#E0E0E0"/>
<path d="M204.29 145.35L139.78 152.1L134.47 107.28L198.98 100.52L204.29 145.35Z" fill="#F5F5F5"/>
<path d="M199.25 101C199.099 101.239 198.921 101.46 198.72 101.66L197.12 103.47L191.12 110.06L171.17 131.68L171.01 131.86L170.8 131.72L170.3 131.4C160.48 124.92 151.58 119.07 145.08 114.79L137.47 109.69L135.47 108.28C135.224 108.13 134.993 107.955 134.78 107.76C135.043 107.876 135.294 108.017 135.53 108.18L137.64 109.5C139.52 110.69 142.14 112.37 145.35 114.43L170.66 130.89L171.16 131.21H170.79C178.63 122.83 185.7 115.21 190.87 109.72L196.99 103.27C197.69 102.55 198.25 101.97 198.68 101.54C198.856 101.345 199.047 101.165 199.25 101Z" fill="#E0E0E0"/>
<path d="M140.05 152.62C139.91 152.53 144.05 145.87 149.26 137.76C154.47 129.65 158.82 123.15 158.96 123.25C159.1 123.35 154.96 129.99 149.75 138.11C144.54 146.23 140.18 152.71 140.05 152.62Z" fill="#E0E0E0"/>
<path d="M180.34 120.44C180.46 120.33 185.97 125.92 192.66 132.94C199.35 139.96 204.66 145.75 204.56 145.86C204.46 145.97 198.93 140.38 192.24 133.36C185.55 126.34 180.22 120.56 180.34 120.44Z" fill="#E0E0E0"/>
<path d="M114.9 91.02L79.25 66.33L96.09 41.3L131.74 65.98L114.9 91.02Z" fill="#F5F5F5"/>
<path d="M131.65 66.36C131.468 66.4172 131.28 66.4541 131.09 66.47L129.49 66.69L123.59 67.42L104.05 69.68H103.89V69.53C103.89 69.4 103.82 69.27 103.78 69.14L98.18 49.75C97.5 47.29 96.94 45.29 96.55 43.85L96.12 42.25C96.0598 42.0648 96.0196 41.8737 96 41.68C96.0824 41.8538 96.1493 42.0345 96.2 42.22C96.32 42.62 96.49 43.15 96.69 43.81C97.12 45.23 97.69 47.22 98.45 49.66C99.91 54.66 101.91 61.49 104.11 69.04L104.22 69.42L104.02 69.28L123.56 67.13L129.48 66.53L131.09 66.39C131.276 66.3666 131.463 66.3566 131.65 66.36Z" fill="#E0E0E0"/>
<path d="M79.1602 66.71C79.1602 66.61 84.1602 65.03 90.3002 63.2C96.4402 61.37 101.52 59.96 101.55 60.06C101.58 60.16 96.5502 61.75 90.4002 63.58C84.2502 65.41 79.1902 66.82 79.1602 66.71Z" fill="#E0E0E0"/>
<path d="M113.61 68C113.72 68 114.07 73.23 114.41 79.7C114.75 86.17 114.92 91.43 114.81 91.44C114.7 91.45 114.34 86.21 114.01 79.74C113.68 73.27 113.5 68 113.61 68Z" fill="#E0E0E0"/>
<path d="M401.46 123.87C401.475 117.754 400.078 111.718 397.378 106.23C394.679 100.742 390.749 95.9515 385.896 92.2304C381.043 88.5093 375.396 85.9583 369.396 84.7759C363.395 83.5935 357.203 83.8116 351.301 85.4132C345.398 87.0148 339.945 89.9567 335.366 94.01C330.786 98.0633 327.203 103.119 324.897 108.783C322.59 114.447 321.621 120.567 322.066 126.666C322.51 132.766 324.356 138.68 327.46 143.95L327.57 144.1C329.09 146.67 331 148.51 332.93 151.21L356 181.78C356.671 182.665 357.537 183.382 358.531 183.876C359.525 184.37 360.62 184.627 361.73 184.627C362.84 184.627 363.935 184.37 364.929 183.876C365.924 183.382 366.79 182.665 367.46 181.78L390.16 151.71C392.224 149.269 394.151 146.715 395.93 144.06L396 144C399.588 137.899 401.474 130.948 401.46 123.87ZM361.71 141.18C358.249 141.18 354.866 140.154 351.988 138.231C349.11 136.308 346.867 133.575 345.542 130.377C344.218 127.179 343.871 123.661 344.547 120.266C345.222 116.871 346.889 113.753 349.336 111.306C351.783 108.858 354.902 107.191 358.296 106.516C361.691 105.841 365.21 106.188 368.407 107.512C371.605 108.837 374.338 111.08 376.261 113.958C378.184 116.835 379.21 120.219 379.21 123.68C379.21 128.321 377.367 132.772 374.085 136.054C370.803 139.336 366.352 141.18 361.71 141.18Z" fill="#F5F5F5"/>
<path d="M431.86 192.09C431.882 188.783 431.138 185.516 429.688 182.544C428.237 179.573 426.119 176.977 423.498 174.96C420.878 172.943 417.827 171.559 414.583 170.917C411.339 170.275 407.99 170.392 404.799 171.259C401.608 172.126 398.66 173.72 396.187 175.915C393.714 178.11 391.783 180.848 390.543 183.914C389.304 186.979 388.79 190.29 389.043 193.588C389.296 196.885 390.308 200.079 392 202.92L392.06 203C392.88 204.38 393.91 205.38 394.95 206.83L407.4 223.32C407.76 223.798 408.226 224.186 408.761 224.454C409.296 224.721 409.887 224.86 410.485 224.86C411.083 224.86 411.674 224.721 412.209 224.454C412.744 224.186 413.21 223.798 413.57 223.32L425.81 207.1C426.927 205.786 427.968 204.411 428.93 202.98V202.92C430.858 199.637 431.87 195.897 431.86 192.09ZM410.42 201.42C408.555 201.418 406.733 200.863 405.184 199.826C403.634 198.788 402.427 197.315 401.715 195.592C401.003 193.868 400.817 191.973 401.182 190.144C401.547 188.316 402.446 186.636 403.766 185.318C405.085 184.001 406.765 183.103 408.594 182.74C410.423 182.377 412.319 182.565 414.041 183.279C415.764 183.993 417.236 185.201 418.271 186.752C419.307 188.303 419.86 190.125 419.86 191.99C419.86 193.229 419.616 194.456 419.141 195.601C418.667 196.746 417.971 197.786 417.095 198.662C416.218 199.537 415.177 200.232 414.032 200.705C412.887 201.178 411.659 201.421 410.42 201.42Z" fill="#EBEBEB"/>
<path d="M471.37 463.77C471.37 463.92 372.25 464.03 250.01 464.03C127.77 464.03 28.6299 463.92 28.6299 463.77C28.6299 463.62 127.73 463.51 250.01 463.51C372.29 463.51 471.37 463.63 471.37 463.77Z" fill="#263238"/>
<path d="M189.35 118.94L195.93 212.14C196.451 219.474 199.733 226.338 205.115 231.349C210.496 236.359 217.577 239.143 224.93 239.14C228.91 239.141 232.848 238.324 236.499 236.74C240.15 235.156 243.437 232.839 246.156 229.933C248.875 227.026 250.968 223.592 252.306 219.843C253.643 216.095 254.196 212.111 253.93 208.14C253.35 199.27 252.82 192.01 252.82 192.01C252.82 192.01 275.39 188.5 275.67 165.94C275.83 152.94 273.58 123.34 271.67 100.69C271.039 93.3041 267.658 86.4242 262.197 81.4114C256.736 76.3986 249.593 73.6181 242.18 73.62H228.51C222.935 73.9452 217.481 75.3856 212.473 77.8561C207.464 80.3265 203.002 83.7768 199.35 88.0025C195.699 92.2283 192.933 97.1437 191.215 102.458C189.497 107.772 188.863 113.376 189.35 118.94Z" fill="#B78876"/>
<path d="M252.84 191.73C252.84 191.73 238.58 192.89 223.43 183.37C223.43 183.37 230.38 199.61 252.89 197.58L252.84 191.73Z" fill="#AA6550"/>
<path d="M264.62 128C264.628 128.84 264.308 129.651 263.727 130.258C263.146 130.865 262.35 131.221 261.51 131.25C261.101 131.283 260.689 131.233 260.299 131.104C259.909 130.975 259.549 130.77 259.239 130.499C258.93 130.229 258.678 129.9 258.497 129.531C258.317 129.162 258.213 128.76 258.19 128.35C258.182 127.51 258.501 126.7 259.079 126.092C259.658 125.483 260.451 125.124 261.29 125.09C261.701 125.057 262.114 125.107 262.505 125.237C262.896 125.366 263.258 125.572 263.568 125.844C263.878 126.115 264.131 126.445 264.312 126.815C264.493 127.186 264.597 127.589 264.62 128Z" fill="#263238"/>
<path d="M267.74 123.36C267.34 123.78 264.9 121.98 261.44 121.99C257.98 122 255.44 123.73 255.05 123.31C254.87 123.12 255.28 122.31 256.38 121.55C257.881 120.512 259.666 119.964 261.49 119.98C263.287 119.973 265.039 120.54 266.49 121.6C267.58 122.42 267.94 123.18 267.74 123.36Z" fill="#263238"/>
<path d="M230.79 128C230.798 128.84 230.478 129.651 229.897 130.258C229.316 130.865 228.52 131.221 227.68 131.25C227.271 131.283 226.859 131.233 226.469 131.104C226.079 130.975 225.718 130.77 225.409 130.499C225.1 130.229 224.848 129.9 224.667 129.531C224.487 129.162 224.383 128.76 224.36 128.35C224.352 127.509 224.672 126.697 225.253 126.088C225.834 125.479 226.629 125.121 227.47 125.09C227.88 125.059 228.292 125.11 228.682 125.24C229.072 125.37 229.432 125.576 229.742 125.847C230.051 126.118 230.303 126.448 230.483 126.818C230.663 127.188 230.767 127.589 230.79 128Z" fill="#263238"/>
<path d="M233.67 124C233.27 124.42 230.82 122.61 227.36 122.62C223.9 122.63 221.36 124.37 220.97 123.94C220.79 123.75 221.19 123 222.3 122.19C223.804 121.158 225.586 120.607 227.41 120.61C229.205 120.616 230.953 121.183 232.41 122.23C233.5 123.06 233.86 123.82 233.67 124Z" fill="#263238"/>
<path d="M246.25 149.72C246.25 149.52 248.39 149.15 251.88 148.72C252.76 148.62 253.6 148.45 253.75 147.84C253.826 146.927 253.62 146.012 253.16 145.22C252.333 143.08 251.46 140.833 250.54 138.48C246.91 128.88 244.27 120.99 244.66 120.85C245.05 120.71 248.31 128.37 251.95 137.96C252.823 140.333 253.66 142.597 254.46 144.75C254.79 145.75 255.37 146.89 254.91 148.22C254.784 148.532 254.588 148.811 254.336 149.035C254.085 149.259 253.785 149.422 253.46 149.51C252.972 149.649 252.467 149.72 251.96 149.72C248.44 149.9 246.26 149.92 246.25 149.72Z" fill="#263238"/>
<path d="M236.05 152.12C236.61 152.12 236.62 155.85 239.84 158.52C243.06 161.19 247.06 160.78 247.09 161.3C247.15 161.54 246.2 162.03 244.51 162.08C242.305 162.111 240.159 161.364 238.45 159.97C236.809 158.63 235.755 156.704 235.51 154.6C235.37 153 235.79 152.1 236.05 152.12Z" fill="#263238"/>
<path d="M234.56 110.42C234.22 111.42 230.76 110.92 226.69 111.42C222.62 111.92 219.33 113.02 218.79 112.17C218.55 111.77 219.12 110.88 220.45 109.97C222.218 108.853 224.218 108.152 226.297 107.922C228.376 107.691 230.48 107.937 232.45 108.64C234 109.24 234.71 110 234.56 110.42Z" fill="#263238"/>
<path d="M266.47 113.33C265.86 114.12 263.47 113.33 260.6 113.26C257.73 113.19 255.3 113.79 254.74 112.97C254.49 112.57 254.87 111.78 255.94 111.03C257.367 110.136 259.028 109.687 260.711 109.741C262.394 109.794 264.023 110.347 265.39 111.33C266.4 112.13 266.74 113 266.47 113.33Z" fill="#263238"/>
<path d="M197 135.87C196.61 135.7 181.5 131.29 182 146.71C182.5 162.13 197.87 158.46 197.89 158.01C197.91 157.56 197 135.87 197 135.87Z" fill="#B78876"/>
<path d="M192.94 152.32C192.87 152.32 192.68 152.52 192.23 152.74C191.602 153.031 190.886 153.07 190.23 152.85C188.58 152.3 187.13 149.76 186.96 146.98C186.883 145.659 187.098 144.338 187.59 143.11C187.724 142.619 187.976 142.168 188.325 141.796C188.674 141.425 189.108 141.145 189.59 140.98C189.896 140.889 190.225 140.908 190.519 141.034C190.813 141.16 191.054 141.385 191.2 141.67C191.42 142.09 191.33 142.4 191.41 142.43C191.49 142.46 191.74 142.16 191.59 141.52C191.491 141.142 191.265 140.811 190.95 140.58C190.735 140.425 190.492 140.315 190.235 140.255C189.977 140.195 189.71 140.186 189.45 140.23C188.821 140.377 188.24 140.681 187.763 141.116C187.285 141.55 186.926 142.098 186.72 142.71C186.111 144.069 185.84 145.554 185.93 147.04C186.13 150.15 187.81 153.04 190.06 153.58C190.479 153.688 190.916 153.699 191.341 153.615C191.765 153.53 192.164 153.35 192.51 153.09C192.92 152.7 193 152.35 192.94 152.32Z" fill="#AA6550"/>
<path d="M188.38 135.35C190.73 134.78 194.8 136.95 195.8 139.15C196.8 141.35 197.02 143.85 198.02 146.06C199.02 148.27 201.28 150.25 203.64 149.69C204.437 149.441 205.154 148.984 205.718 148.368C206.282 147.751 206.673 146.996 206.85 146.18C207.19 144.532 207.207 142.834 206.9 141.18C205.99 133.98 204.48 126.84 204.19 119.58C203.9 112.32 204.93 104.79 208.74 98.58C212.55 92.37 219.54 87.85 226.74 88.44C231.53 88.82 235.93 91.32 240.69 91.99C243.526 92.3651 246.41 92.0891 249.124 91.1829C251.837 90.2766 254.308 88.7641 256.35 86.76C256.87 86.25 259.27 84.66 259.27 84.66C259.27 84.29 258.92 81.07 257.65 79.89C248.2 71.16 231.18 68.72 218.7 71.89C206.22 75.06 194.52 83.89 189.15 95.53C183.78 107.17 185.38 123.53 188.34 135.33" fill="#263238"/>
<path d="M271.88 97.26C271.88 97.26 212.7 78.26 187.1 129.42C187.1 129.42 183.27 116.61 183.27 109.74C183.27 105.15 186.01 77.83 214.13 69.23C214.13 69.23 256.48 53.07 271.88 97.26Z" fill="#F06D06"/>
<path d="M221 98.54C222.051 100.235 223.482 101.663 225.179 102.711C226.877 103.759 228.794 104.398 230.781 104.579C232.768 104.759 234.769 104.475 236.627 103.75C238.486 103.025 240.15 101.878 241.49 100.4C242.078 101.871 243.112 103.122 244.447 103.975C245.782 104.829 247.351 105.244 248.933 105.161C250.516 105.078 252.033 104.503 253.271 103.514C254.51 102.526 255.408 101.175 255.84 99.65C257.444 101.438 259.407 102.869 261.6 103.85C263.85 104.68 266.7 104.36 268.17 102.48C269.64 100.6 269.24 97.63 267.76 95.69C266.143 93.8556 264.075 92.4765 261.76 91.69C254.744 88.6047 247.034 87.4383 239.42 88.31C231.87 89.31 224.56 92.99 219.84 98.97" fill="#263238"/>
<g opacity="0.4">
<path d="M271.88 97.26C266.957 92.0718 260.206 89.0051 253.06 88.71C235.6 87.94 202.93 97.76 187.06 129.42C187.06 129.42 183.23 116.61 183.23 109.74C183.23 105.15 185.97 77.83 214.09 69.23C214.13 69.23 256.48 53.07 271.88 97.26Z" fill="black"/>
</g>
<path d="M189.57 123.43C198.34 110 210.44 98.9 224.05 90.43C237.66 81.96 260.15 73.53 275.65 69.43C280.31 68.19 285.16 67.11 289.91 67.93C294.66 68.75 299.3 71.93 300.47 76.58C301.95 82.43 291.57 91.45 286.7 94.99C281.83 98.53 271.88 103.74 271.88 103.74C271.88 103.74 272.02 92.9 254.66 90.67C231.06 87.58 189.57 123.43 189.57 123.43Z" fill="#F06D06"/>
<path d="M238.11 79.2C238.11 79.2 246.63 74.48 255.2 73.38C253.769 72.2676 252.207 71.334 250.55 70.6C245.898 71.3689 241.401 72.8815 237.23 75.08L238.11 79.2Z" fill="#E0E0E0"/>
<path d="M286.14 211.46L267.37 207.32L259.73 205.41L253.37 195.55C253.37 195.55 250.37 213.18 238.98 222.67C237.437 223.932 235.63 224.828 233.692 225.292C231.754 225.756 229.736 225.776 227.79 225.35C225.22 224.81 222.2 224.15 219.96 223.55C219.48 223.42 218.96 223.25 218.4 223.05C210.165 219.992 203.305 214.076 199.07 206.38C196.55 201.9 194.42 197.3 195.15 195.55L186.24 214L133.74 238.18L103.93 311L161.7 328.08L163.5 388.08L152.62 463.72L316.05 463.83L310.25 295.54" fill="#F06D06"/>
<path d="M243.89 276.61C243.557 276.637 243.223 276.637 242.89 276.61L239.98 276.54L229.59 276.17H229.39V276C229.22 271.49 229.01 266.15 228.78 260.44C228.51 252.21 228.27 244.77 228.08 239.3C228.02 236.64 227.97 234.47 227.93 232.89C227.93 232.18 227.93 231.6 227.93 231.15C227.904 230.947 227.904 230.742 227.93 230.54C227.976 230.737 228 230.938 228 231.14C228 231.6 228.07 232.14 228.11 232.88C228.19 234.46 228.3 236.63 228.43 239.28C228.65 244.75 228.95 252.19 229.28 260.41C229.48 266.13 229.66 271.47 229.82 275.98L229.6 275.77L239.99 276.32L242.89 276.51C243.226 276.507 243.561 276.54 243.89 276.61Z" fill="#263238"/>
<path d="M235 252.3C235.229 252.139 235.5 252.049 235.78 252.04C236.429 251.998 237.077 252.144 237.645 252.462C238.213 252.779 238.676 253.255 238.98 253.83C239.265 254.391 239.367 255.028 239.27 255.65C239.163 256.355 238.854 257.014 238.38 257.546C237.906 258.079 237.288 258.462 236.6 258.65C235.904 258.796 235.181 258.747 234.51 258.509C233.84 258.271 233.248 257.853 232.8 257.3C232.437 256.855 232.183 256.331 232.058 255.77C231.933 255.209 231.94 254.627 232.08 254.07C232.235 253.312 232.611 252.616 233.16 252.07C233.54 251.7 233.82 251.58 233.83 251.61C233.84 251.64 233.63 251.82 233.31 252.21C232.867 252.758 232.568 253.407 232.44 254.1C232.338 254.599 232.35 255.114 232.475 255.607C232.6 256.1 232.834 256.559 233.16 256.95C233.56 257.422 234.078 257.778 234.662 257.982C235.246 258.186 235.873 258.23 236.48 258.11C237.07 257.944 237.601 257.613 238.01 257.156C238.419 256.699 238.69 256.135 238.79 255.53C238.873 255.034 238.817 254.525 238.628 254.059C238.439 253.593 238.125 253.188 237.72 252.89C237.171 252.452 236.492 252.209 235.79 252.2C235.27 252.24 235 252.34 235 252.3Z" fill="#263238"/>
<path d="M233.23 231.17C233.461 230.967 233.746 230.835 234.05 230.79C234.88 230.615 235.746 230.742 236.49 231.15C237.018 231.419 237.469 231.818 237.8 232.31C238.184 232.886 238.377 233.568 238.35 234.26C238.318 235.049 238.049 235.81 237.578 236.443C237.107 237.076 236.456 237.553 235.71 237.81C234.947 238.005 234.143 237.971 233.399 237.711C232.656 237.451 232.005 236.978 231.53 236.35C231.108 235.808 230.854 235.155 230.8 234.47C230.769 233.88 230.864 233.29 231.08 232.74C231.39 231.957 231.939 231.292 232.65 230.84C232.897 230.655 233.192 230.544 233.5 230.52C233.5 230.52 233.21 230.67 232.77 231.01C232.151 231.486 231.685 232.133 231.43 232.87C231.229 233.398 231.168 233.969 231.252 234.528C231.336 235.087 231.563 235.614 231.91 236.06C232.332 236.599 232.902 237.004 233.549 237.226C234.197 237.448 234.896 237.477 235.56 237.31C236.204 237.082 236.766 236.669 237.177 236.123C237.588 235.577 237.829 234.922 237.87 234.24C237.896 233.68 237.765 233.123 237.491 232.633C237.217 232.144 236.811 231.741 236.32 231.47C235.648 231.074 234.865 230.906 234.09 230.99C233.54 231.06 233.25 231.21 233.23 231.17Z" fill="#263238"/>
<path d="M227.91 311.88C227.91 311.88 227.99 311.83 228.16 311.77L228.91 311.48C229.58 311.25 230.53 310.83 231.74 310.27C235.119 308.566 238.221 306.361 240.94 303.73C244.938 299.793 248.471 295.411 251.47 290.67C255.221 284.906 258.646 278.937 261.73 272.79C267.275 261.586 272.141 250.059 276.3 238.27C277.93 233.75 279.2 230.08 280.09 227.55L281.09 224.63C281.2 224.33 281.3 224.08 281.37 223.88C281.399 223.793 281.435 223.71 281.48 223.63C281.473 223.722 281.453 223.813 281.42 223.9C281.36 224.1 281.28 224.35 281.19 224.67C280.96 225.38 280.65 226.36 280.26 227.67C279.43 230.22 278.21 233.91 276.61 238.44C272.558 250.261 267.742 261.805 262.19 273C259.099 279.164 255.653 285.144 251.87 290.91C248.835 295.677 245.251 300.07 241.19 304C238.427 306.627 235.269 308.804 231.83 310.45C230.889 310.882 229.924 311.259 228.94 311.58L228.17 311.82C228.087 311.853 227.999 311.873 227.91 311.88Z" fill="#263238"/>
<path d="M262.34 291.91C262.77 291.91 272.72 291.23 272.72 291.23C272.72 291.23 268.61 298.49 264.33 301.23H255.62L262.34 291.91Z" fill="#FAFAFA"/>
<path d="M226.17 333.87C226.34 333.707 226.528 333.562 226.73 333.44L228.41 332.28C229.86 331.28 231.95 329.78 234.46 327.85C239.46 324.02 246.12 318.3 253.24 311.76C256.8 308.49 260.24 305.41 263.18 302.45C265.818 299.855 268.268 297.074 270.51 294.13C272.015 292.144 273.353 290.037 274.51 287.83C274.95 287.06 275.22 286.43 275.43 286.01C275.525 285.789 275.642 285.578 275.78 285.38C275.716 285.61 275.632 285.834 275.53 286.05C275.35 286.48 275.1 287.13 274.69 287.92C273.591 290.177 272.289 292.329 270.8 294.35C268.588 297.344 266.151 300.166 263.51 302.79C260.56 305.79 257.14 308.88 253.58 312.14C246.46 318.68 239.79 324.38 234.68 328.14C232.13 330.03 230 331.47 228.52 332.44C227.77 332.92 227.18 333.27 226.78 333.52C226.59 333.659 226.386 333.777 226.17 333.87Z" fill="#263238"/>
<path d="M198.13 445C198.13 445 198.13 444.91 198.25 444.76C198.37 444.61 198.5 444.37 198.66 444.1C199.03 443.53 199.59 442.69 200.34 441.63C201.84 439.53 204.16 436.57 207.22 433.09C213.38 426.18 222.01 416.75 231.51 406.31L256 379.62L263.45 371.62L265.45 369.45L265.99 368.9L266.19 368.72C266.19 368.72 266.14 368.8 266.03 368.93L265.53 369.52L263.53 371.76L256.2 379.91L231.9 406.63L207.5 433.31C204.41 436.75 202.05 439.66 200.5 441.72C199.73 442.72 199.14 443.57 198.75 444.13L198.3 444.76C198.25 444.844 198.193 444.925 198.13 445Z" fill="#263238"/>
<path d="M284.84 211C285.7 212.29 305.02 214.44 309.75 219.16C314.48 223.88 361.75 259.96 361.75 259.96L328.06 305.3L306.32 300.51L284.84 211Z" fill="#F06D06"/>
<path opacity="0.4" d="M356.02 255.56L318.25 303.14L328.06 305.3L361.71 259.91L356.02 255.56Z" fill="black"/>
<path d="M295.13 258.2C294.961 257.684 294.83 257.156 294.74 256.62C294.63 256.11 294.5 255.48 294.41 254.74C294.32 254 294.17 253.16 294.12 252.22C294.07 251.28 293.97 250.22 293.97 249.15C293.97 248.08 293.97 246.87 294.06 245.63C294.254 242.933 294.672 240.257 295.31 237.63C295.99 235.016 296.89 232.463 298 230C298.53 228.88 299 227.8 299.57 226.84C300.14 225.88 300.63 224.99 301.14 224.2C301.65 223.41 302.14 222.73 302.58 222.12C302.943 221.597 303.334 221.093 303.75 220.61C304.077 220.176 304.442 219.771 304.84 219.4C304.567 219.868 304.256 220.313 303.91 220.73C303.6 221.15 303.22 221.66 302.82 222.29C302.42 222.92 301.91 223.59 301.45 224.4C300.99 225.21 300.45 226.07 299.95 227.05C299.45 228.03 298.95 229.05 298.44 230.19C297.387 232.643 296.524 235.174 295.86 237.76C295.237 240.354 294.812 242.992 294.59 245.65C294.52 246.88 294.43 248.05 294.46 249.14C294.49 250.23 294.46 251.25 294.54 252.14C294.62 253.03 294.68 253.91 294.75 254.65C294.82 255.39 294.91 256.02 294.99 256.53C295.09 257.081 295.137 257.64 295.13 258.2Z" fill="#263238"/>
<path d="M310.25 295.48C308.701 292.477 307.309 289.397 306.08 286.25C304.687 283.175 303.452 280.031 302.38 276.83C303.929 279.83 305.324 282.908 306.56 286.05C307.955 289.126 309.187 292.274 310.25 295.48Z" fill="#263238"/>
<path d="M161.7 262.54C161.62 262.54 160.81 261.09 159.28 258.84C157.284 255.909 154.999 253.186 152.46 250.71C149.908 248.253 147.122 246.052 144.14 244.14C141.84 242.68 140.33 241.92 140.37 241.84C140.753 241.946 141.122 242.097 141.47 242.29C142.449 242.755 143.403 243.269 144.33 243.83C147.406 245.663 150.259 247.848 152.83 250.34C155.393 252.84 157.661 255.624 159.59 258.64C160.32 259.8 160.87 260.76 161.21 261.45C161.417 261.792 161.582 262.158 161.7 262.54Z" fill="#263238"/>
<path opacity="0.4" d="M103.93 310.97L106.26 305.3L170.16 322.7L167.63 329.81L103.93 310.97Z" fill="black"/>
<path d="M274.52 288.56H298.85V298.56L267.72 298.36C267.72 298.36 272.53 292.57 274.52 288.56Z" fill="#FAFAFA"/>
<g opacity="0.2">
<path d="M187.74 216.2C188.62 224 189.58 232.05 193.44 238.89C197.3 245.73 204.85 251.12 212.62 249.97C217.8 249.2 222.19 245.74 225.72 241.86C229.25 237.98 232.21 233.59 236.06 230.04C238.388 232.547 240.991 234.785 243.82 236.71C246.678 238.646 250.109 239.552 253.55 239.28C256.94 238.87 258.81 237.52 259.88 234.28C256.26 235.4 254.27 235.23 250.66 234.54C246.674 233.776 242.931 232.061 239.75 229.54C237.63 227.87 236.86 225.36 234.17 225.54C231.68 225.68 229.73 227.65 228.09 229.54C225.442 232.571 222.538 235.368 219.41 237.9C216.41 240.27 213.51 241.9 209.69 241.79C203.4 241.65 198.25 236.71 194.78 231.46C191.577 226.62 189.21 221.275 187.78 215.65" fill="black"/>
</g>
<path d="M261.38 206.47C261.437 206.652 261.474 206.84 261.49 207.03C261.49 207.4 261.61 207.94 261.68 208.64C261.83 210.04 261.98 212.07 262.04 214.64C262.175 221.214 261.548 227.781 260.17 234.21V234.37V234.53H260.02C256.465 235.363 252.755 235.263 249.25 234.24C246.384 233.474 243.676 232.208 241.25 230.5C239.608 229.384 238.136 228.037 236.88 226.5C236.542 226.085 236.228 225.651 235.94 225.2C235.828 225.046 235.731 224.882 235.65 224.71C237.281 226.843 239.239 228.706 241.45 230.23C243.863 231.86 246.534 233.07 249.35 233.81C252.779 234.779 256.398 234.865 259.87 234.06L259.68 234.25V234.09C261.042 227.694 261.712 221.17 261.68 214.63C261.68 212.12 261.57 210.09 261.49 208.68C261.49 208.03 261.42 207.5 261.39 207.07C261.358 206.872 261.354 206.669 261.38 206.47Z" fill="#263238"/>
<path d="M231 226.2C230.921 226.413 230.813 226.615 230.68 226.8C230.345 227.355 229.978 227.889 229.58 228.4C228.087 230.263 226.441 231.999 224.66 233.59C223.55 234.59 222.3 235.7 220.95 236.84C220.27 237.41 219.59 238.01 218.83 238.61C218.047 239.201 217.222 239.732 216.36 240.2C214.509 241.221 212.465 241.844 210.36 242.03C208.063 242.225 205.76 241.716 203.76 240.57C201.812 239.41 200.066 237.941 198.59 236.22C197.19 234.661 195.888 233.018 194.69 231.3C192.67 228.384 190.964 225.264 189.6 221.99C188.686 219.789 187.937 217.523 187.36 215.21C187.15 214.39 187.02 213.75 186.94 213.31C186.884 213.091 186.851 212.866 186.84 212.64C186.931 212.848 186.999 213.066 187.04 213.29C187.16 213.72 187.32 214.35 187.55 215.16C188.206 217.438 189.004 219.672 189.94 221.85C191.341 225.074 193.066 228.146 195.09 231.02C196.283 232.715 197.578 234.334 198.97 235.87C200.398 237.545 202.086 238.98 203.97 240.12C205.884 241.213 208.083 241.701 210.28 241.52C212.325 241.344 214.312 240.752 216.12 239.78C216.968 239.33 217.781 238.815 218.55 238.24C219.28 237.68 219.98 237.07 220.66 236.51C222.02 235.38 223.28 234.32 224.4 233.32C226.187 231.779 227.858 230.107 229.4 228.32C229.93 227.68 230.32 227.15 230.58 226.79C230.703 226.582 230.843 226.384 231 226.2Z" fill="#263238"/>
<path d="M209.46 341.1L217.17 329.86C217.17 329.86 222.47 311.44 221.75 308.86C221.03 306.28 218.69 296.68 219.24 296.56C219.79 296.44 225.56 294.3 228.69 302C230.64 306.8 231.28 313.12 231.49 317.2C231.513 317.704 231.645 318.197 231.877 318.645C232.109 319.094 232.435 319.486 232.833 319.796C233.232 320.106 233.692 320.326 234.184 320.44C234.675 320.555 235.186 320.562 235.68 320.46C241.01 319.36 249.88 317.69 251.99 318.2C255.05 318.93 257.79 322.83 258.05 324.14C258.31 325.45 256.21 328.4 256.21 328.4C256.21 328.4 258.81 329.73 259.61 331.74C259.72 332.01 259.81 332.28 259.89 332.54C260.134 333.346 260.164 334.201 259.976 335.022C259.788 335.843 259.39 336.6 258.82 337.22L258 338.12C258 338.12 261.25 339.01 261.65 340.87C261.867 342.228 261.83 343.615 261.54 344.96L258.49 348.11C259.34 348.903 259.897 349.96 260.07 351.11C260.23 352.83 255.66 357.11 255.66 357.11L236.05 364.11L228.27 366.11L209.46 341.1Z" fill="#B78876"/>
<path d="M256.27 328.42C254.029 329.023 251.76 329.514 249.47 329.89C247.22 330.44 244.944 330.874 242.65 331.19C243.264 330.89 243.912 330.665 244.58 330.52C245.79 330.18 247.48 329.76 249.37 329.38C251.26 329 252.97 328.72 254.23 328.56C254.901 328.422 255.587 328.375 256.27 328.42Z" fill="#AA6550"/>
<path d="M258.06 338.12C256.393 338.902 254.655 339.521 252.87 339.97C251.137 340.592 249.349 341.047 247.53 341.33C249.196 340.548 250.934 339.929 252.72 339.48C254.453 338.858 256.241 338.403 258.06 338.12Z" fill="#AA6550"/>
<path d="M259.23 347.69C257.473 348.742 255.63 349.642 253.72 350.38C251.88 351.281 249.966 352.024 248 352.6C249.757 351.548 251.6 350.648 253.51 349.91C255.35 349.009 257.264 348.266 259.23 347.69Z" fill="#AA6550"/>
<path d="M164.28 410.56L236.4 362.18L218.2 329.18L152.38 363.03L159.85 327.47L115.18 314.25L104 375.15C102.28 402.23 124 424.09 150.18 416.98C155.198 415.623 159.961 413.454 164.28 410.56Z" fill="#B78876"/>
<path d="M142.85 382.17C142.72 381.881 142.635 381.574 142.6 381.26C142.451 380.418 142.368 379.565 142.35 378.71C142.312 375.865 142.95 373.051 144.21 370.5C145.487 367.955 147.356 365.754 149.66 364.08C150.346 363.571 151.075 363.122 151.84 362.74C152.114 362.58 152.411 362.462 152.72 362.39C152.72 362.48 151.55 363.05 149.88 364.39C147.693 366.098 145.915 368.272 144.677 370.755C143.438 373.238 142.769 375.966 142.72 378.74C142.67 380.84 143 382.16 142.85 382.17Z" fill="#AA6550"/>
<path d="M328.06 305.3C328.51 304.68 379.42 335.7 379.42 335.7L395.74 410.05L419.23 418.67C419.23 418.67 426.56 335.93 420.98 323.05C415.4 310.17 358.83 263.83 358.83 263.83L328.06 305.3Z" fill="#B78876"/>
<path d="M390.54 330C389.406 331.705 387.898 333.128 386.13 334.16C384.454 335.34 382.532 336.126 380.51 336.46C382.337 335.641 384.119 334.727 385.85 333.72C387.481 332.569 389.047 331.327 390.54 330Z" fill="#AA6550"/>
<path d="M266.83 305.46L270.82 376.82L352.18 371.32L349.72 318.2L337.87 302.25L266.83 305.46Z" fill="#263238"/>
<path d="M248.34 378.41C248.58 379.78 255.49 444.41 255.49 444.41L376.58 436L397.07 433.25L387.62 373.07L373.15 369.6L248.34 378.41Z" fill="#F06D06"/>
<path opacity="0.4" d="M373.15 369.59L248.34 378.41C248.58 379.78 255.49 444.41 255.49 444.41L381.56 435.64L373.15 369.59Z" fill="black"/>
<path d="M339.98 372.14L270.82 376.82L266.83 305.46L337.87 302.25L339.98 372.14Z" fill="#455A64"/>
<path d="M292.62 304.3L294.08 326.29L297.78 324.17L299.83 326.29L302.38 324.17L306.32 326.29V303.68L292.62 304.3Z" fill="#263238"/>
<path d="M321.53 373.64L316.8 320.08L363.03 332.82L367.49 369.79L321.53 373.64Z" fill="#F06D06"/>
<path d="M363 332.83C362.918 332.967 362.82 333.095 362.71 333.21L361.82 334.26L358.42 338.14L346.61 351.39L346.43 351.59L346.24 351.4L340 344.8L323.53 327.4L318.58 322.08L317.25 320.62C317.085 320.458 316.941 320.277 316.82 320.08C317.003 320.218 317.173 320.372 317.33 320.54L318.73 321.94L323.79 327.14L340.37 344.44L346.65 351.05H346.28L358.28 337.92L361.79 334.14L362.74 333.14C362.816 333.028 362.903 332.924 363 332.83Z" fill="#263238"/>
<path d="M337.11 342.75C337.24 342.82 333.94 349.14 329.75 356.87C325.56 364.6 322.06 370.81 321.93 370.74C321.8 370.67 325.1 364.35 329.29 356.62C333.48 348.89 337 342.68 337.11 342.75Z" fill="#263238"/>
<path d="M366.41 369.79C366.29 369.86 363.09 364.74 359.26 358.36C355.43 351.98 352.42 346.73 352.55 346.65C352.68 346.57 355.87 351.7 359.7 358.09C363.53 364.48 366.54 369.72 366.41 369.79Z" fill="#263238"/>
<path d="M346.36 371.55L343.34 337.44L372.78 345.56L375.62 369.1L346.36 371.55Z" fill="#F06D06"/>
<path opacity="0.4" d="M346.36 371.55L343.34 337.44L372.78 345.56L375.62 369.1L346.36 371.55Z" fill="white"/>
<path d="M372.78 345.56C372.57 345.895 372.325 346.206 372.05 346.49C371.5 347.14 370.78 347.97 369.91 348.98L362.41 357.44L362.23 357.65L362.04 357.45L358.04 353.25C353.93 348.94 350.23 345.01 347.57 342.15L344.45 338.74C344.046 338.339 343.678 337.904 343.35 337.44C343.794 337.792 344.209 338.18 344.59 338.6L347.84 341.89C350.57 344.69 354.31 348.58 358.42 352.89L362.42 357.1H362L369.63 348.76L371.89 346.37C372.161 346.072 372.458 345.801 372.78 345.56Z" fill="#263238"/>
<path d="M356.28 351.88C356.4 351.95 354.34 355.99 351.67 360.88C350.138 363.896 348.449 366.83 346.61 369.67C347.985 366.592 349.521 363.588 351.21 360.67C352.743 357.652 354.435 354.718 356.28 351.88Z" fill="#263238"/>
<path d="M374.94 369.1C373.249 366.785 371.7 364.371 370.3 361.87C368.747 359.457 367.347 356.949 366.11 354.36C369.338 359.097 372.286 364.019 374.94 369.1Z" fill="#263238"/>
<path d="M365.12 344.12V346.86L369.42 347.36L369.65 345.27L365.12 344.12Z" fill="white"/>
<path d="M349.94 330.21V334.21L358.06 335.55L358.51 332.49L349.94 330.21Z" fill="white"/>
<path d="M318.25 393.58L317.85 373.64L301.68 374.73L303.41 394.99L318.25 393.58Z" fill="#F06D06"/>
<path d="M370.981 404.056L343.833 406.632L346.111 430.644L373.259 428.068L370.981 404.056Z" fill="#FAFAFA"/>
<path d="M373.22 428.1C373.187 427.948 373.163 427.795 373.15 427.64C373.15 427.31 373.06 426.88 373 426.34C372.88 425.18 372.7 423.53 372.48 421.46C372.05 417.24 371.48 411.28 370.72 404.11L370.96 404.31L343.83 406.92C343.77 406.98 344.27 406.39 344.06 406.64V406.82V407.03V407.43L344.14 408.25L344.29 409.87C344.4 410.94 344.5 412 344.6 413.06C344.79 415.17 344.99 417.23 345.18 419.25C345.55 423.25 345.91 427.1 346.23 430.63L345.98 430.43L365.57 428.69L371.13 428.22L372.62 428.11C372.797 428.096 372.974 428.096 373.15 428.11C372.996 428.146 372.838 428.17 372.68 428.18L371.24 428.35L365.74 428.93L346.03 430.93H345.8V430.7C345.45 427.16 345.08 423.34 344.69 419.32C344.503 417.32 344.307 415.257 344.1 413.13C344 412.07 343.9 411.01 343.8 409.93C343.75 409.4 343.7 408.86 343.64 408.32L343.57 407.5V407.1V406.89V406.71C343.36 406.96 343.85 406.36 343.81 406.42L370.95 403.89H371.17V404.11C371.81 411.34 372.34 417.36 372.72 421.62C372.89 423.67 373.02 425.3 373.12 426.46C373.12 426.99 373.19 427.41 373.21 427.73C373.222 427.853 373.226 427.977 373.22 428.1Z" fill="#263238"/>
<path d="M368.82 409.84C368.82 409.99 364.09 410.6 358.22 411.22C354.686 411.685 351.132 411.972 347.57 412.08C347.57 411.94 352.3 411.32 358.17 410.7C364.04 410.08 368.81 409.7 368.82 409.84Z" fill="#263238"/>
<path d="M368.66 413.92C367.717 414.26 366.742 414.504 365.75 414.65C363.93 415.01 361.4 415.43 358.59 415.76C355.78 416.09 353.21 416.27 351.36 416.33C350.362 416.42 349.358 416.42 348.36 416.33C349.349 416.135 350.352 416.021 351.36 415.99C353.2 415.82 355.74 415.59 358.54 415.26C361.34 414.93 363.87 414.57 365.7 414.26C366.677 414.073 367.666 413.96 368.66 413.92Z" fill="#263238"/>
<path d="M369.81 422.84C368.862 423.177 367.885 423.421 366.89 423.57C365.07 423.93 362.54 424.35 359.73 424.68C356.92 425.01 354.36 425.19 352.5 425.25C351.502 425.347 350.498 425.347 349.5 425.25C350.489 425.054 351.492 424.941 352.5 424.91C354.34 424.75 356.89 424.51 359.69 424.18C362.49 423.85 365.02 423.49 366.85 423.18C367.827 422.993 368.816 422.879 369.81 422.84Z" fill="#263238"/>
<path d="M368.44 418.27C365.176 419.008 361.874 419.569 358.55 419.95C355.239 420.512 351.901 420.899 348.55 421.11C351.816 420.384 355.117 419.823 358.44 419.43C361.751 418.874 365.089 418.487 368.44 418.27Z" fill="#263238"/>
<path d="M392.41 455.46C392.41 455.46 414.76 440.67 416.48 433.11C418.2 425.55 419.23 418.67 419.23 418.67L395.35 408.78L397.72 417.38C397.72 417.38 389.16 422.47 388.28 428.64C387.7 432.75 376.63 439.79 376.63 439.79C375.709 438.677 374.537 437.799 373.211 437.227C371.884 436.655 370.441 436.406 369 436.5L359.7 437.16L365.99 451.33L392.41 455.46Z" fill="#B78876"/>
<path d="M401.14 435.19C400.815 435.389 400.461 435.534 400.09 435.62C399.39 435.85 398.35 436.08 397.09 436.48C395.668 436.986 394.352 437.752 393.21 438.74C391.771 439.967 390.161 440.978 388.43 441.74C385.229 443.104 381.674 443.402 378.29 442.59C377.696 442.475 377.125 442.262 376.6 441.96C376.385 441.839 376.211 441.656 376.101 441.435C375.99 441.214 375.948 440.965 375.98 440.72C375.997 440.568 376.052 440.422 376.139 440.297C376.226 440.171 376.343 440.069 376.48 440C376.68 439.93 376.79 440 376.79 440C376.79 440 376.68 440 376.53 440.11C376.425 440.186 376.339 440.285 376.279 440.399C376.218 440.514 376.184 440.641 376.18 440.77C376.161 440.976 376.207 441.183 376.311 441.362C376.415 441.541 376.572 441.684 376.76 441.77C377.271 442.021 377.817 442.193 378.38 442.28C381.689 442.954 385.124 442.605 388.23 441.28C389.922 440.527 391.498 439.537 392.91 438.34C394.108 437.345 395.486 436.592 396.97 436.12C398.25 435.76 399.29 435.59 399.97 435.41C400.354 435.306 400.745 435.232 401.14 435.19Z" fill="#AA6550"/>
<path d="M385.66 446.66C385.66 446.74 384.51 446.08 382.61 445.29C380.133 444.277 377.522 443.627 374.86 443.36C374.08 443.28 373.31 443.26 372.57 443.24H372.43L372.35 443.12C371.192 441.308 369.796 439.66 368.2 438.22C366.99 437.13 366.2 436.57 366.2 436.51C366.2 436.45 366.44 436.59 366.82 436.83C367.359 437.179 367.88 437.556 368.38 437.96C370.085 439.35 371.559 441 372.75 442.85L372.54 442.73C373.3 442.73 374.08 442.73 374.88 442.85C377.596 443.112 380.249 443.825 382.73 444.96C383.477 445.3 384.202 445.688 384.9 446.12C385.18 446.259 385.436 446.442 385.66 446.66Z" fill="#AA6550"/>
<path d="M391.7 442.6C391.7 442.74 390.19 443.31 388.43 444.31C386.67 445.31 385.38 446.36 385.28 446.24C386.93 444.316 389.201 443.028 391.7 442.6Z" fill="#AA6550"/>
<path d="M403.81 416C403.81 416.16 402.25 416 400.47 416.45C398.69 416.9 397.47 417.82 397.33 417.69C398.157 416.85 399.196 416.249 400.337 415.951C401.478 415.654 402.678 415.67 403.81 416Z" fill="#AA6550"/>
<path d="M77.7699 407.47C80.7099 410.97 85.6799 409.28 87.8299 406.79C89.9799 404.3 90.6799 400.92 91.3099 397.69C92.7299 390.31 94.1499 382.58 91.9499 375.39C91.3823 373.202 90.2232 371.213 88.5999 369.64C87.7782 368.869 86.7684 368.327 85.6715 368.069C84.5745 367.811 83.4291 367.846 82.3499 368.17C79.8499 369.07 78.4799 371.72 77.5499 374.17C74.7928 381.505 73.7064 389.362 74.3699 397.17C74.6799 400.81 75.4499 404.58 77.7699 407.4" fill="#F06D06"/>
<g opacity="0.2">
<path d="M77.7699 407.47C80.7099 410.97 85.6799 409.28 87.8299 406.79C89.9799 404.3 90.6799 400.92 91.3099 397.69C92.7299 390.31 94.1499 382.58 91.9499 375.39C91.3823 373.202 90.2232 371.213 88.5999 369.64C87.7782 368.869 86.7684 368.327 85.6715 368.069C84.5745 367.811 83.4291 367.846 82.3499 368.17C79.8499 369.07 78.4799 371.72 77.5499 374.17C74.7928 381.505 73.7064 389.362 74.3699 397.17C74.6799 400.81 75.4499 404.58 77.7699 407.4" fill="black"/>
</g>
<path d="M89.2397 425.5C93.3197 422.91 98.3297 422.17 103.14 422.5C105.73 422.7 108.45 423.22 110.36 424.98C112.27 426.74 112.89 430.08 111.05 431.9C109.842 432.885 108.328 433.416 106.77 433.4C103.05 433.69 98.8697 433.4 96.1097 435.91C94.5297 437.33 93.5897 439.55 91.6197 440.36C90.6285 440.683 89.559 440.676 88.5725 440.338C87.5859 440.001 86.7356 439.352 86.1497 438.49C85.0148 436.71 84.61 434.561 85.0197 432.49C85.1406 431.079 85.584 429.716 86.3157 428.504C87.0474 427.292 88.0478 426.264 89.2397 425.5Z" fill="#F06D06"/>
<path d="M71.0698 413.47C73.6098 409.85 73.7098 404.89 72.0698 400.78C70.4298 396.67 67.2498 393.35 63.7098 390.71C59.5195 387.607 54.7639 385.352 49.7098 384.07C47.7474 383.478 45.6809 383.315 43.6498 383.59C42.6527 383.755 41.7098 384.158 40.9006 384.763C40.0914 385.369 39.4395 386.16 38.9998 387.07C37.8498 389.85 39.4698 392.96 41.1498 395.46C44.1056 399.868 47.3988 404.041 50.9998 407.94C53.9098 411.07 57.1998 414.12 61.3098 415.29C65.4198 416.46 69.5298 415.9 71.3998 412.96" fill="#F06D06"/>
<path d="M82.6199 463.78C82.706 463.211 82.7328 462.635 82.6999 462.06C82.6999 460.82 82.6999 459.26 82.6999 457.4C82.7259 455.097 82.8727 452.797 83.1399 450.51C83.4999 447.724 84.0852 444.972 84.8899 442.28C85.6686 439.593 86.8269 437.03 88.3299 434.67C89.5529 432.747 91.1893 431.121 93.1199 429.91C94.4281 429.106 95.856 428.515 97.3499 428.16C97.9169 428.079 98.4757 427.949 99.0199 427.77C98.4438 427.743 97.8666 427.783 97.2999 427.89C95.7379 428.155 94.2349 428.693 92.8599 429.48C90.8216 430.68 89.0868 432.332 87.7899 434.31C86.2242 436.712 85.0181 439.329 84.2099 442.08C83.3973 444.812 82.8218 447.609 82.4899 450.44C82.2562 452.749 82.1594 455.07 82.1999 457.39C82.1999 459.39 82.3199 460.97 82.3899 462.07C82.4008 462.647 82.4779 463.221 82.6199 463.78Z" fill="#263238"/>
<path d="M82.6197 460.19C82.6462 459.927 82.6462 459.663 82.6197 459.4C82.6197 458.81 82.4997 458.06 82.4197 457.15C82.2397 455.2 81.9897 452.37 81.7797 448.87C81.3297 441.87 81.0697 432.19 81.2797 421.5C81.4897 410.81 82.1997 401.14 83.0097 394.18C83.1897 392.43 83.3797 390.86 83.5797 389.48C83.7797 388.1 83.9197 386.91 84.0797 385.95C84.2397 384.99 84.3197 384.3 84.4097 383.71C84.4623 383.45 84.4858 383.185 84.4797 382.92C84.3743 383.166 84.3036 383.425 84.2697 383.69C84.1497 384.27 83.9997 385 83.8097 385.9C83.6197 386.8 83.4097 388.05 83.1897 389.43C82.9697 390.81 82.7297 392.37 82.5097 394.12C81.3766 403.202 80.7324 412.339 80.5797 421.49C80.3697 432.2 80.6997 441.91 81.2797 448.91C81.5497 452.41 81.8797 455.24 82.1497 457.18C82.2797 458.09 82.3997 458.83 82.4797 459.42C82.4998 459.681 82.5467 459.939 82.6197 460.19Z" fill="#263238"/>
<path d="M80.9998 441.55C80.9905 440.762 80.9169 439.976 80.7798 439.2C80.5498 437.7 80.1498 435.54 79.4898 432.9C78.6927 429.818 77.7245 426.784 76.5898 423.81C75.223 420.156 73.5989 416.604 71.7298 413.18C68.4463 406.861 64.0414 401.193 58.7298 396.45C57.8042 395.644 56.8326 394.893 55.8198 394.2C55.3798 393.89 54.9898 393.58 54.5898 393.34L53.4898 392.71C52.82 392.297 52.1215 391.933 51.3998 391.62C51.2998 391.78 54.3998 393.24 58.3998 396.83C63.5478 401.628 67.8393 407.269 71.0898 413.51C72.9527 416.896 74.5929 420.4 75.9998 424C77.3198 427.32 78.2798 430.39 78.9998 433C79.7198 435.61 80.1898 437.74 80.4998 439.22C80.6025 440.009 80.7697 440.788 80.9998 441.55Z" fill="#263238"/>
</svg>
