<svg width="200" height="176" viewBox="0 0 200 176" fill="none" xmlns="http://www.w3.org/2000/svg">
<path d="M111.639 32.4202C111.759 31.3642 112.599 30.7658 113.639 30.8714C114.679 30.977 115.359 31.681 115.239 32.737C115.119 33.793 114.279 34.3914 113.239 34.2858C112.199 34.2154 111.519 33.5114 111.639 32.4202ZM117.759 31.329L119.199 31.4698L113.719 37.2074L112.279 37.0666L117.759 31.329ZM114.039 32.6314C114.119 31.9978 113.879 31.7514 113.559 31.7162C113.239 31.681 112.959 31.9274 112.879 32.5258C112.799 33.1594 113.039 33.4058 113.359 33.441C113.679 33.4762 113.959 33.265 114.039 32.6314ZM116.239 35.7642C116.359 34.7082 117.199 34.1098 118.239 34.2154C119.279 34.321 119.959 35.025 119.839 36.081C119.719 37.137 118.879 37.7354 117.839 37.6298C116.799 37.5594 116.119 36.8554 116.239 35.7642ZM118.639 35.9754C118.719 35.3418 118.479 35.0954 118.159 35.0602C117.839 35.025 117.559 35.2714 117.479 35.8698C117.399 36.5034 117.639 36.7498 117.959 36.785C118.279 36.8202 118.559 36.609 118.639 35.9754Z" fill="#E0E0E0"/>
<path d="M152 27.7379C151.56 25.4147 152.76 23.6547 155 23.3027C157.24 22.9859 159 24.2883 159.48 26.6115C159.92 28.9347 158.72 30.6947 156.48 31.0115C154.28 31.3635 152.44 30.0611 152 27.7379ZM158 26.8579C157.68 25.1683 156.64 24.2883 155.24 24.4643C153.88 24.6755 153.2 25.8371 153.52 27.4915C153.84 29.1811 154.92 30.0611 156.28 29.8851C157.68 29.6739 158.36 28.5475 158 26.8579ZM164.76 22.0003L166.52 21.7539L158.24 37.5587L156.48 37.8051L164.76 22.0003ZM163.48 32.9123C163.04 30.5891 164.24 28.8291 166.48 28.5123C168.72 28.1955 170.52 29.5331 170.96 31.8211C171.4 34.1443 170.2 35.9043 167.96 36.2563C165.72 36.5379 163.92 35.2003 163.48 32.9123ZM169.48 32.0323C169.16 30.3427 168.08 29.4627 166.72 29.6387C165.32 29.8499 164.64 30.9763 165 32.6659C165.32 34.3555 166.36 35.2355 167.76 35.0595C169.12 34.8483 169.8 33.6867 169.48 32.0323Z" fill="#E0E0E0"/>
<path d="M29.4393 76.8415C28.7193 75.4335 29.2793 74.1663 30.6793 73.6031C32.0793 73.0399 33.5193 73.5327 34.2393 74.9407C34.9593 76.3839 34.3993 77.6159 32.9993 78.1791C31.6393 78.7071 30.1993 78.2847 29.4393 76.8415ZM32.6393 75.5743C32.1993 74.7295 31.7193 74.5535 31.2793 74.7295C30.8393 74.9055 30.6393 75.3631 31.0793 76.2079C31.5193 77.0527 32.0393 77.2287 32.4393 77.0527C32.8793 76.8767 33.0393 76.4191 32.6393 75.5743ZM36.2793 71.5615L38.1993 70.8223L35.9993 81.5231L34.0793 82.2623L36.2793 71.5615ZM38.0393 78.1087C37.3193 76.7007 37.8793 75.4335 39.2793 74.8703C40.6793 74.3071 42.1193 74.7999 42.8393 76.2079C43.5593 77.6511 42.9993 78.8831 41.5993 79.4463C40.1993 80.0095 38.7593 79.5519 38.0393 78.1087ZM41.1993 76.8767C40.7593 76.0319 40.2793 75.8559 39.8393 76.0319C39.3993 76.2079 39.1993 76.6655 39.6393 77.5103C40.0793 78.3551 40.5593 78.5311 40.9993 78.3551C41.4393 78.1791 41.6393 77.7215 41.1993 76.8767Z" fill="#E0E0E0"/>
<path d="M178.519 104.439L180.559 104.931L171.079 112.007L169.039 111.514L178.519 104.439ZM169.439 104.72C169.919 103.207 171.279 102.573 172.719 102.925C174.199 103.277 174.959 104.439 174.519 105.952C174.039 107.466 172.679 108.099 171.239 107.747C169.759 107.395 168.959 106.234 169.439 104.72ZM172.799 105.53C173.079 104.65 172.839 104.227 172.359 104.087C171.919 103.981 171.399 104.227 171.159 105.107C170.879 105.987 171.159 106.445 171.599 106.551C172.079 106.656 172.519 106.41 172.799 105.53ZM175.119 110.493C175.599 108.979 176.919 108.346 178.399 108.698C179.879 109.05 180.639 110.211 180.199 111.725C179.719 113.239 178.359 113.872 176.919 113.52C175.439 113.168 174.639 112.007 175.119 110.493ZM178.479 111.303C178.759 110.423 178.479 110 178.039 109.859C177.559 109.754 177.079 110 176.839 110.88C176.559 111.76 176.839 112.183 177.279 112.323C177.719 112.464 178.199 112.183 178.479 111.303Z" fill="#E0E0E0"/>
<path d="M101.639 64.4157C101.599 63.7117 102.039 63.2541 102.719 63.2189C103.399 63.1837 103.879 63.6413 103.919 64.3453C103.959 65.0493 103.519 65.5069 102.839 65.5421C102.159 65.5421 101.679 65.0845 101.639 64.4157ZM103.359 64.3453C103.359 63.8877 103.119 63.6061 102.759 63.6413C102.399 63.6413 102.199 63.9229 102.199 64.3805C102.199 64.8381 102.479 65.1197 102.799 65.0845C103.199 65.0845 103.399 64.8381 103.359 64.3453ZM105.599 63.1485L106.279 63.1133L103.199 67.4429L102.519 67.4781L105.599 63.1485ZM104.879 66.2813C104.839 65.5773 105.279 65.1197 105.959 65.0845C106.639 65.0493 107.119 65.5069 107.159 66.2109C107.199 66.9149 106.759 67.3725 106.079 67.4077C105.359 67.4429 104.879 66.9853 104.879 66.2813ZM106.599 66.2461C106.599 65.7885 106.359 65.5069 105.999 65.5421C105.639 65.5421 105.439 65.8237 105.439 66.2813C105.439 66.7389 105.679 67.0205 106.039 66.9853C106.399 66.9853 106.599 66.7037 106.599 66.2461Z" fill="#E0E0E0"/>
<path d="M176.52 64.6266C176.48 63.9226 176.92 63.465 177.6 63.4298C178.28 63.3946 178.76 63.8522 178.8 64.5562C178.84 65.2602 178.4 65.7178 177.72 65.753C177.04 65.753 176.56 65.2954 176.52 64.6266ZM178.28 64.5562C178.28 64.0986 178.04 63.817 177.68 63.8522C177.32 63.8522 177.12 64.1338 177.12 64.5914C177.12 65.049 177.4 65.3306 177.72 65.2954C178.08 65.2954 178.28 65.0138 178.28 64.5562ZM180.52 63.3594L181.2 63.3242L178.12 67.6538L177.44 67.689L180.52 63.3594ZM179.76 66.4922C179.72 65.7882 180.16 65.3306 180.84 65.2954C181.52 65.2602 182 65.7178 182.04 66.4218C182.08 67.1258 181.64 67.5834 180.96 67.6186C180.28 67.6538 179.8 67.1962 179.76 66.4922ZM181.48 66.457C181.48 65.9994 181.24 65.7178 180.88 65.753C180.52 65.753 180.32 66.0346 180.32 66.4922C180.32 66.9498 180.56 67.2314 180.92 67.1962C181.28 67.1962 181.52 66.9146 181.48 66.457Z" fill="#E0E0E0"/>
<path d="M116.52 50.9703L119.64 52.4839L116.52 53.9975L114.8 56.7431L113.08 53.9975L109.92 52.4839L113.08 50.9703L114.8 48.1895L116.52 50.9703Z" fill="#EBEBEB"/>
<path d="M106.92 47.132L108 47.66L106.92 48.188L106.32 49.1032L105.76 48.188L104.68 47.66L105.76 47.132L106.32 46.2168L106.92 47.132Z" fill="#EBEBEB"/>
<path d="M96.4802 71.7375L97.5602 72.2303L96.4802 72.7583L95.8802 73.7087L95.3202 72.7583L94.2402 72.2303L95.3202 71.7375L95.8802 70.7871L96.4802 71.7375Z" fill="#EBEBEB"/>
<path d="M157.64 49.174L159.56 50.1244L157.64 51.0396L156.56 52.7292L155.52 51.0396L153.6 50.1244L155.52 49.174L156.56 47.4844L157.64 49.174Z" fill="#EBEBEB"/>
<path d="M171.719 74.0609L173.439 75.2577L171.359 75.8913L170.039 77.4401L169.279 75.6097L167.559 74.4481L169.599 73.7793L170.959 72.2305L171.719 74.0609Z" fill="#EBEBEB"/>
<path d="M142.238 59.1363L143.598 59.7699L142.238 60.4386L141.518 61.6355L140.758 60.4386L139.398 59.7699L140.758 59.1363L141.518 57.9395L142.238 59.1363Z" fill="#EBEBEB"/>
<path d="M168.399 150.233C169.359 150.585 170.039 151.36 170.399 152.24C170.759 153.084 170.799 154.035 170.679 154.95C170.439 156.71 169.319 158.47 168.119 159.878C166.439 158.576 166.039 156.323 165.959 155.196C165.719 153.366 166.639 149.952 168.399 150.233Z" fill="#00A661"/>
<path d="M170.041 162.765C169.761 161.779 170.241 160.688 171.121 160.019C172.001 159.351 173.201 159.069 174.361 159.139C174.881 159.175 175.481 159.315 175.761 159.703C176.041 160.055 176.001 160.583 175.801 160.97C175.561 161.357 175.161 161.639 174.761 161.885C173.241 162.659 171.681 163.187 170.041 162.765Z" fill="#00A661"/>
<path d="M167.881 168.15C167.881 168.15 167.881 168.009 167.921 167.798C167.961 167.551 168.041 167.199 168.121 166.812C168.321 166.002 168.561 164.841 169.281 163.714C170.001 162.588 171.001 161.743 171.801 161.356C172.201 161.145 172.561 161.004 172.841 160.969C172.961 160.934 173.081 160.934 173.121 160.898C173.201 160.898 173.241 160.898 173.241 160.898C173.241 160.934 172.641 161.004 171.841 161.462C171.041 161.884 170.081 162.694 169.361 163.82C168.641 164.911 168.401 166.073 168.201 166.882C168.081 167.305 168.001 167.622 167.961 167.833C167.921 168.009 167.881 168.15 167.881 168.15Z" fill="#263238"/>
<path d="M167.96 152.873C167.96 152.873 167.96 152.943 168 153.014C168 153.119 168 153.295 168.04 153.471C168.08 153.859 168.08 154.422 168.12 155.126C168.16 156.534 168.2 158.47 168.2 160.617C168.2 162.764 168.12 164.7 168.08 166.108C168.04 166.812 168 167.375 168 167.763C168 167.939 167.96 168.115 167.96 168.22C167.96 168.326 167.96 168.361 167.92 168.361C167.92 168.361 167.92 168.291 167.92 168.22C167.92 168.115 167.92 167.939 167.92 167.763C167.92 167.34 167.96 166.777 167.96 166.108C168 164.7 168.04 162.764 168.04 160.617C168.04 158.47 168.04 156.534 168 155.126C168 154.422 167.96 153.859 167.96 153.471C167.96 153.295 167.96 153.119 167.96 153.014C167.92 152.943 167.96 152.873 167.96 152.873Z" fill="#263238"/>
<path d="M167.12 163.821C166.72 161.709 165.12 159.773 162.92 158.858C162.36 158.612 161.64 158.471 161.16 158.823C160.68 159.175 160.8 159.844 161.04 160.372C162 162.484 164.52 163.997 167.08 163.962" fill="#00A661"/>
<path d="M163.199 160.512C163.199 160.512 163.319 160.547 163.559 160.653C163.679 160.688 163.799 160.758 163.959 160.829C164.119 160.899 164.279 161.005 164.479 161.11C164.679 161.216 164.879 161.357 165.079 161.497C165.279 161.638 165.479 161.814 165.719 161.99C166.119 162.377 166.559 162.8 166.919 163.328C167.279 163.856 167.519 164.384 167.719 164.877C167.799 165.123 167.879 165.369 167.919 165.616C167.959 165.827 167.999 166.073 168.039 166.249C168.079 166.461 168.079 166.637 168.079 166.777C168.079 166.918 168.079 167.059 168.079 167.165C168.079 167.376 168.039 167.517 168.039 167.517C167.999 167.517 168.079 167.024 167.959 166.249C167.919 166.073 167.919 165.827 167.839 165.616C167.799 165.405 167.719 165.158 167.639 164.912C167.439 164.419 167.199 163.891 166.879 163.398C166.519 162.905 166.119 162.448 165.719 162.061C165.519 161.885 165.319 161.709 165.119 161.568C164.919 161.427 164.719 161.286 164.559 161.181C163.679 160.758 163.159 160.547 163.199 160.512Z" fill="#263238"/>
<path d="M74.6401 45.0195C75.1201 45.0195 80.5601 46.1811 82.0801 48.5395C83.6001 50.8979 84.2801 59.5923 84.2801 59.5923C84.2801 59.5923 84.7201 65.6819 83.7601 68.6387C82.8001 71.5955 79.6801 85.9571 78.5601 88.8787C77.0801 92.6099 75.0001 98.8051 75.0001 98.8051L57.0801 87.6467L74.6401 45.0195Z" fill="#F06D06"/>
<path d="M80.321 31.5042C79.561 32.9826 79.801 34.7074 80.241 36.2562C80.681 37.805 81.361 39.389 81.321 41.0082C81.321 43.4018 80.601 46.6402 75.121 45.0914C71.801 44.141 74.841 52.8706 73.041 55.5106C72.681 56.0386 72.321 56.5666 71.761 56.9186C70.401 57.7634 68.561 57.2706 67.001 56.7426C66.521 56.5666 65.961 56.3554 65.841 55.8978C65.801 55.6514 65.881 55.4402 65.921 55.1938C68.641 47.2386 71.361 39.2482 74.121 31.293" fill="#263238"/>
<path d="M70.9994 50.1265C74.1594 49.4577 75.1194 48.0849 75.1594 45.6561C75.1994 42.5585 75.1994 42.5585 75.1994 42.5585C75.1994 42.5585 78.6794 42.3825 79.4794 37.8417C79.8794 35.5889 80.2394 31.8929 79.9994 28.8657C79.7994 26.1201 76.5594 21.2977 73.4794 21.6145L64.9994 25.2401C64.0394 25.3457 63.3594 26.0497 63.3594 26.8593L63.9994 44.5297" fill="#FFBEA9"/>
<path d="M78.0388 32.028C78.0388 32.3448 77.7587 32.5912 77.3987 32.6264C77.0387 32.6616 76.7188 32.4152 76.7188 32.0984C76.7188 31.7816 76.9987 31.5352 77.3587 31.5C77.7187 31.5 78.0388 31.7112 78.0388 32.028Z" fill="#263238"/>
<path d="M79.1194 30.9383C79.0794 31.0439 78.4793 30.7623 77.7593 30.9031C77.0793 31.0439 76.6393 31.4663 76.5593 31.3959C76.5193 31.3607 76.5594 31.1847 76.7194 31.0087C76.8794 30.7975 77.2393 30.5863 77.6793 30.5159C78.1193 30.4455 78.5193 30.5159 78.7593 30.6567C79.0393 30.7623 79.1194 30.9031 79.1194 30.9383Z" fill="#263238"/>
<path d="M71.1598 31.9596C71.1598 32.2764 70.8798 32.5228 70.5198 32.558C70.1598 32.5932 69.8398 32.3468 69.8398 32.03C69.8398 31.7132 70.1198 31.4668 70.4798 31.4316C70.8398 31.4316 71.1598 31.6428 71.1598 31.9596Z" fill="#263238"/>
<path d="M72.0386 31.6119C71.9186 31.6823 71.5186 31.1895 70.7586 30.9783C69.9986 30.7671 69.3586 30.9783 69.3186 30.8727C69.2786 30.8375 69.4386 30.6967 69.7186 30.5911C69.9986 30.4855 70.4386 30.4503 70.9186 30.5559C71.3986 30.6615 71.7186 30.9431 71.8786 31.1543C72.0386 31.4007 72.0786 31.5767 72.0386 31.6119Z" fill="#263238"/>
<path d="M74.6786 35.5795C74.6786 35.5443 75.1186 35.4739 75.8386 35.4035C76.0386 35.4035 76.1986 35.3683 76.2386 35.2275C76.2786 35.1219 76.1986 34.9459 76.1186 34.7347C75.9586 34.3475 75.7586 33.9251 75.5586 33.5027C74.7986 31.7779 74.2786 30.3347 74.3186 30.2995C74.3986 30.2643 75.0786 31.6723 75.8386 33.3971C76.0386 33.8195 76.1986 34.2419 76.3586 34.6291C76.4386 34.8051 76.5586 35.0163 76.4386 35.2627C76.3986 35.3683 76.2386 35.4739 76.1586 35.5091C76.0386 35.5443 75.9586 35.5443 75.8386 35.5443C75.1586 35.6147 74.6786 35.6147 74.6786 35.5795Z" fill="#263238"/>
<path d="M75.1993 42.5958C75.1993 42.5958 71.7193 42.807 68.2793 40.9766C68.2793 40.9766 69.9993 44.215 75.1993 43.7926V42.5958Z" fill="#E4977C"/>
<path d="M74.5587 37.1377C74.1987 36.6801 73.6787 36.3633 73.1987 36.3281C72.8787 36.3281 72.5587 36.4337 72.3987 36.7153C72.2387 36.9969 72.2787 37.4193 72.5187 37.7713C72.7987 38.1585 73.2387 38.2993 73.5987 38.2289C73.9587 38.1585 74.2387 37.9473 74.4787 37.7009C74.5587 37.6305 74.6387 37.5601 74.6787 37.4897C74.7187 37.3841 74.6787 37.2433 74.5587 37.1377Z" fill="#E4977C"/>
<path d="M72.5995 36.0391C72.7195 36.0391 72.7195 36.7079 73.3995 37.2007C74.0795 37.6935 74.8795 37.6231 74.8795 37.6935C74.8795 37.7287 74.6795 37.8343 74.3595 37.8343C73.9995 37.8343 73.5195 37.7639 73.1195 37.4471C72.7195 37.1655 72.5195 36.7431 72.5195 36.4615C72.4395 36.1799 72.5195 36.0391 72.5995 36.0391Z" fill="#263238"/>
<path d="M72.639 28.6863C72.559 28.8623 71.839 28.7215 70.999 28.7215C70.159 28.7215 69.439 28.8623 69.359 28.7215C69.319 28.6511 69.439 28.5103 69.759 28.3695C70.039 28.2287 70.479 28.1231 70.999 28.0879C71.519 28.0879 71.959 28.1935 72.239 28.3343C72.559 28.4751 72.679 28.6159 72.639 28.6863Z" fill="#263238"/>
<path d="M79.3182 29.5672C79.1582 29.708 78.5582 29.5672 77.7982 29.5672C77.0782 29.532 76.4382 29.6728 76.2782 29.4968C76.1982 29.4264 76.3182 29.2856 76.5982 29.1448C76.8782 29.004 77.3182 28.8984 77.8382 28.8984C78.3582 28.8984 78.7982 29.0392 79.0382 29.18C79.3182 29.356 79.3982 29.4968 79.3182 29.5672Z" fill="#263238"/>
<path d="M52.3192 46.357C53.4392 44.7378 57.0792 40.901 58.3992 38.261C59.3192 36.3602 59.9992 29.7426 61.9592 26.3282C63.9192 22.9138 66.2392 21.541 68.5192 20.9778C70.7992 20.4498 72.4792 21.1538 73.5192 21.9634C74.5592 22.773 74.8792 25.1314 74.8792 25.1314C74.8792 25.1314 69.3992 26.1874 67.5592 28.933C65.4392 32.101 64.9192 33.685 64.9192 33.685L64.2392 35.4098C64.2392 35.4098 64.8792 38.7538 65.1192 40.4082C65.3592 42.0626 64.9592 43.5762 63.4392 44.2802L60.3192 46.2162C60.3192 46.2162 61.9992 62.197 61.7992 62.3026C61.3192 62.6194 57.4392 61.9154 53.9192 61.2114C53.2392 61.0706 52.8792 55.4386 52.8792 55.4386L51.8392 60.7186L49.1992 60.1906C49.2392 60.1554 49.9992 49.6306 52.3192 46.357Z" fill="#263238"/>
<path d="M74.7591 25.1315C74.7591 25.1315 78.1591 24.8499 79.3191 27.9475C79.8391 29.3555 80.2391 33.4035 80.2391 33.4035C80.2391 33.4035 80.6791 30.1651 80.5191 28.3347C80.3591 26.5043 79.3191 24.1811 77.7191 22.8787C76.1591 21.6115 74.8391 21.0483 72.0391 21.1891C72.0391 21.1891 73.1591 21.6467 73.8791 22.5619C74.2391 23.0195 74.3191 23.3715 74.7591 25.1315Z" fill="#263238"/>
<path d="M64.9606 33.9033C64.9206 32.8825 63.6406 32.2137 62.6806 32.7417C62.1206 33.0233 61.7206 33.5865 61.7606 34.6425C61.8806 37.4937 65.1206 36.7897 65.1206 36.7193C65.1206 36.6489 65.0406 35.1001 64.9606 33.9033Z" fill="#FFBEA9"/>
<path d="M64.0812 35.6531C64.0812 35.6531 64.0412 35.6883 63.9212 35.7235C63.8412 35.7587 63.6812 35.7939 63.4812 35.7587C63.1212 35.6531 62.8412 35.1955 62.8012 34.6675C62.7612 34.4211 62.8412 34.1747 62.9212 33.9635C63.0012 33.7523 63.1612 33.6115 63.3212 33.5763C63.4812 33.5411 63.6012 33.6115 63.6412 33.7171C63.6812 33.7875 63.6812 33.8579 63.6812 33.8579C63.6812 33.8579 63.7612 33.8227 63.7212 33.6819C63.7212 33.6115 63.6812 33.5763 63.6012 33.5059C63.5212 33.4355 63.4012 33.4355 63.2812 33.4355C63.0412 33.4707 62.8012 33.6819 62.7212 33.8931C62.6012 34.1395 62.5212 34.4211 62.5612 34.7027C62.6012 35.2659 62.9612 35.7939 63.4412 35.8995C63.6812 35.9347 63.8412 35.8643 63.9612 35.7939C64.0812 35.7235 64.0812 35.6531 64.0812 35.6531Z" fill="#E4977C"/>
<path d="M63.2801 24.6758C61.2801 27.1398 59.9201 29.991 59.2801 32.983C58.8801 34.8486 58.7601 36.8902 57.4801 38.4038C56.8001 39.2134 55.8401 39.8118 55.3201 40.727C54.7601 41.7126 54.8401 42.9094 54.2001 43.8246C53.5201 44.8454 52.1201 45.3382 51.2001 46.2182C49.4801 47.8726 49.8801 50.4422 49.1601 52.5894C48.7201 53.9622 47.8001 55.1942 46.5601 56.1094C46.1201 56.4262 45.6001 56.8134 45.7601 57.3062C45.8401 57.5878 46.1601 57.7638 46.4801 57.9046C47.4801 58.3622 48.3601 60.0166 49.4401 60.2278C49.6801 55.0886 52.4801 48.9286 55.5601 44.5638C57.3201 42.0646 59.2401 39.5654 59.9201 36.7142C60.3601 34.8134 60.2801 32.8774 60.5201 30.9414C60.7601 29.0054 61.4401 27.0342 63.0801 25.767" fill="#263238"/>
<path d="M62.2809 37.4885C62.2409 37.5237 61.9609 37.4181 61.5609 37.0309C61.2009 36.6437 60.7209 35.9749 60.6409 35.0245C60.6009 34.5669 60.6409 34.0037 60.8409 33.4757C61.0409 32.9477 61.4009 32.4197 61.8409 31.9621C62.2809 31.5045 62.8009 31.0469 63.3209 30.6245C63.8409 30.2021 64.4409 29.7797 65.0409 29.3925C66.2809 28.5829 67.5609 27.9493 68.7609 27.4565C69.9609 26.9637 71.0809 26.6469 71.9209 26.2597C72.8009 25.9077 73.4009 25.5205 73.8009 25.2037C74.2009 24.8869 74.3609 24.6757 74.4409 24.7109C74.4809 24.7461 74.4409 25.0277 74.1209 25.4501C73.8009 25.8725 73.1609 26.4005 72.2809 26.8581C71.4009 27.3157 70.3209 27.7029 69.2009 28.2309C68.0809 28.7589 66.8809 29.3925 65.6809 30.1669C65.0809 30.5541 64.5209 30.9413 64.0009 31.3285C63.4809 31.7157 63.0009 32.1029 62.5609 32.5253C62.1609 32.9125 61.8409 33.3349 61.6409 33.7573C61.4409 34.1797 61.3609 34.6021 61.3609 34.9893C61.3609 35.7989 61.6409 36.3973 61.8809 36.8197C62.1609 37.2069 62.3609 37.4181 62.2809 37.4885Z" fill="#263238"/>
<path d="M63.6011 37.5938C63.6011 37.5938 63.5611 37.5938 63.4411 37.5234C63.3211 37.4882 63.2011 37.3826 63.0011 37.277C62.6411 37.0306 62.2011 36.6082 61.8411 35.9746C61.5211 35.341 61.2811 34.4962 61.5611 33.581C61.8411 32.6658 62.6011 31.821 63.5211 31.1522C64.4411 30.4834 65.4011 29.9554 66.2811 29.4626C67.1611 28.9698 67.9611 28.5826 68.6411 28.2306C69.3211 27.9138 69.8811 27.6674 70.2811 27.4914C70.4811 27.421 70.6411 27.3506 70.7211 27.3154C70.8011 27.2802 70.8811 27.245 70.8811 27.2802C70.8811 27.2802 70.6811 27.3858 70.2811 27.5618C69.8811 27.7378 69.3611 28.0194 68.6811 28.3362C68.0011 28.6882 67.2011 29.1106 66.3211 29.5682C65.4811 30.061 64.4811 30.589 63.6011 31.2578C62.6811 31.9266 61.9611 32.701 61.7211 33.581C61.4411 34.4258 61.6411 35.2706 61.9611 35.9042C62.2811 36.5378 62.6811 36.9602 63.0411 37.2066C63.4011 37.4882 63.6411 37.5938 63.6011 37.5938Z" fill="#455A64"/>
<path d="M70.041 20.7678C70.041 20.7326 70.441 20.6974 71.121 20.8382C71.761 20.979 72.641 21.2958 73.401 21.8942C74.161 22.4926 74.561 23.267 74.721 23.8302C74.801 24.1118 74.801 24.3582 74.801 24.499C74.801 24.675 74.801 24.7454 74.761 24.7454C74.721 24.7454 74.721 24.3934 74.561 23.8302C74.401 23.3022 74.001 22.563 73.241 21.9998C72.481 21.4366 71.681 21.0846 71.041 20.9438C70.481 20.7678 70.041 20.803 70.041 20.7678Z" fill="#455A64"/>
<path d="M61.8405 36.3263C61.8405 36.3263 61.6805 36.4671 61.4805 36.7135C61.2405 36.9951 60.9605 37.4175 60.8805 37.9807C60.8005 38.5439 60.9205 39.2831 61.4005 39.9167C61.8805 40.5503 62.8005 41.0783 63.8405 40.9375C64.3205 40.9023 64.8005 40.6911 65.1205 40.4095C65.4405 40.1279 65.6405 39.7407 65.7205 39.3535C65.9205 38.5791 65.8005 37.8751 65.5205 37.3471C65.2405 36.8191 64.7605 36.5375 64.4005 36.3967C64.0405 36.2911 63.8405 36.2911 63.8405 36.2559C63.8405 36.2559 63.8805 36.2559 64.0005 36.2559C64.1205 36.2559 64.2405 36.2911 64.4405 36.3263C64.8005 36.4319 65.3205 36.7135 65.6405 37.2767C65.9605 37.8399 66.0805 38.5791 65.8805 39.3887C65.8005 39.7759 65.6005 40.1983 65.2405 40.5151C64.8805 40.8319 64.3605 41.0431 63.8405 41.1135C63.2805 41.1839 62.7605 41.0431 62.3205 40.8319C61.8805 40.6207 61.5205 40.3039 61.2405 39.9871C60.7205 39.3183 60.6005 38.5087 60.7205 37.9103C60.8405 37.3119 61.1605 36.8543 61.4005 36.6079C61.5205 36.4671 61.6405 36.3967 61.7205 36.3263C61.8005 36.3615 61.8405 36.3263 61.8405 36.3263Z" fill="#E0E0E0"/>
<path d="M49.1204 160.407L51.4004 151.748L43.4004 150.551V156.922L45.6404 159.808L49.1204 160.407Z" fill="#FFBEA9"/>
<path d="M49.8809 159.989L49.6009 160.376C49.6009 160.376 55.0009 166.994 54.2009 168.226L39.8809 160.13L43.1609 156.047C44.6409 158.124 46.7609 159.496 49.8809 159.989Z" fill="#F06D06"/>
<g opacity="0.6">
<path d="M43.5998 158.226C43.2798 158.121 42.8798 158.297 42.7598 158.578C42.6398 158.86 42.8398 159.212 43.1598 159.317C43.4798 159.423 43.9598 159.212 44.0398 158.93C44.1198 158.649 43.8798 158.226 43.5198 158.226" fill="white"/>
</g>
<g opacity="0.6">
<path d="M39.8809 160.128L40.6809 159.143L54.1209 167.274C54.1209 167.274 54.5609 167.872 54.2009 168.224L39.8809 160.128Z" fill="white"/>
</g>
<path d="M49.6008 160.444C49.5608 160.514 49.2008 160.338 48.6808 160.338C48.2008 160.338 47.8008 160.479 47.7608 160.444C47.7208 160.409 48.0808 160.092 48.6808 160.092C49.3208 160.092 49.6808 160.409 49.6008 160.444Z" fill="#263238"/>
<path d="M50.7205 161.856C50.6805 161.926 50.3205 161.856 49.8805 161.996C49.4405 162.102 49.2005 162.348 49.1205 162.313C49.0405 162.278 49.2805 161.891 49.8005 161.75C50.3205 161.574 50.7605 161.785 50.7205 161.856Z" fill="#263238"/>
<path d="M50.4001 163.893C50.3201 163.858 50.4401 163.506 50.8801 163.26C51.3201 163.013 51.7201 163.084 51.7201 163.154C51.7201 163.225 51.3601 163.295 51.0401 163.471C50.6801 163.682 50.4801 163.929 50.4001 163.893Z" fill="#263238"/>
<path d="M29.4398 105.494L36.6398 106.339L33.8798 113.309L26.1598 110.985L25.7598 108.416L29.4398 105.494Z" fill="#FFBEA9"/>
<path d="M26.922 111.438L26.482 111.262C26.482 111.262 20.402 116.612 19.002 116.155L25.282 103.377L30.002 105.383C28.122 106.932 27.002 108.868 26.922 111.438Z" fill="#F06D06"/>
<g opacity="0.6">
<path d="M27.8801 106.126C27.9201 105.845 27.6801 105.563 27.4001 105.493C27.0801 105.458 26.7601 105.634 26.6801 105.915C26.6401 106.197 26.8801 106.549 27.2001 106.584C27.5201 106.619 27.8801 106.338 27.8801 106.056" fill="white"/>
</g>
<g opacity="0.6">
<path d="M25.32 103.41L26.48 103.903L20 115.941C20 115.941 19.44 116.399 19 116.153L25.32 103.41Z" fill="white"/>
</g>
<path d="M26.4395 111.331C26.3595 111.296 26.4795 110.979 26.3995 110.592C26.3195 110.205 26.1195 109.923 26.1595 109.888C26.1995 109.853 26.5595 110.099 26.6795 110.557C26.7595 111.014 26.4795 111.366 26.4395 111.331Z" fill="#263238"/>
<path d="M25.1604 112.422C25.0804 112.422 25.0804 112.105 24.9204 111.753C24.7204 111.436 24.4404 111.26 24.4804 111.19C24.4804 111.12 24.9204 111.225 25.1604 111.648C25.3604 112.07 25.2004 112.422 25.1604 112.422Z" fill="#263238"/>
<path d="M22.9604 112.504C22.9604 112.434 23.3604 112.504 23.6804 112.786C24.0004 113.102 24.0004 113.454 23.9204 113.454C23.8404 113.454 23.7204 113.208 23.4804 112.962C23.2404 112.68 22.9204 112.539 22.9604 112.504Z" fill="#263238"/>
<path d="M68.92 98.8061C68.28 99.0877 60.28 126.297 57.72 127.424L52.6 149.529C52.6 149.529 53.08 149.987 52.96 150.972C52.84 151.958 52.36 152.099 52.36 152.099C52.36 152.099 44.96 152.908 42 151.008C42 151.008 42.36 149.072 42.52 148.896C42.68 148.755 43.4 131.19 45.2 127.107C47 123.024 49.4 110.07 49.16 107.465C48.92 104.86 48.12 98.7709 48.28 96.8349C48.44 94.8989 49.2 92.9629 49.2 92.9629L68.92 98.8061Z" fill="#263238"/>
<path d="M72.0799 99.9314C72.0799 99.9314 69.3599 116.335 66.9999 119.01C64.6399 121.685 61.4399 121.755 60.6799 121.861C59.9199 121.967 32.2799 112.991 32.2799 112.991C32.2799 112.991 31.8399 106.373 32.7199 105.387C32.7199 105.387 35.1999 105.493 35.7599 106.162L50.1199 107.957L55.3999 93.8418L72.0799 99.9314Z" fill="#263238"/>
<path d="M67.3612 99.8984C67.3612 99.8984 67.3613 100.004 67.3213 100.18C67.2813 100.391 67.2013 100.638 67.1213 100.99C66.9213 101.694 66.6413 102.714 66.3213 103.946C65.6013 106.446 64.6412 109.86 63.5612 113.626C62.4812 117.428 61.3612 120.807 60.2812 123.201C59.7612 124.398 59.2412 125.348 58.8812 125.982C58.7212 126.298 58.5613 126.545 58.4413 126.721C58.3213 126.897 58.2812 126.967 58.2812 126.967C58.2812 126.967 58.3213 126.862 58.4013 126.686C58.4813 126.51 58.6413 126.263 58.8013 125.946C59.1613 125.313 59.6013 124.362 60.1213 123.166C61.1613 120.772 62.2813 117.393 63.3213 113.591C64.4013 109.825 65.4013 106.41 66.1213 103.911C66.4813 102.679 66.8013 101.694 67.0013 100.99C67.1213 100.673 67.2013 100.391 67.2413 100.18C67.3213 99.9688 67.3612 99.8984 67.3612 99.8984Z" fill="#455A64"/>
<path d="M48.361 96.4121C48.361 96.4121 48.361 96.4825 48.321 96.6585C48.321 96.8345 48.281 97.0457 48.281 97.3625C48.281 97.9961 48.361 98.8761 48.481 99.9673C48.601 101.059 48.761 102.396 48.881 103.839C49.001 105.283 49.281 106.902 49.281 108.591C49.321 112.006 48.441 114.998 47.921 117.145C47.641 118.201 47.441 119.081 47.281 119.715C47.201 119.996 47.161 120.243 47.121 120.419C47.081 120.595 47.041 120.665 47.041 120.665C47.041 120.665 47.041 120.595 47.081 120.419C47.121 120.243 47.161 119.996 47.201 119.715C47.321 119.116 47.521 118.236 47.761 117.145C48.241 114.963 49.121 111.971 49.041 108.591C49.041 106.902 48.761 105.318 48.641 103.839C48.521 102.396 48.361 101.059 48.281 99.9673C48.201 98.8761 48.161 97.9609 48.161 97.3273C48.161 97.0105 48.201 96.7641 48.241 96.6233C48.321 96.4825 48.361 96.4121 48.361 96.4121Z" fill="#455A64"/>
<path d="M35.5199 106.058C35.5599 106.058 35.3999 106.48 35.1599 107.149C34.9599 107.818 34.6799 108.733 34.5199 109.789C34.3599 110.845 34.2799 111.795 34.2799 112.499C34.2799 113.203 34.2799 113.626 34.2799 113.626C34.2799 113.626 34.2399 113.52 34.1999 113.309C34.1599 113.098 34.1599 112.816 34.1199 112.499C34.0799 111.795 34.1199 110.845 34.2799 109.754C34.4399 108.698 34.7199 107.747 34.9999 107.078C35.1199 106.762 35.2399 106.48 35.3199 106.304C35.4799 106.128 35.5199 106.022 35.5199 106.058Z" fill="#455A64"/>
<path d="M28.0799 112.111C28.0799 112.147 28.0399 112.217 27.9999 112.217C27.9599 112.217 27.9199 112.182 27.9199 112.111C27.9199 112.076 27.9599 112.006 27.9999 112.006C28.0399 112.006 28.0799 112.041 28.0799 112.111Z" fill="#455A64"/>
<path d="M42.7598 148.579C42.7598 148.544 43.3198 148.65 44.1998 148.755C45.0798 148.896 46.3198 149.037 47.7198 149.142C49.0798 149.248 50.3598 149.318 51.2398 149.354C52.1598 149.389 52.7198 149.389 52.7198 149.424C52.7198 149.424 52.5598 149.459 52.3198 149.459C52.0798 149.459 51.6798 149.459 51.2398 149.459C50.3198 149.459 49.0798 149.424 47.6798 149.283C46.2798 149.142 45.0398 148.966 44.1598 148.826C43.7198 148.755 43.3598 148.685 43.1198 148.614C42.8798 148.65 42.7598 148.579 42.7598 148.579Z" fill="#455A64"/>
<path d="M71.4414 101.268C71.5214 101.233 76.6814 101.268 76.6814 101.268C76.6814 101.268 80.5614 84.6887 81.0014 79.6199C81.4414 74.5511 71.6014 81.9783 71.6014 81.9783L71.4414 101.268Z" fill="#F06D06"/>
<path d="M79.2412 95.7777C79.4012 96.5521 79.6812 97.2209 79.5612 97.9953C79.5212 98.2065 79.4812 98.4529 79.3612 98.6289C79.2012 98.8753 78.9612 99.0513 78.7212 99.2273C78.1212 99.6497 77.5612 100.037 76.9612 100.459C76.7612 100.6 76.5212 100.741 76.3212 100.6C76.2012 100.495 76.2012 100.319 76.2012 100.178C76.2812 99.7553 76.4412 99.3329 76.6812 98.9457L77.3212 96.6577L76.6812 95.4609L79.2412 95.7777Z" fill="#FFBEA9"/>
<path d="M64.4809 43.541C64.4809 43.541 69.4809 43.541 72.4409 49.3138C72.4409 49.3138 81.3209 62.9362 81.5209 68.7794C81.5209 68.7794 81.4009 77.4034 79.7609 82.5074C78.1209 87.6114 73.3609 101.093 73.3609 101.093C73.3609 101.093 58.4809 99.9666 55.4809 98.0658C52.4809 96.165 45.8809 96.4466 45.8809 96.4466C45.8809 96.4466 49.9209 85.6402 54.8809 79.093C59.8409 72.5458 57.8809 60.8946 57.8809 60.8946C57.8809 60.8946 56.4809 43.5762 64.4809 43.541Z" fill="#F06D06"/>
<path d="M71.6016 100.917C71.6016 100.917 71.6816 100.917 71.8416 100.917C72.0016 100.917 72.2416 100.917 72.5216 100.917C73.1216 100.917 74.0416 100.881 75.1616 100.776L75.1216 100.811C76.1616 97.6078 77.8416 92.1518 79.2816 85.851C80.4416 80.8526 81.1616 76.2414 81.3616 72.8974C81.4816 71.2078 81.4816 69.8702 81.4416 68.9198C81.4016 68.4622 81.4016 68.1102 81.4016 67.8286C81.4016 67.723 81.4016 67.6174 81.4016 67.547C81.4016 67.6174 81.4016 67.723 81.4416 67.8286C81.4816 68.075 81.4816 68.4622 81.5216 68.9198C81.5616 69.8702 81.6016 71.2078 81.5216 72.8974C81.3616 76.2414 80.6816 80.8526 79.4816 85.8862C78.0416 92.187 76.2816 97.643 75.2016 100.811V100.846H75.1616C74.0416 100.917 73.1216 100.952 72.5216 100.917C72.2016 100.917 71.9616 100.881 71.8416 100.881C71.6816 100.917 71.6016 100.917 71.6016 100.917Z" fill="#263238"/>
<path d="M75.1611 46.0052C75.2011 45.5124 80.6811 53.0804 82.1211 61.0708C82.6411 63.9572 81.4011 67.5124 81.4011 67.5124L71.1211 47.202C71.1211 47.202 74.8811 50.4404 75.1611 46.0052Z" fill="#E0E0E0"/>
<path d="M67.6408 44.3848C67.6408 44.3848 68.1208 44.6664 68.8408 45.3352C69.2008 45.652 69.5608 46.1448 69.8808 46.708C70.2008 47.3064 70.4808 47.9752 70.8008 48.7496C70.8008 49.3832 70.9608 50.0872 71.2408 50.7912C71.5208 51.4952 71.9208 52.1992 72.3608 52.9384C73.2808 54.3816 74.2808 56.0008 75.2008 57.6904C77.3208 61.4216 78.9208 64.9416 80.0008 67.5112C80.5208 68.7784 80.9208 69.8344 81.2008 70.5736C81.3208 70.9256 81.4408 71.2072 81.4808 71.4184C81.5608 71.5944 81.5608 71.7 81.5608 71.7C81.5608 71.7 81.5208 71.5944 81.4408 71.4184C81.3608 71.2072 81.2408 70.9256 81.1208 70.5736C80.8408 69.8696 80.4008 68.8136 79.8408 67.5464C78.7608 64.9768 77.1208 61.492 75.0008 57.7608C74.0408 56.0712 73.0808 54.4872 72.1608 53.0088C71.7208 52.2696 71.3208 51.5304 71.0408 50.8264C70.7608 50.1224 70.6008 49.3832 70.6008 48.7496V48.7848C70.2808 48.0104 70.0408 47.3416 69.7208 46.7432C69.4408 46.1448 69.0808 45.6872 68.7208 45.3704C68.4008 45.0184 68.0808 44.8072 67.8808 44.6312C67.8008 44.5608 67.7208 44.4904 67.6408 44.4552C67.6408 44.3848 67.6008 44.3848 67.6408 44.3848Z" fill="#263238"/>
<path d="M74.5604 74.6232C74.5604 74.6232 74.6404 74.6232 74.7604 74.6584C74.8804 74.7288 75.0804 74.8344 75.2004 75.0456C75.3204 75.2568 75.3604 75.5736 75.2004 75.8552C75.0404 76.172 74.6004 76.348 74.2004 76.2776C73.8004 76.2424 73.4004 75.996 73.3204 75.6792C73.2404 75.3624 73.3604 75.0808 73.5204 74.8696C73.6804 74.6936 73.8804 74.588 74.0404 74.5528C74.2004 74.5176 74.2804 74.5528 74.2804 74.5528C74.2804 74.588 73.9204 74.588 73.6804 74.94C73.5604 75.116 73.4804 75.3624 73.5604 75.6088C73.6404 75.8552 73.9204 76.0312 74.2804 76.0664C74.6404 76.1016 74.9604 75.9608 75.0804 75.7144C75.2404 75.5032 75.2004 75.2216 75.1204 75.0456C74.8804 74.7288 74.5204 74.6584 74.5604 74.6232Z" fill="#263238"/>
<path d="M61.6413 75.9599C61.6413 75.9599 61.4013 75.8895 60.9213 75.7487C60.6813 75.6783 60.4012 75.6079 60.0812 75.5375C59.7612 75.5023 59.3612 75.4671 58.9612 75.5727C58.5612 75.6783 58.1613 75.9247 57.9213 76.3119C57.6413 76.6991 57.4812 77.1567 57.2812 77.6143C56.8412 78.5647 56.4012 79.5855 55.8812 80.6767C55.7612 80.9583 55.6012 81.2751 55.4812 81.5215L55.4013 81.3807C57.8413 81.3103 59.9613 81.9439 61.3213 82.5775C62.0013 82.8943 62.5212 83.2111 62.8812 83.4223C63.0412 83.5279 63.1612 83.6335 63.2812 83.7039C63.3612 83.7743 63.4013 83.8095 63.4013 83.8095C63.4013 83.8095 63.2013 83.7039 62.8413 83.4927C62.4813 83.2815 61.9612 82.9999 61.2812 82.6831C59.9212 82.0847 57.8413 81.4863 55.4413 81.5567H55.2812L55.3213 81.4159C55.4413 81.1343 55.5613 80.8527 55.7213 80.5711C56.2013 79.4799 56.6813 78.4591 57.1213 77.5087C57.3613 77.0511 57.5213 76.5935 57.8013 76.2063C57.9613 75.9951 58.1213 75.8191 58.3213 75.7135C58.5213 75.5727 58.7612 75.5023 58.9612 75.4319C59.4012 75.3263 59.8012 75.3615 60.1612 75.4319C60.5212 75.5023 60.8013 75.5727 61.0013 75.6783C61.2413 75.7487 61.4013 75.8191 61.5213 75.8895C61.6013 75.9247 61.6813 75.9599 61.6413 75.9599Z" fill="#263238"/>
<path d="M81.5201 71.9843C81.5201 71.9843 81.5201 71.9491 81.5201 71.8435C81.5201 71.7379 81.5601 71.6323 81.5601 71.4563C81.6001 71.1043 81.7201 70.6467 81.8001 70.0483C82.0401 68.8163 82.3201 67.0915 82.7201 65.0147C82.7601 63.9587 82.8401 62.8323 82.8401 61.6003C82.8401 61.0019 82.8001 60.3683 82.7601 59.7347C82.7601 59.4179 82.6801 59.1011 82.6401 58.7843C82.6001 58.4675 82.5201 58.1507 82.4801 57.7987C82.0801 55.8627 81.4001 54.0675 80.6001 52.5187C79.8401 50.9699 78.9601 49.6323 78.1201 48.5411C77.2801 47.4851 76.5201 46.6755 75.9601 46.1475C75.6801 45.8659 75.4401 45.6899 75.3201 45.5491C75.1601 45.4083 75.0801 45.3379 75.0801 45.3379C75.0801 45.3379 75.1601 45.4083 75.3201 45.5139C75.4801 45.6547 75.7201 45.8307 76.0001 46.0771C76.5601 46.6051 77.3601 47.3795 78.2001 48.4707C79.0401 49.5267 79.9201 50.8643 80.7201 52.4483C81.5201 54.0323 82.2401 55.8275 82.6001 57.7635C82.6801 58.0803 82.7201 58.4323 82.7601 58.7491C82.8001 59.0659 82.8401 59.3827 82.8801 59.7347C82.9201 60.3683 82.9601 61.0019 82.9601 61.6003C82.9201 62.8323 82.8801 63.9587 82.8001 65.0147C82.4001 67.0915 82.0401 68.8163 81.8001 70.0483C81.6801 70.6467 81.5601 71.1043 81.5201 71.4563C81.4801 71.5971 81.4401 71.7379 81.4401 71.8083C81.5201 71.9491 81.5201 71.9843 81.5201 71.9843Z" fill="#263238"/>
<path d="M74.0404 92.9617C74.2404 92.8913 78.0804 94.2289 78.8404 95.1089C79.4804 95.8129 79.3204 96.4112 79.3204 96.4112C79.3204 96.4112 74.4404 94.5809 73.4404 94.6865C72.4404 94.8273 71.7604 96.0945 71.1204 95.2497C70.5204 94.4401 70.4004 94.3345 70.4004 94.3345L74.0404 92.9617Z" fill="#FFBEA9"/>
<path d="M64.4409 44.3848C65.8409 44.3848 69.4409 46.7784 69.6409 52.9736C69.8409 58.9928 69.4009 69.8696 69.4009 69.8696L75.0809 92.3976C75.2409 92.6088 69.5609 95.284 67.0409 94.6856C67.0409 94.6856 60.4809 74.34 59.9209 71.8408C59.3609 69.3416 58.1609 57.6552 58.6009 55.0152C59.0809 52.3752 58.3609 44.3848 64.4409 44.3848Z" fill="#F06D06"/>
<path d="M67.7216 92.2569C67.4016 92.0457 66.8816 92.2569 66.8416 92.5737C66.7616 92.9257 67.2016 93.2425 67.5616 93.1369C67.9216 93.0313 68.0816 92.5737 67.8416 92.3273" fill="#E0E0E0"/>
<path d="M67.8011 92.3273C67.8011 92.3273 67.8411 92.3273 67.9211 92.3977C67.9611 92.4681 68.0011 92.5737 68.0011 92.7497C67.9611 92.8905 67.8811 93.0665 67.6811 93.2073C67.4811 93.3129 67.1611 93.2777 66.9611 93.1017C66.7611 92.9609 66.6811 92.6793 66.7611 92.4681C66.8411 92.2569 67.0411 92.1513 67.2411 92.1161C67.4011 92.0809 67.5611 92.1161 67.6411 92.1513C67.7211 92.1865 67.7611 92.2217 67.7611 92.2217C67.7611 92.2569 67.5611 92.1513 67.3211 92.2217C67.2011 92.2569 67.0411 92.3625 67.0011 92.5033C66.9611 92.6441 67.0011 92.8201 67.1611 92.9257C67.3211 93.0313 67.5211 93.0665 67.6811 92.9961C67.8411 92.9257 67.9211 92.7849 67.9611 92.6793C67.9211 92.4681 67.8011 92.3273 67.8011 92.3273Z" fill="#263238"/>
<path d="M67.1613 90.9195C66.8413 90.8139 66.4413 91.0603 66.4813 91.3419C66.5213 91.6235 66.9613 91.8347 67.2413 91.6235C67.5213 91.4827 67.4813 91.0251 67.1613 90.9195Z" fill="#E0E0E0"/>
<path d="M67.1616 90.9197C67.1616 90.9197 67.2016 90.9197 67.2816 90.9549C67.3616 90.9901 67.4416 91.0957 67.4816 91.2013C67.5216 91.3421 67.5216 91.5181 67.3616 91.6589C67.2016 91.8349 66.9216 91.8701 66.7216 91.7645C66.4816 91.6941 66.3216 91.4829 66.3616 91.2717C66.4016 91.0605 66.5616 90.9549 66.6816 90.8845C66.8016 90.8141 66.9616 90.8141 67.0416 90.8493C67.1216 90.8845 67.1616 90.9197 67.1616 90.9197C67.1616 90.9549 66.9616 90.8845 66.7616 91.0253C66.6816 91.0957 66.5616 91.2013 66.5616 91.3069C66.5616 91.4125 66.6416 91.5533 66.8016 91.6237C66.9616 91.6941 67.1216 91.6589 67.2416 91.5885C67.3216 91.4829 67.3616 91.3773 67.3616 91.2717C67.3216 91.0253 67.1216 90.9549 67.1616 90.9197Z" fill="#263238"/>
<path d="M66.7609 89.5464C66.4409 89.4408 66.0409 89.6872 66.0809 89.9688C66.1209 90.2504 66.5609 90.4616 66.8409 90.2504C67.1209 90.1096 67.0809 89.6872 66.7609 89.5464Z" fill="#E0E0E0"/>
<path d="M66.7612 89.5466C66.7612 89.5466 66.8012 89.5466 66.8812 89.5818C66.9612 89.617 67.0412 89.7226 67.0812 89.8282C67.1212 89.969 67.1212 90.145 66.9612 90.2858C66.8012 90.4618 66.5212 90.497 66.3212 90.3914C66.0812 90.321 65.9212 90.1098 65.9612 89.8986C66.0012 89.6874 66.1612 89.5818 66.2812 89.5114C66.4012 89.441 66.5612 89.441 66.6412 89.4762C66.7212 89.5114 66.7612 89.5466 66.7612 89.5466C66.7612 89.5818 66.5612 89.5114 66.3612 89.6522C66.2812 89.7226 66.1612 89.8282 66.1612 89.9338C66.1612 90.0394 66.2412 90.1802 66.4012 90.2506C66.5612 90.321 66.7212 90.2858 66.8412 90.2154C66.9212 90.1098 66.9612 90.0042 66.9612 89.8986C66.9212 89.6522 66.7612 89.5818 66.7612 89.5466Z" fill="#263238"/>
<path d="M58.6816 54.4166C58.6816 54.4166 58.6816 54.487 58.6816 54.6278C58.6816 54.7686 58.6816 54.9798 58.6816 55.2262C58.6816 55.7542 58.7216 56.5638 58.7616 57.5846C58.8816 59.6262 59.0816 62.6182 59.4416 66.3142C59.5216 67.2294 59.6016 68.215 59.7216 69.2006C59.7616 69.6934 59.8016 70.2214 59.8816 70.7494C59.8816 70.8902 59.9216 70.9958 59.9216 71.1366V71.3478L59.9616 71.5238C60.0016 71.7702 60.0816 72.0518 60.1616 72.2982C60.7616 74.4102 61.4816 76.663 62.2416 79.0566C63.7216 83.8086 65.4016 89.0534 67.1216 94.5798L67.0416 94.5094C68.0016 94.5798 69.0416 94.5094 70.0416 94.263C71.8416 93.8406 73.5216 93.1014 75.0016 92.2214L74.9616 92.327C72.8416 83.9142 70.9216 76.2406 69.3616 70.1158C69.6016 65.1526 69.8016 61.1046 69.9216 58.2886C70.0016 56.8806 70.0416 55.7894 70.0816 55.0502C70.1216 54.6982 70.1216 54.4166 70.1216 54.2054C70.1216 54.0294 70.1616 53.9238 70.1616 53.9238C70.1616 53.9238 70.1616 54.0294 70.1616 54.2054C70.1616 54.4166 70.1616 54.6982 70.1216 55.0502C70.0816 55.7894 70.0416 56.8806 70.0016 58.2886C69.8816 61.1046 69.7216 65.1526 69.5216 70.1158V70.0806C71.0816 76.2054 73.0416 83.8438 75.1616 92.2918V92.3622L75.1216 92.3974C73.6016 93.3126 71.9216 94.0518 70.0816 94.4742C69.0416 94.7206 68.0016 94.791 67.0016 94.7206H66.9216V94.6502C65.2016 89.1238 63.5216 83.879 62.0416 79.127C61.3216 76.7334 60.6016 74.4806 60.0016 72.3686C59.9216 72.087 59.8416 71.8406 59.8016 71.559L59.7616 71.3478V71.1366C59.7616 70.9958 59.7216 70.855 59.7216 70.7494C59.6816 70.2214 59.6416 69.6934 59.5616 69.2006C59.4816 68.1798 59.4016 67.2294 59.3216 66.3142C59.0016 62.6182 58.8016 59.6262 58.7216 57.5846C58.6816 56.5638 58.6816 55.7542 58.6816 55.2262C58.6816 54.9446 58.7216 54.7334 58.7216 54.6278C58.6816 54.487 58.6816 54.4166 58.6816 54.4166Z" fill="#263238"/>
<path d="M171.201 83.0018L151.241 70.189C149.641 69.1682 147.641 68.781 145.721 69.133L92.801 78.813C89.001 79.517 86.601 82.7906 87.441 86.0994L95.601 119.011C96.401 122.32 100.121 124.397 103.881 123.693L156.521 113.52C158.481 113.133 160.161 112.042 161.121 110.458L173.241 90.8514C174.881 88.1762 174.001 84.797 171.201 83.0018ZM162.561 91.4146C162.161 93.4914 159.921 94.8642 157.561 94.5122C155.201 94.1602 153.641 92.189 154.041 90.1122C154.441 88.0354 156.681 86.6626 159.041 87.0146C161.401 87.4018 163.001 89.3378 162.561 91.4146Z" fill="#F06D06"/>
<g opacity="0.4">
<path d="M171.201 83.0018L151.241 70.189C149.641 69.1682 147.641 68.781 145.721 69.133L92.801 78.813C89.001 79.517 86.601 82.7906 87.441 86.0994L95.601 119.011C96.401 122.32 100.121 124.397 103.881 123.693L156.521 113.52C158.481 113.133 160.161 112.042 161.121 110.458L173.241 90.8514C174.881 88.1762 174.001 84.797 171.201 83.0018ZM162.601 91.3794C162.201 93.4562 159.921 94.8642 157.561 94.5122C155.201 94.1602 153.681 92.1538 154.081 90.077C154.481 88.0002 156.801 86.6978 159.161 87.0498C161.521 87.4018 163.041 89.3026 162.601 91.3794Z" fill="black"/>
</g>
<path d="M169.44 81.912L149.48 69.0992C147.88 68.0784 145.88 67.6912 143.96 68.0432L91.0002 77.7232C87.2002 78.4272 84.8002 81.7008 85.6402 85.0096L93.8002 117.922C94.6002 121.23 98.3202 123.307 102.08 122.603L154.72 112.43C156.68 112.043 158.36 110.952 159.32 109.368L171.44 89.7616C173.12 87.0864 172.24 83.7424 169.44 81.912ZM160.76 90.36C160.36 92.4016 158.16 93.7744 155.84 93.4224C153.52 93.0704 151.96 91.1344 152.36 89.0928C152.76 87.0512 154.96 85.6784 157.28 86.0304C159.64 86.3824 161.16 88.3536 160.76 90.36Z" fill="#F06D06"/>
<path d="M136.961 63.9247C136.921 63.9247 135.241 59.9119 133.201 54.9487C131.161 49.9855 129.521 45.9375 129.561 45.9375C129.601 45.9375 131.281 49.9503 133.321 54.9135C135.361 59.8767 136.961 63.9247 136.961 63.9247Z" fill="#263238"/>
<path d="M151.241 37.4904C151.241 37.4904 151.241 37.5256 151.241 37.5608C151.241 37.596 151.241 37.6664 151.201 37.772C151.161 37.948 151.121 38.1944 151.081 38.5464C150.961 39.2152 150.801 40.1656 150.561 41.3624C150.121 43.7208 149.561 46.9944 148.961 50.62C148.401 54.2456 147.921 57.5544 147.601 59.9128C147.441 61.1096 147.321 62.06 147.201 62.7288C147.161 63.0456 147.121 63.3272 147.081 63.5032C147.081 63.5736 147.041 63.644 147.041 63.7144C147.041 63.6792 147.041 63.6088 147.041 63.5032C147.041 63.3272 147.081 63.0456 147.121 62.7288C147.201 62.06 147.321 61.1096 147.481 59.9128C147.801 57.5192 148.241 54.2456 148.801 50.62C149.361 46.9944 149.961 43.7208 150.401 41.3624C150.641 40.1656 150.801 39.2152 150.961 38.5464C151.041 38.2296 151.081 37.9832 151.121 37.772C151.121 37.7016 151.161 37.6312 151.161 37.5608C151.241 37.4904 151.241 37.4552 151.241 37.4904Z" fill="#263238"/>
<path d="M169.48 51.0762C169.52 51.1114 166.64 54.1386 163.08 57.8346C159.52 61.5658 156.6 64.5578 156.6 64.5226C156.56 64.4874 159.44 61.4602 163 57.7642C166.52 54.0682 169.44 51.0762 169.48 51.0762Z" fill="#263238"/>
<path d="M128.76 66.2831C128.72 66.3183 127.04 65.0511 124.96 63.5023C122.88 61.9535 121.24 60.6511 121.24 60.6511C121.28 60.6159 122.96 61.8831 125.04 63.4319C127.12 64.9807 128.8 66.2479 128.76 66.2831Z" fill="#263238"/>
<path d="M172.439 70.2263C172.439 70.2615 170.199 70.1559 167.439 69.9799C164.679 69.8039 162.439 69.6279 162.439 69.5927C162.439 69.5575 164.679 69.6631 167.439 69.8391C170.239 70.0151 172.439 70.1911 172.439 70.2263Z" fill="#263238"/>
<g opacity="0.3">
<path d="M90.0006 85.7126C89.7606 84.727 90.2406 83.9174 91.2006 83.7414C92.2006 83.5654 93.0006 84.0582 93.2806 85.079C93.5206 86.0646 93.0406 86.8742 92.0406 87.0502C91.0406 87.2614 90.2406 86.6982 90.0006 85.7126ZM92.4806 85.2198C92.3206 84.551 91.8806 84.2342 91.3606 84.3398C90.8406 84.4454 90.6006 84.903 90.8006 85.5718C90.9606 86.2406 91.4006 86.5574 91.9206 86.4518C92.4006 86.3462 92.6406 85.8886 92.4806 85.2198ZM95.3206 83.0022L96.2806 82.8262L93.1206 89.7958L92.1606 89.9718L95.3206 83.0022ZM95.2006 87.6838C94.9606 86.6982 95.4406 85.8886 96.4006 85.7126C97.4006 85.5366 98.2006 86.0646 98.4806 87.0502C98.7206 88.0358 98.2406 88.8454 97.2406 89.0214C96.2806 89.1974 95.4406 88.6694 95.2006 87.6838ZM97.6806 87.191C97.5206 86.5222 97.0806 86.2054 96.5606 86.311C96.0406 86.4166 95.8006 86.8742 96.0006 87.543C96.1606 88.2118 96.6006 88.5286 97.1206 88.423C97.6406 88.3174 97.8406 87.8598 97.6806 87.191Z" fill="white"/>
</g>
<g opacity="0.3">
<path d="M142.12 76.5271C141.88 75.5415 142.36 74.7319 143.32 74.5559C144.32 74.3799 145.12 74.8727 145.4 75.8935C145.64 76.8791 145.16 77.6887 144.16 77.8647C143.2 78.0407 142.36 77.5127 142.12 76.5271ZM144.6 76.0343C144.44 75.3655 144 75.0487 143.48 75.1543C142.96 75.2599 142.72 75.7175 142.92 76.3863C143.08 77.0551 143.52 77.3719 144.04 77.2663C144.56 77.1607 144.76 76.7031 144.6 76.0343ZM147.44 73.7815L148.4 73.6055L145.24 80.5751L144.28 80.7511L147.44 73.7815ZM147.32 78.4983C147.08 77.5127 147.56 76.7031 148.52 76.5271C149.52 76.3511 150.32 76.8791 150.6 77.8647C150.84 78.8503 150.36 79.6599 149.36 79.8359C148.4 80.0119 147.6 79.4839 147.32 78.4983ZM149.8 78.0055C149.64 77.3367 149.2 77.0199 148.68 77.1255C148.16 77.2311 147.92 77.6887 148.12 78.3575C148.28 79.0263 148.72 79.3431 149.24 79.2375C149.76 79.1319 150 78.6743 149.8 78.0055Z" fill="white"/>
</g>
<path d="M110.437 94.2122L108.264 94.5818L103.429 89.1343L103.38 89.1427C103.449 89.3916 103.518 89.6426 103.585 89.8958C103.652 90.1489 103.719 90.402 103.786 90.6552C103.852 90.9047 103.919 91.156 103.986 91.4092L104.811 95.1688L103.284 95.4286L101.529 87.4393L103.686 87.0726L108.502 92.4609L108.541 92.4543C108.479 92.2078 108.416 91.9635 108.351 91.7213C108.287 91.4791 108.222 91.2368 108.157 90.9946C108.097 90.7518 108.036 90.509 107.975 90.2661L107.144 86.4846L108.683 86.2229L110.437 94.2122ZM117.271 89.8702C117.383 90.3802 117.412 90.8438 117.359 91.2611C117.309 91.6776 117.182 92.0451 116.977 92.3633C116.776 92.6773 116.504 92.9351 116.163 93.1367C115.826 93.3376 115.425 93.4775 114.962 93.5563C114.528 93.63 114.114 93.6287 113.72 93.5521C113.329 93.475 112.97 93.3244 112.642 93.1005C112.317 92.8722 112.038 92.5739 111.805 92.2055C111.575 91.8364 111.404 91.3968 111.292 90.8868C111.143 90.2092 111.139 89.6148 111.278 89.1035C111.418 88.5923 111.685 88.1765 112.08 87.8561C112.475 87.5358 112.983 87.3228 113.605 87.2171C114.182 87.1189 114.72 87.1541 115.218 87.3225C115.721 87.4903 116.15 87.7876 116.507 88.2145C116.868 88.6407 117.122 89.1926 117.271 89.8702ZM113.007 90.5951C113.095 90.9959 113.214 91.3254 113.362 91.5836C113.51 91.8418 113.693 92.0242 113.911 92.1308C114.129 92.2373 114.389 92.2649 114.69 92.2137C114.988 92.163 115.214 92.0529 115.367 91.8832C115.524 91.7128 115.615 91.4839 115.64 91.1963C115.668 90.908 115.638 90.5635 115.55 90.1628C115.461 89.7584 115.344 89.4307 115.197 89.1798C115.053 88.9246 114.873 88.7455 114.656 88.6426C114.439 88.5397 114.179 88.5139 113.878 88.5652C113.433 88.6408 113.142 88.847 113.007 89.1838C112.874 89.5199 112.875 89.9904 113.007 90.5951ZM121.664 91.0392C121.848 91.0079 122.023 90.9594 122.187 90.8936C122.356 90.8271 122.521 90.7519 122.681 90.6679L122.954 91.9083C122.791 92.0191 122.581 92.1228 122.324 92.2195C122.071 92.3191 121.787 92.3959 121.471 92.4496C121.103 92.5122 120.759 92.5101 120.439 92.4436C120.123 92.3727 119.848 92.206 119.614 91.9433C119.384 91.6763 119.211 91.2806 119.096 90.7559L118.45 87.8105L117.644 87.9474L117.489 87.2425L118.294 86.5275L118.496 85.1553L119.571 84.9725L119.857 86.273L121.583 85.9795L121.858 87.2309L120.132 87.5245L120.779 90.4699C120.83 90.7031 120.934 90.8667 121.092 90.9608C121.253 91.0506 121.444 91.0767 121.664 91.0392ZM124.058 83.0758L124.439 84.8081C124.505 85.1105 124.557 85.4002 124.595 85.6771C124.637 85.9535 124.665 86.1491 124.678 86.2639L124.767 86.2489C124.853 86.0151 124.971 85.8173 125.123 85.6555C125.278 85.4931 125.459 85.3622 125.666 85.2627C125.873 85.1633 126.103 85.092 126.357 85.0488C126.802 84.9732 127.207 84.9855 127.572 85.0859C127.937 85.1827 128.247 85.3812 128.504 85.6814C128.76 85.9781 128.945 86.3887 129.061 86.9133L129.935 90.897L128.253 91.1831L127.469 87.6146C127.374 87.1775 127.22 86.8615 127.01 86.6668C126.799 86.4721 126.525 86.4035 126.186 86.461C125.848 86.5185 125.599 86.6422 125.438 86.832C125.277 87.0181 125.189 87.2692 125.174 87.5854C125.159 87.8979 125.199 88.2709 125.294 88.7044L125.925 91.5788L124.243 91.8649L122.376 83.3618L124.058 83.0758ZM106.923 104.683L108.265 110.792L106.582 111.078L105.241 104.969L106.923 104.683ZM105.559 102.432C105.809 102.389 106.037 102.411 106.243 102.497C106.448 102.579 106.585 102.777 106.654 103.09C106.722 103.4 106.679 103.63 106.525 103.781C106.37 103.928 106.168 104.023 105.918 104.066C105.664 104.109 105.435 104.087 105.229 104.001C105.026 103.911 104.89 103.711 104.822 103.402C104.754 103.088 104.795 102.86 104.947 102.717C105.101 102.57 105.306 102.475 105.559 102.432ZM112.171 103.671C112.829 103.559 113.398 103.648 113.877 103.937C114.355 104.222 114.681 104.756 114.853 105.54L115.727 109.523L114.045 109.809L113.262 106.241C113.166 105.804 113.012 105.488 112.802 105.293C112.595 105.098 112.32 105.029 111.978 105.087C111.464 105.175 111.15 105.408 111.039 105.786C110.927 106.164 110.943 106.679 111.086 107.331L111.717 110.205L110.035 110.491L108.694 104.382L109.979 104.163L110.377 104.906L110.47 104.89C110.556 104.656 110.682 104.457 110.848 104.293C111.018 104.128 111.216 103.994 111.441 103.892C111.67 103.789 111.914 103.715 112.171 103.671ZM119.853 111.611C118.993 111.757 118.302 111.72 117.78 111.498C117.263 111.28 116.946 110.903 116.828 110.368C116.747 110 116.796 109.672 116.973 109.385C117.15 109.098 117.452 108.864 117.877 108.682C117.688 108.638 117.511 108.545 117.347 108.403C117.181 108.258 117.078 108.092 117.037 107.906C116.986 107.673 117.012 107.468 117.114 107.292C117.216 107.112 117.379 106.926 117.603 106.733C117.25 106.649 116.943 106.471 116.685 106.197C116.43 105.923 116.257 105.578 116.166 105.163C116.068 104.719 116.083 104.325 116.21 103.982C116.34 103.635 116.574 103.348 116.913 103.12C117.256 102.892 117.698 102.732 118.238 102.64C118.352 102.62 118.486 102.605 118.64 102.594C118.794 102.583 118.936 102.576 119.065 102.573C119.197 102.569 119.287 102.569 119.333 102.573L121.485 102.207L121.671 103.054L120.759 103.464C120.877 103.584 120.975 103.716 121.053 103.862C121.13 104.007 121.188 104.166 121.226 104.337C121.37 104.993 121.25 105.544 120.868 105.991C120.488 106.433 119.888 106.724 119.068 106.863C118.871 106.886 118.684 106.902 118.507 106.914C118.437 106.994 118.388 107.074 118.36 107.154C118.332 107.234 118.326 107.315 118.344 107.395C118.362 107.475 118.409 107.537 118.488 107.58C118.569 107.619 118.68 107.642 118.823 107.648C118.968 107.65 119.144 107.633 119.35 107.598L120.398 107.42C121.074 107.305 121.621 107.361 122.037 107.589C122.457 107.816 122.728 108.208 122.85 108.766C123.007 109.48 122.827 110.085 122.31 110.581C121.797 111.076 120.978 111.419 119.853 111.611ZM119.686 110.511C120.087 110.443 120.422 110.346 120.692 110.221C120.967 110.099 121.166 109.955 121.29 109.791C121.415 109.629 121.457 109.454 121.415 109.265C121.381 109.112 121.309 108.998 121.197 108.922C121.089 108.85 120.94 108.811 120.748 108.806C120.56 108.8 120.324 108.821 120.041 108.869L119.169 109.017C118.963 109.052 118.785 109.117 118.634 109.21C118.486 109.304 118.378 109.417 118.308 109.549C118.239 109.686 118.221 109.832 118.256 109.989C118.306 110.219 118.456 110.38 118.705 110.474C118.958 110.567 119.285 110.579 119.686 110.511ZM118.939 105.831C119.255 105.777 119.466 105.641 119.57 105.423C119.675 105.205 119.691 104.93 119.618 104.599C119.537 104.231 119.4 103.969 119.205 103.813C119.014 103.653 118.765 103.599 118.46 103.651C118.151 103.703 117.94 103.836 117.826 104.048C117.712 104.256 117.695 104.544 117.776 104.912C117.849 105.244 117.982 105.493 118.175 105.661C118.372 105.827 118.626 105.884 118.939 105.831Z" fill="white"/>
<path d="M114.23 104.431L112.52 104.722L111.076 98.1422L108.886 98.5145L108.577 97.1046L114.666 96.0693L114.975 97.4792L112.786 97.8515L114.23 104.431ZM122.46 99.8516C122.571 100.362 122.601 100.825 122.547 101.242C122.498 101.659 122.371 102.026 122.166 102.345C121.964 102.659 121.693 102.916 121.352 103.118C121.014 103.319 120.614 103.459 120.151 103.538C119.717 103.611 119.303 103.61 118.908 103.534C118.517 103.456 118.158 103.306 117.831 103.082C117.506 102.854 117.227 102.555 116.993 102.187C116.763 101.818 116.593 101.378 116.481 100.868C116.332 100.191 116.327 99.5962 116.467 99.0849C116.606 98.5737 116.873 98.1579 117.268 97.8376C117.663 97.5172 118.172 97.3042 118.793 97.1985C119.37 97.1004 119.908 97.1355 120.407 97.3039C120.909 97.4717 121.339 97.7691 121.695 98.1959C122.056 98.6221 122.311 99.174 122.46 99.8516ZM118.196 100.577C118.284 100.977 118.402 101.307 118.55 101.565C118.698 101.823 118.882 102.006 119.1 102.112C119.317 102.219 119.577 102.246 119.879 102.195C120.177 102.144 120.402 102.034 120.556 101.865C120.713 101.694 120.804 101.465 120.828 101.178C120.856 100.889 120.827 100.545 120.739 100.144C120.65 99.7398 120.532 99.4122 120.385 99.1612C120.242 98.906 120.061 98.7269 119.844 98.624C119.627 98.5211 119.368 98.4953 119.066 98.5466C118.621 98.6222 118.331 98.8284 118.195 99.1652C118.063 99.5013 118.063 99.9718 118.196 100.577ZM118.824 117.559C118.928 118.033 118.902 118.464 118.747 118.853C118.592 119.242 118.313 119.569 117.91 119.834C117.51 120.099 116.994 120.285 116.362 120.392C116.082 120.44 115.804 120.468 115.528 120.477C115.255 120.486 114.988 120.477 114.726 120.449C114.468 120.418 114.216 120.368 113.973 120.3L113.627 118.726C114.046 118.829 114.477 118.912 114.918 118.977C115.359 119.042 115.782 119.04 116.187 118.971C116.466 118.923 116.683 118.849 116.836 118.747C116.993 118.645 117.096 118.524 117.145 118.383C117.194 118.242 117.201 118.09 117.165 117.926C117.121 117.726 117.015 117.566 116.848 117.447C116.681 117.328 116.464 117.227 116.198 117.144C115.935 117.06 115.639 116.972 115.31 116.881C115.104 116.825 114.876 116.754 114.629 116.668C114.38 116.578 114.136 116.459 113.898 116.31C113.659 116.162 113.447 115.969 113.262 115.733C113.079 115.492 112.948 115.189 112.868 114.825C112.763 114.347 112.784 113.921 112.93 113.544C113.076 113.168 113.334 112.856 113.703 112.608C114.075 112.356 114.54 112.182 115.099 112.087C115.518 112.016 115.928 111.997 116.328 112.031C116.731 112.061 117.161 112.131 117.616 112.243L117.354 113.654C116.95 113.567 116.592 113.509 116.28 113.479C115.967 113.445 115.658 113.454 115.353 113.506C115.14 113.543 114.966 113.608 114.83 113.703C114.694 113.794 114.6 113.908 114.55 114.045C114.5 114.179 114.492 114.326 114.527 114.486C114.569 114.675 114.659 114.826 114.798 114.939C114.94 115.047 115.136 115.142 115.387 115.224C115.641 115.305 115.955 115.397 116.329 115.5C116.783 115.623 117.179 115.766 117.516 115.928C117.855 116.085 118.135 116.293 118.356 116.55C118.576 116.804 118.732 117.14 118.824 117.559ZM121.816 112.895C122.386 112.798 122.901 112.824 123.361 112.972C123.82 113.117 124.207 113.377 124.521 113.75C124.836 114.124 125.059 114.607 125.189 115.201L125.366 116.01L121.39 116.686C121.511 117.153 121.734 117.499 122.058 117.723C122.385 117.944 122.785 118.013 123.26 117.933C123.653 117.866 124.005 117.764 124.314 117.629C124.624 117.493 124.934 117.315 125.245 117.096L125.528 118.386C125.255 118.587 124.959 118.751 124.64 118.877C124.324 119.003 123.929 119.106 123.455 119.186C122.837 119.291 122.264 119.272 121.737 119.127C121.213 118.982 120.764 118.701 120.39 118.285C120.02 117.868 119.758 117.307 119.604 116.604C119.447 115.89 119.438 115.276 119.577 114.761C119.718 114.242 119.982 113.827 120.367 113.515C120.752 113.201 121.235 112.994 121.816 112.895ZM122.087 114.079C121.76 114.135 121.511 114.285 121.34 114.529C121.172 114.773 121.12 115.12 121.185 115.57L123.545 115.169C123.487 114.922 123.393 114.709 123.262 114.531C123.135 114.352 122.973 114.221 122.775 114.138C122.582 114.054 122.352 114.034 122.087 114.079ZM128.49 111.76C129.06 111.663 129.575 111.689 130.035 111.838C130.494 111.983 130.881 112.242 131.195 112.615C131.51 112.989 131.732 113.473 131.863 114.066L132.04 114.875L128.064 115.551C128.185 116.018 128.408 116.364 128.732 116.588C129.059 116.809 129.459 116.879 129.934 116.798C130.327 116.731 130.679 116.63 130.988 116.494C131.298 116.358 131.608 116.181 131.919 115.962L132.202 117.251C131.929 117.453 131.633 117.616 131.314 117.742C130.998 117.868 130.603 117.971 130.129 118.052C129.511 118.157 128.938 118.137 128.411 117.992C127.887 117.847 127.438 117.566 127.064 117.15C126.694 116.733 126.432 116.173 126.278 115.47C126.121 114.756 126.112 114.141 126.251 113.626C126.392 113.107 126.656 112.692 127.041 112.381C127.426 112.066 127.909 111.859 128.49 111.76ZM128.761 112.944C128.434 113 128.185 113.15 128.013 113.394C127.846 113.638 127.794 113.985 127.859 114.435L130.219 114.034C130.161 113.787 130.067 113.574 129.936 113.396C129.809 113.218 129.647 113.086 129.449 113.003C129.256 112.919 129.026 112.899 128.761 112.944Z" fill="white"/>
<path d="M123.954 113.639L122.249 113.929L121.492 110.481L118.299 111.024L119.056 114.472L117.346 114.763L115.592 106.773L117.302 106.483L117.989 109.614L121.183 109.071L120.495 105.94L122.2 105.65L123.954 113.639ZM127.038 106.658C127.608 106.561 128.123 106.587 128.583 106.735C129.042 106.88 129.429 107.14 129.744 107.513C130.058 107.887 130.281 108.37 130.411 108.964L130.589 109.773L126.612 110.449C126.734 110.916 126.956 111.262 127.28 111.486C127.607 111.707 128.008 111.776 128.482 111.696C128.875 111.629 129.227 111.527 129.537 111.392C129.846 111.256 130.156 111.078 130.467 110.859L130.75 112.149C130.478 112.35 130.182 112.514 129.862 112.64C129.547 112.766 129.152 112.869 128.677 112.949C128.059 113.054 127.487 113.035 126.959 112.89C126.435 112.745 125.986 112.464 125.613 112.048C125.243 111.631 124.98 111.07 124.826 110.367C124.669 109.653 124.66 109.039 124.799 108.524C124.941 108.005 125.204 107.59 125.59 107.278C125.974 106.964 126.457 106.757 127.038 106.658ZM127.31 107.842C126.982 107.898 126.733 108.048 126.562 108.292C126.394 108.536 126.343 108.883 126.407 109.333L128.768 108.932C128.71 108.685 128.615 108.472 128.485 108.294C128.358 108.115 128.195 107.984 127.998 107.901C127.804 107.817 127.575 107.797 127.31 107.842ZM134.611 105.37C134.696 105.356 134.795 105.345 134.907 105.337C135.023 105.325 135.117 105.32 135.19 105.323L135.407 106.907C135.347 106.899 135.266 106.899 135.161 106.909C135.059 106.915 134.972 106.925 134.898 106.937C134.681 106.974 134.476 107.037 134.282 107.127C134.092 107.216 133.929 107.336 133.795 107.488C133.659 107.635 133.566 107.818 133.514 108.034C133.465 108.246 133.473 108.497 133.536 108.784L134.218 111.894L132.536 112.18L131.195 106.07L132.469 105.854L132.943 106.839L133.025 106.825C133.101 106.596 133.21 106.381 133.353 106.18C133.498 105.973 133.676 105.8 133.885 105.658C134.097 105.513 134.339 105.417 134.611 105.37ZM121.821 123.756C122.391 123.659 122.906 123.685 123.366 123.833C123.825 123.978 124.212 124.237 124.526 124.611C124.841 124.984 125.063 125.468 125.194 126.062L125.371 126.871L121.395 127.547C121.516 128.014 121.739 128.359 122.063 128.584C122.39 128.804 122.79 128.874 123.265 128.793C123.658 128.726 124.01 128.625 124.319 128.489C124.629 128.354 124.939 128.176 125.249 127.957L125.533 129.247C125.26 129.448 124.964 129.612 124.645 129.738C124.329 129.863 123.934 129.966 123.46 130.047C122.842 130.152 122.269 130.132 121.742 129.988C121.218 129.842 120.769 129.562 120.395 129.145C120.025 128.728 119.763 128.168 119.609 127.465C119.452 126.751 119.443 126.136 119.582 125.622C119.723 125.102 119.987 124.687 120.372 124.376C120.757 124.061 121.24 123.854 121.821 123.756ZM122.092 124.94C121.765 124.995 121.516 125.145 121.344 125.39C121.177 125.634 121.125 125.981 121.19 126.431L123.55 126.029C123.492 125.782 123.398 125.57 123.267 125.392C123.14 125.213 122.978 125.082 122.78 124.998C122.586 124.914 122.357 124.895 122.092 124.94Z" fill="white"/>
<path d="M133.16 168.364C135.722 168.364 137.8 166.536 137.8 164.28C137.8 162.025 135.722 160.197 133.16 160.197C130.597 160.197 128.52 162.025 128.52 164.28C128.52 166.536 130.597 168.364 133.16 168.364Z" fill="#263238"/>
<path d="M133.159 166.498C134.55 166.498 135.679 165.505 135.679 164.28C135.679 163.055 134.55 162.062 133.159 162.062C131.767 162.062 130.639 163.055 130.639 164.28C130.639 165.505 131.767 166.498 133.159 166.498Z" fill="#E0E0E0"/>
<path d="M141.159 157.662V160.373L133.959 165.477C133.959 165.477 133.399 165.829 132.839 165.899C132.319 165.934 131.799 165.688 131.799 164.984C131.799 163.646 133.679 159.809 133.679 159.809H135.199V157.662H141.159Z" fill="#455A64"/>
<path d="M132.76 164.631C132.76 164.631 132.68 164.455 132.88 164.314C132.96 164.244 133.16 164.174 133.32 164.244C133.48 164.279 133.64 164.455 133.64 164.666C133.64 164.878 133.48 165.018 133.32 165.089C133.12 165.159 132.96 165.089 132.88 165.018C132.68 164.807 132.76 164.631 132.76 164.631C132.8 164.631 132.8 164.772 132.96 164.878C133.04 164.913 133.16 164.948 133.28 164.913C133.4 164.878 133.48 164.772 133.48 164.666C133.48 164.561 133.4 164.455 133.28 164.42C133.16 164.385 133.04 164.385 132.96 164.455C132.8 164.526 132.8 164.666 132.76 164.631Z" fill="#263238"/>
<path d="M133.719 159.809C133.719 159.773 134.119 159.773 134.799 159.738C135.479 159.738 136.399 159.738 137.439 159.773C138.439 159.809 139.319 159.809 140.079 159.844C140.759 159.879 141.159 159.879 141.159 159.914C141.159 159.949 140.759 159.949 140.079 159.985C139.399 159.985 138.479 159.985 137.439 159.949C136.439 159.914 135.559 159.914 134.799 159.879C134.119 159.844 133.719 159.809 133.719 159.809Z" fill="#263238"/>
<path d="M76.9994 168.432C79.562 168.432 81.6394 166.604 81.6394 164.349C81.6394 162.094 79.562 160.266 76.9994 160.266C74.4368 160.266 72.3594 162.094 72.3594 164.349C72.3594 166.604 74.4368 168.432 76.9994 168.432Z" fill="#263238"/>
<path d="M76.9985 166.566C78.3903 166.566 79.5185 165.573 79.5185 164.348C79.5185 163.124 78.3903 162.131 76.9985 162.131C75.6068 162.131 74.4785 163.124 74.4785 164.348C74.4785 165.573 75.6068 166.566 76.9985 166.566Z" fill="#E0E0E0"/>
<path d="M84.9987 156.922V160.407L77.7987 165.511C77.7987 165.511 77.2387 165.863 76.6787 165.933C76.1587 165.968 75.6387 165.722 75.6387 165.018C75.6387 163.68 77.5187 159.843 77.5187 159.843H79.0387V156.922H84.9987Z" fill="#455A64"/>
<path d="M76.6002 164.702C76.6002 164.702 76.5202 164.526 76.7202 164.385C76.8002 164.314 77.0002 164.244 77.1602 164.314C77.3202 164.35 77.4802 164.526 77.4802 164.737C77.4802 164.948 77.3202 165.089 77.1602 165.159C76.9602 165.23 76.8002 165.159 76.7202 165.089C76.4802 164.842 76.5602 164.666 76.6002 164.702C76.6402 164.702 76.6402 164.842 76.8002 164.948C76.8802 164.983 77.0002 165.018 77.1202 164.983C77.2402 164.948 77.3202 164.842 77.3202 164.737C77.3202 164.631 77.2402 164.526 77.1202 164.49C77.0002 164.455 76.8802 164.455 76.8002 164.526C76.6402 164.561 76.6002 164.702 76.6002 164.702Z" fill="#263238"/>
<path d="M77.5195 159.844C77.5195 159.809 77.9195 159.809 78.5995 159.773C79.2795 159.773 80.1995 159.773 81.2395 159.809C82.2395 159.844 83.1195 159.844 83.8795 159.879C84.5595 159.914 84.9595 159.914 84.9595 159.949C84.9595 159.985 84.5595 159.985 83.8795 160.02C83.1995 160.02 82.2795 160.02 81.2395 159.985C80.2395 159.949 79.3595 159.949 78.5995 159.914C77.9595 159.879 77.5195 159.879 77.5195 159.844Z" fill="#263238"/>
<path d="M99.0395 138.653C97.6795 138.653 96.4394 137.879 95.9594 136.717L82.4395 101.834L154.159 112.042L152.519 133.338C152.399 134.64 151.199 135.696 149.719 135.802L99.2395 138.653C99.1595 138.653 99.0795 138.653 99.0395 138.653ZM83.6395 102.714L96.7195 136.506C97.0795 137.421 98.0795 138.02 99.1995 137.949L149.679 135.098C150.759 135.028 151.639 134.253 151.719 133.303L153.319 112.64L83.6395 102.714Z" fill="#455A64"/>
<path d="M85.6791 110.036L82.6791 108.029L79.7191 100.461L77.1191 99.1238L77.5591 98.5254L80.3991 99.9686L83.3591 107.607L86.1991 109.473L85.6791 110.036Z" fill="#455A64"/>
<path d="M85.5814 108.369L85.4727 109.066L153.316 117.256L153.425 116.559L85.5814 108.369Z" fill="#455A64"/>
<path d="M89.5552 118.664L89.5078 119.367L153.193 122.692L153.24 121.989L89.5552 118.664Z" fill="#455A64"/>
<path d="M152.467 127.521L93.4844 128.889L93.5054 129.592L152.488 128.225L152.467 127.521Z" fill="#455A64"/>
<path d="M152.101 132.81L96.0488 135.197L96.0875 135.9L152.14 133.513L152.101 132.81Z" fill="#455A64"/>
<path d="M147.159 135.168L146.359 135.098C147.119 127.248 147.599 119.258 147.839 111.373L148.639 111.408C148.399 119.293 147.919 127.283 147.159 135.168Z" fill="#455A64"/>
<path d="M142.56 135.556H141.76C141.76 135.38 141.88 118.871 142.12 111.021L142.92 111.057C142.68 118.871 142.56 135.38 142.56 135.556Z" fill="#455A64"/>
<path d="M137.099 109.753L136.299 109.771L137.072 135.671L137.872 135.652L137.099 109.753Z" fill="#455A64"/>
<path d="M130.54 108.96L129.742 109.012L132.03 136.183L132.828 136.131L130.54 108.96Z" fill="#455A64"/>
<path d="M122.469 107.656L121.676 107.75L126.079 136.601L126.872 136.508L122.469 107.656Z" fill="#455A64"/>
<path d="M113.699 106.224L112.912 106.354L119.437 137.08L120.224 136.95L113.699 106.224Z" fill="#455A64"/>
<path d="M103.309 105.009L102.533 105.182L111.821 137.428L112.596 137.255L103.309 105.009Z" fill="#455A64"/>
<path d="M90.3253 103.153L89.5645 103.371L102.971 139.658L103.732 139.441L90.3253 103.153Z" fill="#455A64"/>
<path d="M143.599 158.295L78.1992 157.344C77.9192 157.344 77.6792 157.239 77.4792 157.063C77.2792 156.887 77.1992 156.675 77.1992 156.429C77.2392 155.408 77.3992 150.199 77.8392 149.037C77.9992 148.615 78.2792 147.946 89.1192 143.264C90.1992 142.807 99.6792 138.723 100.999 138.653C102.359 138.583 114.399 138.125 114.919 138.125C115.479 138.125 115.919 138.477 115.959 138.97C115.999 139.463 115.559 139.85 114.999 139.885C114.879 139.885 102.639 140.343 101.119 140.413C99.3992 140.73 81.5192 148.298 79.6392 149.741C79.4392 150.48 79.2392 153.085 79.1592 155.584L143.559 156.499C144.119 156.499 144.559 156.922 144.559 157.379C144.599 157.907 144.159 158.295 143.599 158.295Z" fill="#455A64"/>
<path d="M114.76 156.815L106.44 156.639C104.88 156.569 103.68 156.146 102.96 155.407C102.24 154.703 101.92 153.753 102 152.521C102.08 151.465 102.48 150.374 103.2 149.388L111.24 138.934L111.92 139.321L103.88 149.775C103.24 150.655 102.84 151.641 102.8 152.591C102.72 153.612 103 154.386 103.56 154.95C104.16 155.548 105.16 155.865 106.48 155.935L114.76 156.111V156.815Z" fill="#455A64"/>
<path d="M112.48 139.287C105.8 128.692 88.2399 100.954 87.3199 100.039C86.7999 99.6167 82.5199 98.2791 79.9199 97.5751L80.1599 96.9062C80.8399 97.1175 86.9999 98.8774 87.8399 99.5462C88.6799 100.18 109.04 132.493 113.12 138.935L112.48 139.287Z" fill="#455A64"/>
<path d="M81.7996 97.4688L77.3996 99.8272C77.3996 99.8272 72.3196 97.7856 71.8796 97.328C71.4396 96.8352 71.3196 95.0752 73.0796 94.7232C74.8396 94.3712 81.7996 97.4688 81.7996 97.4688Z" fill="#455A64"/>
<path d="M73.3205 96.2724C73.3205 96.2724 73.2805 96.202 73.3205 96.0964C73.3605 95.9908 73.4005 95.7796 73.6005 95.6388C73.8005 95.498 74.1205 95.3924 74.4805 95.498C74.8005 95.6036 75.1205 95.8852 75.1205 96.2724C75.1205 96.6244 74.8405 96.9412 74.4805 97.0468C74.1605 97.1524 73.8005 97.0468 73.6005 96.906C73.4005 96.7652 73.3205 96.5892 73.3205 96.4484C73.2805 96.3428 73.3205 96.2724 73.3205 96.2724C73.3205 96.2724 73.3605 96.3428 73.4005 96.4484C73.4405 96.554 73.5205 96.6948 73.7205 96.8004C73.8805 96.906 74.1605 96.9764 74.4405 96.8708C74.7205 96.8004 74.9205 96.554 74.9205 96.2724C74.9205 95.9908 74.7205 95.7444 74.4405 95.674C74.1605 95.5684 73.9205 95.6388 73.7205 95.7444C73.5605 95.85 73.4405 95.9908 73.4005 96.0964C73.3205 96.2372 73.3205 96.2724 73.3205 96.2724Z" fill="#263238"/>
<path d="M78.1992 157.203C78.1992 157.167 92.7992 157.308 110.839 157.555C128.879 157.801 143.479 158.047 143.479 158.118C143.479 158.153 128.879 158.012 110.839 157.766C92.8392 157.484 78.1992 157.238 78.1992 157.203Z" fill="#263238"/>
<path d="M178.841 168.397C178.841 168.432 143.201 168.502 99.2005 168.502C55.2005 168.502 19.5605 168.467 19.5605 168.397C19.5605 168.361 55.2005 168.291 99.2005 168.291C143.161 168.326 178.841 168.361 178.841 168.397Z" fill="#263238"/>
<path d="M52.4802 39.0734L49.3602 34.251C50.7202 32.2798 51.5202 29.9566 51.5202 27.4926C51.5202 20.3822 44.9602 14.5742 36.8402 14.5742C28.7602 14.5742 22.1602 20.347 22.1602 27.4926C22.1602 34.603 28.7202 40.411 36.8402 40.411C40.2402 40.411 43.3202 39.3902 45.8002 37.7006L52.4802 39.0734Z" fill="white"/>
<path d="M52.4799 39.0733C52.1599 39.0029 50.0799 38.5805 45.8399 37.7357C45.7999 37.7357 45.7999 37.7005 45.7999 37.7005L45.8799 37.7709C45.0399 38.3341 44.0399 38.8973 42.8799 39.3549C41.7199 39.8125 40.3599 40.1997 38.8399 40.3757C38.0799 40.4461 37.3199 40.5165 36.5199 40.4813C36.1199 40.4461 35.7199 40.4461 35.3199 40.4109C34.9199 40.3405 34.4799 40.3053 34.0799 40.2349C32.3999 39.9533 30.7199 39.3901 29.1199 38.5101C27.5199 37.6653 26.0799 36.4685 24.8799 35.0253C23.7199 33.5821 22.7999 31.8925 22.3999 30.0269C21.9999 28.1965 22.0399 26.1901 22.5599 24.2893C23.1199 22.3885 24.1599 20.5229 25.7199 18.9741L26.3199 18.4109C26.5199 18.1997 26.7599 18.0589 26.9599 17.8829C27.1999 17.7069 27.3999 17.5309 27.6399 17.3901L28.3599 16.9325C28.5999 16.7565 28.8399 16.6509 29.0799 16.5101C29.3199 16.3693 29.5599 16.2285 29.8399 16.1229C30.1199 16.0173 30.3599 15.9117 30.5999 15.8061C30.8799 15.7005 31.1199 15.5597 31.3999 15.4893C33.5199 14.7501 35.7999 14.4685 37.9599 14.6093C40.1199 14.7501 42.1999 15.2781 43.9999 16.1933C45.7999 17.0733 47.2799 18.2349 48.4799 19.5373C49.6399 20.8397 50.4799 22.2829 50.9999 23.7261C51.5199 25.1693 51.6399 26.6125 51.6399 27.9149C51.5999 29.2525 51.3199 30.4493 50.9199 31.5405C50.5199 32.6317 49.9999 33.5469 49.4399 34.3213V34.2861C51.3599 37.3133 52.3199 38.8621 52.4799 39.0733C52.3199 38.8269 51.3599 37.3485 49.3199 34.2509V34.2157C49.8399 33.4413 50.3599 32.5261 50.7599 31.4349C51.1599 30.3789 51.3999 29.1469 51.4399 27.8445C51.4399 26.5421 51.2799 25.0989 50.7999 23.6909C50.2799 22.2829 49.4799 20.8397 48.3199 19.5373C47.1599 18.2349 45.6799 17.1085 43.8799 16.2285C42.1199 15.3485 40.0399 14.8205 37.9199 14.6797C35.7599 14.5389 33.5199 14.8205 31.4399 15.5597C31.1599 15.6301 30.9199 15.7709 30.6799 15.8765C30.4399 15.9821 30.1599 16.0877 29.9199 16.1933C29.6799 16.3341 29.4399 16.4397 29.1999 16.5805C28.9599 16.7213 28.7199 16.8269 28.4799 17.0029L27.7999 17.4605C27.5599 17.6013 27.3599 17.8125 27.1599 17.9533C26.9599 18.1293 26.7199 18.3053 26.5199 18.4813L25.9199 19.0445C24.3999 20.5581 23.3599 22.3885 22.7999 24.2893C22.2399 26.1901 22.1999 28.1261 22.6399 29.9565C23.0399 31.7869 23.9199 33.4765 25.0799 34.8845C26.2399 36.2925 27.6799 37.4541 29.2399 38.3341C30.7999 39.1789 32.4799 39.7421 34.1199 40.0237C34.5199 40.0941 34.9599 40.1293 35.3599 40.1997C35.7599 40.2349 36.1599 40.2349 36.5599 40.2701C37.3599 40.3053 38.1199 40.2701 38.8799 40.1645C40.3599 39.9885 41.7199 39.6365 42.8799 39.1789C44.0399 38.7213 45.0399 38.1581 45.8799 37.5949C45.8799 37.5949 45.9199 37.5949 45.9599 37.5949V37.6301L45.9199 37.5597C50.0799 38.5805 52.1599 39.0029 52.4799 39.0733Z" fill="#263238"/>
</svg>
