<svg width="551" height="578" viewBox="0 0 551 578" fill="none" xmlns="http://www.w3.org/2000/svg">
<g filter="url(#filter0_d_5072_4283)">
<path d="M279.662 569.086C325.859 569.341 371.078 552.896 409.59 521.835C448.103 490.774 478.176 446.495 496 394.608C513.823 342.721 518.596 285.56 509.711 230.368C500.827 175.175 478.687 124.436 446.095 84.5763C413.503 44.717 371.927 17.5321 326.633 6.46581C281.34 -4.6005 234.367 0.949756 191.667 22.4134C148.967 43.877 112.46 80.2882 86.7724 127.034C61.0848 173.779 47.3721 228.756 47.3717 284.998C47.2344 360.171 71.63 432.332 115.192 485.608C158.755 538.884 217.916 568.912 279.662 569.086V569.086Z" fill="#F06D06" fill-opacity="0.15"/>
<path d="M55.6071 118.582C57.8202 117.721 59.7734 116.08 61.2192 113.866C62.665 111.652 63.5383 108.965 63.7283 106.146C63.9183 103.327 63.4165 100.503 62.2865 98.0311C61.1565 95.5597 59.4492 93.5524 57.381 92.2638C55.3128 90.9751 52.977 90.4631 50.6695 90.7926C48.362 91.1221 46.1868 92.2783 44.4197 94.1146C42.6527 95.951 41.3732 98.3847 40.7436 101.107C40.1141 103.83 40.1627 106.719 40.8833 109.408C41.8487 112.991 43.9373 115.965 46.6947 117.684C49.452 119.402 52.6551 119.725 55.6071 118.582V118.582Z" fill="#E2EBFF"/>
<path d="M81.1202 71.9599C82.626 71.3749 83.9551 70.2587 84.939 68.7529C85.923 67.2471 86.5175 65.4194 86.6471 63.5017C86.7767 61.584 86.4357 59.6626 85.6671 57.9812C84.8986 56.2998 83.7373 54.9341 82.3304 54.0573C80.9235 53.1806 79.3344 52.8322 77.7646 53.0564C76.1949 53.2806 74.7152 54.0673 73.5131 55.3167C72.3111 56.5662 71.441 58.222 71.013 60.0743C70.585 61.9266 70.6185 63.892 71.1092 65.7211C71.7654 68.1576 73.1853 70.1801 75.0602 71.3485C76.935 72.5169 79.113 72.7366 81.1202 71.9599V71.9599Z" fill="#E2EBFF"/>
<path d="M540.761 213.787C544.241 209.891 546.313 204.477 546.524 198.727C546.736 192.978 545.07 187.36 541.891 183.1C540.322 180.995 538.427 179.289 536.314 178.08C534.202 176.87 531.913 176.182 529.581 176.053C527.249 175.925 524.919 176.359 522.725 177.332C520.532 178.304 518.518 179.795 516.799 181.719C513.321 185.615 511.249 191.029 511.038 196.779C510.826 202.528 512.491 208.146 515.669 212.406C517.238 214.511 519.133 216.217 521.246 217.426C523.358 218.636 525.647 219.324 527.979 219.453C530.311 219.581 532.641 219.147 534.835 218.174C537.028 217.202 539.042 215.711 540.761 213.787V213.787Z" fill="#E2EBFF"/>
<path d="M542.436 116.83C543.9 115.187 544.77 112.905 544.856 110.483C544.942 108.061 544.236 105.697 542.894 103.906C542.232 103.022 541.433 102.305 540.543 101.798C539.652 101.291 538.689 101.004 537.707 100.952C536.725 100.9 535.744 101.085 534.821 101.497C533.898 101.908 533.051 102.538 532.329 103.349C530.866 104.993 529.997 107.275 529.911 109.696C529.826 112.117 530.53 114.482 531.872 116.273C532.533 117.157 533.333 117.873 534.223 118.38C535.113 118.888 536.077 119.175 537.059 119.227C538.041 119.279 539.021 119.094 539.944 118.682C540.867 118.271 541.714 117.641 542.436 116.83V116.83Z" fill="#E2EBFF"/>
<path d="M34.7344 399.318C36.593 399.328 38.4123 398.666 39.9617 397.416C41.5111 396.166 42.7209 394.384 43.4378 392.296C44.1547 390.209 44.3466 387.909 43.9889 385.688C43.6313 383.468 42.7404 381.426 41.429 379.823C40.1176 378.219 38.4448 377.125 36.6224 376.68C34.8 376.235 32.9102 376.459 31.1922 377.322C29.4742 378.186 28.0054 379.651 26.9719 381.532C25.9385 383.413 25.3868 385.624 25.3867 387.887C25.3819 390.912 26.3638 393.815 28.1167 395.959C29.8696 398.102 32.2499 399.31 34.7344 399.318V399.318Z" fill="#EA67A4"/>
<path d="M459.62 31.7754C461.107 31.7831 462.563 31.2531 463.803 30.2525C465.042 29.252 466.01 27.8259 466.584 26.1549C467.157 24.484 467.31 22.6434 467.024 20.8664C466.737 19.0895 466.024 17.4561 464.974 16.1732C463.924 14.8904 462.585 14.0158 461.126 13.6604C459.668 13.3049 458.155 13.4845 456.781 14.1765C455.406 14.8685 454.231 16.0416 453.405 17.5474C452.578 19.0531 452.138 20.8235 452.139 22.6344C452.137 23.8327 452.329 25.0196 452.704 26.1274C453.079 27.2353 453.629 28.2423 454.324 29.0912C455.019 29.94 455.844 30.6139 456.753 31.0745C457.661 31.535 458.635 31.7732 459.62 31.7754V31.7754Z" fill="#EA67A4"/>
<path d="M10.8965 227.266C12.1045 227.273 13.2869 226.843 14.294 226.031C15.3012 225.219 16.0878 224.061 16.5542 222.705C17.0207 221.348 17.146 219.853 16.9143 218.41C16.6827 216.967 16.1044 215.64 15.2529 214.597C14.4013 213.554 13.3146 212.842 12.1305 212.551C10.9464 212.26 9.71801 212.404 8.60096 212.964C7.4839 213.523 6.52839 214.474 5.85539 215.695C5.18239 216.916 4.82218 218.353 4.82036 219.824C4.81735 220.799 4.97219 221.764 5.27603 222.666C5.57987 223.568 6.02675 224.387 6.5911 225.079C7.15544 225.77 7.82619 226.319 8.56496 226.694C9.30373 227.069 10.096 227.264 10.8965 227.266V227.266Z" fill="#EA67A4"/>
<path d="M74.9352 411.897V128.365C74.9063 125.961 75.2731 123.574 76.0139 121.345C76.7547 119.117 77.8544 117.091 79.2484 115.388C80.6423 113.684 82.3022 112.338 84.1303 111.428C85.9583 110.518 87.9175 110.063 89.8923 110.089H468.497C470.473 110.063 472.433 110.518 474.262 111.429C476.091 112.341 477.751 113.688 479.146 115.393C480.54 117.098 481.639 119.126 482.379 121.357C483.119 123.588 483.484 125.976 483.454 128.382V471.343L74.9352 466.196" fill="white"/>
<path d="M74.9353 399.319V128.376C74.9053 125.971 75.2711 123.583 76.0113 121.353C76.7516 119.123 77.8511 117.096 79.2452 115.391C80.6393 113.687 82.2996 112.34 84.1282 111.429C85.9569 110.518 87.9168 110.063 89.8924 110.089H468.497C470.473 110.063 472.433 110.518 474.262 111.429C476.091 112.341 477.752 113.688 479.146 115.393C480.54 117.098 481.639 119.126 482.379 121.357C483.119 123.588 483.485 125.976 483.454 128.382V444.478H363.33" stroke="#182052" stroke-miterlimit="10" stroke-linecap="round" stroke-linejoin="round"/>
<path d="M507.295 445.045V459.35C507.295 472.496 497.948 475.927 486.706 475.927H72.5959C61.3769 475.927 52.0293 473.069 52.0293 459.35V445.045H239.467C240.355 447.774 241.904 450.11 243.907 451.744C245.911 453.377 248.275 454.231 250.686 454.191H308.629C311.026 454.151 313.361 453.266 315.352 451.642C317.343 450.019 318.905 447.727 319.848 445.045H507.295Z" fill="#E2EBFF"/>
<path d="M348.838 445.045H506.829V459.35C506.829 472.496 497.476 475.927 486.239 475.927H72.5959C61.3769 475.927 52.0293 473.069 52.0293 459.35V445.045H239.467C240.355 447.774 241.904 450.11 243.907 451.744C245.911 453.377 248.275 454.231 250.686 454.191H308.629C311.026 454.151 313.361 453.266 315.352 451.642C317.343 450.019 318.905 447.727 319.848 445.045" stroke="#FFEBE2" stroke-miterlimit="10" stroke-linecap="round" stroke-linejoin="round"/>
<path d="M102.512 151.243C103.441 151.247 104.351 150.916 105.125 150.291C105.899 149.665 106.504 148.774 106.862 147.73C107.22 146.686 107.316 145.536 107.137 144.426C106.958 143.316 106.512 142.296 105.856 141.494C105.2 140.693 104.364 140.146 103.453 139.924C102.542 139.702 101.597 139.813 100.738 140.245C99.8793 140.677 99.145 141.41 98.6284 142.35C98.1117 143.29 97.836 144.396 97.8359 145.528C97.8347 146.277 97.9547 147.019 98.1891 147.711C98.4234 148.404 98.7675 149.034 99.2018 149.564C99.636 150.095 100.152 150.516 100.72 150.804C101.288 151.092 101.897 151.241 102.512 151.243V151.243Z" fill="#C0D6FF"/>
<path d="M115.133 151.243C116.062 151.247 116.972 150.916 117.746 150.291C118.521 149.665 119.125 148.774 119.483 147.73C119.841 146.686 119.937 145.536 119.758 144.426C119.579 143.316 119.133 142.296 118.477 141.494C117.822 140.693 116.985 140.146 116.074 139.924C115.163 139.702 114.218 139.813 113.359 140.245C112.5 140.677 111.766 141.41 111.249 142.35C110.733 143.29 110.457 144.396 110.457 145.528C110.456 146.277 110.576 147.019 110.81 147.711C111.045 148.404 111.389 149.034 111.823 149.564C112.257 150.095 112.773 150.516 113.341 150.804C113.909 151.092 114.518 151.241 115.133 151.243V151.243Z" fill="#C0D6FF"/>
<path d="M127.283 151.243C128.212 151.248 129.122 150.918 129.897 150.293C130.672 149.669 131.277 148.778 131.636 147.734C131.995 146.69 132.091 145.54 131.913 144.43C131.734 143.319 131.289 142.298 130.633 141.496C129.978 140.694 129.141 140.147 128.23 139.924C127.319 139.702 126.374 139.813 125.515 140.245C124.655 140.677 123.921 141.409 123.404 142.35C122.887 143.29 122.611 144.396 122.611 145.528C122.609 147.039 123.1 148.491 123.976 149.562C124.851 150.634 126.041 151.238 127.283 151.243V151.243Z" fill="#C0D6FF"/>
<path d="M439.514 239.271H317.053C316.498 239.271 315.949 239.139 315.437 238.88C314.926 238.621 314.461 238.242 314.07 237.763C313.679 237.285 313.37 236.717 313.16 236.092C312.95 235.467 312.844 234.798 312.848 234.124V180.966C312.845 180.291 312.951 179.623 313.161 178.999C313.371 178.375 313.681 177.808 314.071 177.33C314.462 176.852 314.927 176.473 315.439 176.215C315.95 175.956 316.499 175.823 317.053 175.824H439.514C440.068 175.823 440.617 175.956 441.128 176.215C441.64 176.473 442.105 176.852 442.495 177.33C442.886 177.808 443.196 178.375 443.406 178.999C443.616 179.623 443.722 180.291 443.719 180.966V234.124C444.19 236.981 442.319 239.271 439.514 239.271Z" fill="#FFEBE2"/>
<path d="M444.19 315.862C444.194 316.537 444.088 317.206 443.878 317.831C443.668 318.455 443.359 319.023 442.968 319.502C442.577 319.98 442.113 320.36 441.601 320.618C441.089 320.877 440.54 321.01 439.986 321.009H317.053C316.498 321.01 315.949 320.877 315.437 320.618C314.926 320.36 314.461 319.98 314.07 319.502C313.679 319.023 313.37 318.455 313.16 317.831C312.95 317.206 312.844 316.537 312.848 315.862V262.715C312.844 262.041 312.95 261.372 313.16 260.747C313.37 260.122 313.679 259.554 314.07 259.076C314.461 258.597 314.926 258.218 315.437 257.959C315.949 257.7 316.498 257.568 317.053 257.568H439.514C440.069 257.568 440.618 257.7 441.129 257.959C441.641 258.218 442.106 258.597 442.497 259.076C442.888 259.554 443.197 260.122 443.407 260.747C443.617 261.372 443.723 262.041 443.719 262.715V315.873L444.19 315.862Z" fill="#FFEBE2"/>
<path d="M419.42 199.259H337.154C336.531 199.259 335.934 198.958 335.494 198.422C335.054 197.886 334.807 197.159 334.807 196.401C334.807 195.643 335.054 194.916 335.494 194.381C335.934 193.845 336.531 193.544 337.154 193.544H419.42C419.733 193.522 420.046 193.581 420.338 193.716C420.631 193.852 420.896 194.062 421.117 194.332C421.338 194.602 421.509 194.926 421.62 195.283C421.73 195.64 421.778 196.021 421.758 196.401C421.287 198.1 420.354 199.259 419.42 199.259Z" fill="#C0D6FF"/>
<path d="M390.439 220.382H337.154C336.531 220.382 335.934 220.081 335.494 219.545C335.054 219.009 334.807 218.282 334.807 217.524C334.807 216.766 335.054 216.039 335.494 215.504C335.934 214.968 336.531 214.667 337.154 214.667H390.906C391.219 214.645 391.532 214.704 391.824 214.84C392.116 214.976 392.382 215.185 392.603 215.455C392.824 215.726 392.995 216.05 393.106 216.406C393.216 216.763 393.263 217.144 393.244 217.524C392.778 218.711 391.84 220.382 390.439 220.382Z" fill="#C0D6FF"/>
<path d="M419.42 280.997H337.154C336.531 280.997 335.934 280.696 335.494 280.16C335.054 279.624 334.807 278.897 334.807 278.139C334.807 277.382 335.054 276.655 335.494 276.119C335.934 275.583 336.531 275.282 337.154 275.282H419.42C419.733 275.26 420.046 275.319 420.338 275.455C420.631 275.591 420.896 275.801 421.117 276.071C421.338 276.341 421.509 276.665 421.62 277.021C421.73 277.378 421.778 277.759 421.758 278.139C421.287 279.855 420.354 280.997 419.42 280.997Z" fill="#C0D6FF"/>
<path d="M390.439 302.144H337.154C336.531 302.144 335.934 301.842 335.494 301.307C335.054 300.771 334.807 300.044 334.807 299.286C334.807 298.528 335.054 297.801 335.494 297.265C335.934 296.729 336.531 296.428 337.154 296.428H390.906C391.219 296.406 391.532 296.465 391.824 296.601C392.116 296.737 392.382 296.947 392.603 297.217C392.824 297.487 392.995 297.811 393.106 298.168C393.216 298.524 393.263 298.905 393.244 299.286C393.106 300.075 392.755 300.786 392.247 301.304C391.738 301.822 391.102 302.118 390.439 302.144V302.144Z" fill="#C0D6FF"/>
<path d="M444.186 398.176C444.19 398.851 444.083 399.52 443.874 400.144C443.664 400.769 443.355 401.337 442.964 401.815C442.573 402.294 442.108 402.673 441.596 402.932C441.084 403.191 440.535 403.324 439.981 403.323H317.053C316.498 403.324 315.949 403.191 315.437 402.932C314.926 402.673 314.461 402.294 314.07 401.815C313.679 401.337 313.37 400.769 313.16 400.144C312.95 399.52 312.844 398.851 312.848 398.176V345.018C312.844 344.343 312.95 343.674 313.16 343.05C313.37 342.425 313.679 341.857 314.07 341.379C314.461 340.9 314.926 340.521 315.437 340.262C315.949 340.003 316.498 339.87 317.053 339.871H439.514C440.069 339.87 440.618 340.002 441.131 340.26C441.643 340.519 442.109 340.898 442.5 341.377C442.891 341.855 443.201 342.423 443.411 343.048C443.621 343.673 443.727 344.343 443.724 345.018V398.176H444.186Z" fill="#FFEBE2"/>
<path d="M419.42 363.88H337.154C336.531 363.88 335.934 363.579 335.494 363.043C335.054 362.507 334.807 361.78 334.807 361.022C334.807 360.264 335.054 359.538 335.494 359.002C335.934 358.466 336.531 358.165 337.154 358.165H419.42C419.733 358.143 420.046 358.202 420.338 358.338C420.631 358.474 420.896 358.684 421.117 358.954C421.338 359.224 421.509 359.548 421.62 359.904C421.73 360.261 421.778 360.642 421.758 361.022C421.287 362.738 420.354 363.88 419.42 363.88Z" fill="#C0D6FF"/>
<path d="M390.439 385.03H337.154C336.531 385.03 335.934 384.729 335.494 384.193C335.054 383.657 334.807 382.931 334.807 382.173C334.807 381.415 335.054 380.688 335.494 380.152C335.934 379.616 336.531 379.315 337.154 379.315H390.906C391.219 379.293 391.532 379.352 391.824 379.488C392.116 379.624 392.382 379.834 392.603 380.104C392.824 380.374 392.995 380.698 393.106 381.055C393.216 381.411 393.263 381.792 393.244 382.173C392.778 383.315 391.84 385.03 390.439 385.03Z" fill="#C0D6FF"/>
<path d="M278.723 333.582H113.714C112.726 333.596 111.746 333.368 110.831 332.913C109.916 332.457 109.086 331.784 108.388 330.931C107.691 330.078 107.141 329.064 106.771 327.949C106.401 326.833 106.218 325.639 106.234 324.436V185.539C106.216 184.334 106.398 183.138 106.767 182.021C107.136 180.903 107.686 179.887 108.383 179.033C109.081 178.178 109.912 177.503 110.828 177.047C111.743 176.59 112.725 176.362 113.714 176.376H279.19C280.179 176.363 281.16 176.591 282.075 177.048C282.99 177.505 283.821 178.18 284.518 179.035C285.215 179.889 285.764 180.905 286.133 182.022C286.502 183.139 286.683 184.335 286.666 185.539V324.441C286.513 326.895 285.614 329.19 284.146 330.881C282.677 332.571 280.744 333.534 278.723 333.582V333.582Z" fill="#FFEBE2"/>
<path d="M199.733 299.287H139.9L169.815 258.133L199.733 299.287Z" fill="#C0D6FF"/>
<path d="M248.809 299.285H162.791L205.8 239.838L248.809 299.285Z" fill="white"/>
<path d="M162.34 243.27C164.571 243.282 166.755 242.487 168.615 240.987C170.475 239.487 171.927 237.349 172.787 234.843C173.648 232.337 173.878 229.576 173.449 226.911C173.02 224.245 171.951 221.795 170.377 219.87C168.803 217.945 166.795 216.633 164.608 216.098C162.42 215.564 160.152 215.832 158.09 216.869C156.027 217.905 154.264 219.664 153.024 221.921C151.783 224.179 151.121 226.834 151.121 229.55C151.118 231.348 151.405 233.129 151.967 234.791C152.529 236.454 153.354 237.965 154.396 239.239C155.438 240.513 156.676 241.525 158.039 242.217C159.402 242.908 160.863 243.266 162.34 243.27V243.27Z" fill="#C0D6FF"/>
<path d="M283.4 388.457H109.534C108.662 388.457 107.825 388.035 107.209 387.284C106.592 386.534 106.246 385.516 106.246 384.454C106.246 383.393 106.592 382.375 107.209 381.624C107.825 380.874 108.662 380.452 109.534 380.452H283.4C283.834 380.441 284.265 380.536 284.667 380.733C285.069 380.931 285.434 381.225 285.74 381.599C286.045 381.973 286.286 382.419 286.446 382.909C286.606 383.399 286.683 383.924 286.672 384.452C286.544 385.454 286.159 386.382 285.571 387.102C284.983 387.821 284.223 388.296 283.4 388.457Z" fill="#E2EBFF"/>
<path d="M283.4 364.453H109.534C108.662 364.453 107.825 364.031 107.209 363.281C106.592 362.53 106.246 361.512 106.246 360.451C106.246 359.389 106.592 358.371 107.209 357.62C107.825 356.87 108.662 356.448 109.534 356.448H283.4C283.834 356.437 284.265 356.532 284.667 356.73C285.069 356.927 285.434 357.221 285.74 357.595C286.045 357.969 286.286 358.415 286.446 358.905C286.606 359.395 286.683 359.92 286.672 360.448C286.544 361.45 286.159 362.378 285.571 363.098C284.983 363.817 284.223 364.292 283.4 364.453V364.453Z" fill="#E2EBFF"/>
<path d="M167.948 411.896H109.52C108.648 411.896 107.812 411.474 107.195 410.724C106.579 409.973 106.232 408.955 106.232 407.894C106.232 406.832 106.579 405.814 107.195 405.064C107.812 404.313 108.648 403.892 109.52 403.892H167.948C168.382 403.88 168.812 403.976 169.215 404.173C169.617 404.37 169.982 404.665 170.287 405.038C170.593 405.412 170.834 405.858 170.994 406.348C171.154 406.839 171.231 407.363 171.22 407.891C171.092 408.894 170.707 409.822 170.119 410.541C169.531 411.261 168.771 411.735 167.948 411.896V411.896Z" fill="#E2EBFF"/>
<g opacity="0.3">
<path opacity="0.6" d="M378.753 116.373C372.01 115.044 365.419 112.748 359.12 109.532C339.958 98.102 307.705 66.6406 289.944 66.6406C272.182 66.6406 239.929 98.0797 220.301 109.532C214.017 112.825 207.413 115.123 200.649 116.373C198.91 116.471 197.205 117 195.639 117.927C194.074 118.854 192.679 120.16 191.542 121.765C190.405 123.371 189.548 125.241 189.025 127.263C188.501 129.284 188.321 131.415 188.497 133.524C191.973 169.978 198.238 205.957 207.21 240.993C222.634 301.013 266.572 337.02 283.401 349.024C285.388 350.428 287.646 351.167 289.944 351.167C292.242 351.167 294.499 350.428 296.486 349.024C313.315 337.015 357.253 301.002 372.228 240.993C381.194 205.958 387.453 169.981 390.924 133.53C391.172 131.403 391.043 129.237 390.546 127.176C390.049 125.115 389.196 123.208 388.042 121.582C386.889 119.957 385.464 118.651 383.861 117.752C382.259 116.854 380.517 116.383 378.753 116.373Z" fill="#84A2FF"/>
</g>
<path d="M371.273 88.3641C364.529 87.0299 357.939 84.7282 351.64 81.507C332.007 70.6448 299.754 38.6152 281.997 38.6152C264.24 38.6152 231.983 70.0543 212.354 81.507C206.077 84.8031 199.479 87.1076 192.721 88.3641C190.982 88.4624 189.278 88.9911 187.712 89.9179C186.147 90.8448 184.753 92.1503 183.616 93.7548C182.479 95.3593 181.622 97.2292 181.098 99.2502C180.574 101.271 180.394 103.401 180.569 105.51C184.044 141.962 190.308 177.939 199.278 212.973C215.159 272.994 259.092 309.006 275.921 321.01C277.909 322.413 280.166 323.152 282.464 323.152C284.762 323.152 287.019 322.413 289.007 321.01C305.835 309.006 349.769 272.994 364.73 212.979C373.696 177.944 379.954 141.967 383.426 105.515C383.601 103.406 383.421 101.276 382.898 99.2541C382.374 97.2324 381.517 95.3619 380.38 93.7567C379.243 92.1516 377.849 90.8456 376.283 89.9184C374.717 88.9912 373.012 88.4624 371.273 88.3641V88.3641Z" fill="#F06D06"/>
<path d="M382.958 110.089C382.958 108.373 383.415 106.657 383.415 105.515C383.663 103.392 383.534 101.229 383.038 99.1712C382.543 97.1134 381.691 95.2085 380.541 93.5842C379.391 91.9599 377.969 90.6537 376.371 89.7534C374.772 88.8531 373.034 88.3794 371.272 88.3641C364.528 87.0298 357.938 84.728 351.639 81.507C332.006 70.6448 299.758 38.6152 281.996 38.6152C275.448 39.3412 269.088 41.6738 263.301 45.4723" stroke="#182052" stroke-miterlimit="10" stroke-linecap="round" stroke-linejoin="round"/>
<path d="M218.897 77.502C216.559 79.2176 214.692 80.3595 212.821 81.5015C206.545 84.7994 199.949 87.1057 193.192 88.3642C191.453 88.4624 189.748 88.9913 188.182 89.9184C186.617 90.8456 185.222 92.1516 184.085 93.7568C182.948 95.3619 182.091 97.2324 181.568 99.2541C181.044 101.276 180.864 103.406 181.04 105.515C184.511 141.965 190.77 177.94 199.735 212.973C215.159 272.994 259.097 309.006 275.921 321.01C277.909 322.414 280.166 323.153 282.464 323.153C284.762 323.153 287.019 322.414 289.007 321.01C305.835 309.006 349.773 272.994 364.726 212.979C369.868 191.811 374.073 172.967 376.878 156.389" stroke="#182052" stroke-miterlimit="10" stroke-linecap="round" stroke-linejoin="round"/>
<path d="M234.787 66.082C233.751 66.6398 232.802 67.4126 231.982 68.3659" stroke="#182052" stroke-miterlimit="10" stroke-linecap="round" stroke-linejoin="round"/>
<path d="M204.407 145.528C202.069 130.666 200.668 118.088 199.73 108.947C206.751 106.954 213.629 104.277 220.297 100.943C229.347 95.5605 238.092 89.4493 246.473 82.6495C252.549 78.0762 262.364 70.6453 270.311 65.5039" stroke="#7093FF" stroke-miterlimit="10" stroke-linecap="round" stroke-linejoin="round"/>
<path d="M356.782 164.961C355.378 173.534 353.044 182.106 351.173 191.827C350.14 196.668 348.892 201.438 347.435 206.115C334.816 255.847 299.292 287.28 282.006 299.858C280.031 298.534 278.154 297.004 276.396 295.285C272.91 292.811 269.624 289.941 266.582 286.712" stroke="#7093FF" stroke-miterlimit="10" stroke-linecap="round" stroke-linejoin="round"/>
<path d="M271.715 215.831L243.658 181.534C242.754 180.265 242.256 178.641 242.256 176.961C242.256 175.28 242.754 173.657 243.658 172.387L254.877 158.668C255.911 157.562 257.241 156.952 258.617 156.952C259.994 156.952 261.323 157.562 262.358 158.668L275.444 174.671C275.816 175.21 276.281 175.644 276.806 175.941C277.331 176.238 277.903 176.392 278.482 176.392C279.061 176.392 279.632 176.238 280.157 175.941C280.682 175.644 281.147 175.21 281.52 174.671L316.577 131.779C317.611 130.675 318.94 130.066 320.315 130.066C321.69 130.066 323.019 130.675 324.053 131.779L335.272 145.499C336.176 146.769 336.674 148.392 336.674 150.073C336.674 151.753 336.176 153.377 335.272 154.646L285.752 215.831C283.865 218.038 281.35 219.271 278.733 219.271C276.117 219.271 273.601 218.038 271.715 215.831V215.831Z" fill="white"/>
</g>
<defs>
<filter id="filter0_d_5072_4283" x="0.820312" y="0.912109" width="549.723" height="576.178" filterUnits="userSpaceOnUse" color-interpolation-filters="sRGB">
<feFlood flood-opacity="0" result="BackgroundImageFix"/>
<feColorMatrix in="SourceAlpha" type="matrix" values="0 0 0 0 0 0 0 0 0 0 0 0 0 0 0 0 0 0 127 0" result="hardAlpha"/>
<feOffset dy="4"/>
<feGaussianBlur stdDeviation="2"/>
<feComposite in2="hardAlpha" operator="out"/>
<feColorMatrix type="matrix" values="0 0 0 0 0 0 0 0 0 0 0 0 0 0 0 0 0 0 0.25 0"/>
<feBlend mode="normal" in2="BackgroundImageFix" result="effect1_dropShadow_5072_4283"/>
<feBlend mode="normal" in="SourceGraphic" in2="effect1_dropShadow_5072_4283" result="shape"/>
</filter>
</defs>
</svg>
